<svg xmlns="http://www.w3.org/2000/svg" version="1.1" width="200" height="200" viewBox="0 0 200 200">
  <rect fill="#eeeeee" x="0" y="0" width="200" height="200"/>
  <path fill="#bbbbbb" d="m 167.36529,148.70212 q 0,11.47762 -6.9873,18.1327 -6.9873,6.65509 -18.56136,6.65509 H 58.183366 q -11.574056,0 -18.561357,-6.65509 -6.987301,-6.65508 -6.987301,-18.1327 0,-5.06901 0.332219,-9.90225 0.332218,-4.83323 1.339589,-10.42737 1.007372,-5.59412 2.539863,-10.3845 1.53249,-4.79037 4.11522,-9.33426 2.58273,-4.54389 5.937062,-7.74819 3.354333,-3.204292 8.176857,-5.122582 4.822523,-1.918291 10.673849,-1.918291 0.857338,0 4.018771,2.057605 3.161434,2.057604 7.126616,4.597458 3.965197,2.53987 10.330927,4.59749 6.365731,2.0576 12.774319,2.0576 6.4086,0 12.77433,-2.0576 6.36574,-2.05762 10.33092,-4.59749 3.96519,-2.539854 7.12661,-4.597458 3.16144,-2.057605 4.01877,-2.057605 5.84062,0 10.67386,1.918291 4.83323,1.91829 8.17685,5.122582 3.34362,3.2043 5.93707,7.74819 2.59344,4.54389 4.11521,9.33426 1.52179,4.79038 2.53986,10.3845 1.01809,5.59414 1.3396,10.42737 0.3215,4.83324 0.33221,9.90225 z M 136.74763,63.247004 q 0,15.217748 -10.75959,25.97733 -10.75958,10.759577 -25.97733,10.759577 -15.217727,0 -25.977309,-10.759577 -10.759595,-10.759582 -10.759595,-25.97733 0,-15.217741 10.759595,-25.977327 10.759582,-10.759586 25.977309,-10.759586 15.21775,0 25.97733,10.759586 10.75959,10.759586 10.75959,25.977327 z"/>
</svg>
