<?xml version="1.0" encoding="UTF-8" standalone="no"?>
<svg xmlns="http://www.w3.org/2000/svg" width="512" height="512" viewBox="0 0 512 512">
  <rect fill="#dddddd" x="0" y="0" width="512" height="512"/>
  <path fill="#888888" d="m 321.80636,147.5089 c -36.97893,0 -67.51947,-24.00279 -114.01174,-24.00279 -17.22076,0 -32.64664,3.02528 -46.95599,8.28984 a 38.607494,38.607494 0 0 0 2.4746,-16.25949 C 162.09042,95.913553 146.00414,80.173687 126.35915,79.374582 104.28166,78.476108 86.101695,96.107464 86.101695,117.98553 c 0,13.12932 6.55362,24.72185 16.561745,31.70538 v 266.406 c 0,9.14691 7.41483,16.56174 16.56174,16.56174 h 11.04116 c 9.14692,0 16.56175,-7.41483 16.56175,-16.56174 v -65.14286 c 19.53664,-8.32504 43.8762,-15.26579 78.96846,-15.26579 36.97961,0 67.51947,24.0028 114.01173,24.0028 33.24011,0 59.80653,-11.24404 84.53735,-28.19499 5.9919,-4.10662 9.55268,-10.92523 9.55268,-18.18893 V 145.55048 c 0,-16.14287 -16.74738,-26.82313 -31.38796,-20.02315 -23.69571,11.00528 -52.75881,21.98157 -80.70399,21.98157 z"/>
</svg>
