<svg xmlns="http://www.w3.org/2000/svg" version="1.1" width="200" height="200" viewBox="0 0 200 200">
  <rect fill="#eeeeee" width="200" height="200"/>
  <path fill="#bbbbbb" d="m98.1223 20.5563c-33.4451 1.0025-59.2267 30.1798-59.2267 63.6376v83.993c0 4.53828 5.48348 6.80742 8.69146 3.59943l7.93083-5.89721c2.11956-1.57535 5.09203-1.26982 6.8456 0.70334l13.6689 15.3875c1.98907 1.98907 5.21296 1.98907 7.20204 0l12.9592-14.5918c2.02727-2.28187 5.5885-2.28187 7.61258 0l12.9592 14.5918c1.98907 1.98907 5.21296 1.98907 7.20204 0l13.6689-15.3875c1.75357-1.97316 4.72605-2.28186 6.8456-0.70334l7.93085 5.89721c3.20797 3.20799 8.69145 0.93566 8.69145-3.59943v-86.555c0-34.3712-28.3785-62.1132-62.982-61.0757zm-18.4904 71.2598c-5.62352 0-10.1841-4.56054-10.1841-10.1841 0-5.62352 4.56054-10.1841 10.1841-10.1841 5.62351 0 10.1841 4.56055 10.1841 10.1841 0 5.62351-4.56055 10.1841-10.1841 10.1841zm40.7362 0c-5.6235 0-10.184-4.56054-10.184-10.1841 0-5.62352 4.56054-10.1841 10.184-10.1841 5.62352 0 10.1841 4.56055 10.1841 10.1841 0 5.62351-4.56054 10.1841-10.1841 10.1841z"/>
</svg>
