<?xml version="1.0" encoding="UTF-8" standalone="no"?>
<svg xmlns="http://www.w3.org/2000/svg" version="1.1" viewBox="0 0 112 112">
  <path fill="#e8eee8" d="M 105.83333,55.562489 A 50.270832,50.270832 0 0 1 55.5625,105.83332 50.270832,50.270832 0 0 1 5.2916679,55.562489 50.270832,50.270832 0 0 1 55.5625,5.2916565 50.270832,50.270832 0 0 1 105.83333,55.562489 Z"/>
  <g fill="#333c33">
    <path d="M 55.562499,2.1166666 A 53.445835,53.44583 0 0 0 2.1166666,55.562499 53.445835,53.44583 0 0 0 55.562499,109.00833 53.445835,53.44583 0 0 0 109.00833,55.562499 53.445835,53.44583 0 0 0 55.562499,2.1166666 Z m 0,6.5727254 A 46.873027,46.873027 0 0 1 102.43561,55.562499 46.873027,46.873027 0 0 1 55.562499,102.43561 46.873027,46.873027 0 0 1 8.689392,55.562499 46.873027,46.873027 0 0 1 55.562499,8.689392 Z"/>
    <path d="M 55.562499,10.054167 A 45.508333,45.508333 0 0 0 10.054167,55.562499 45.508333,45.508333 0 0 0 55.562499,101.07083 45.508333,45.508333 0 0 0 101.07083,55.562499 45.508333,45.508333 0 0 0 55.562499,10.054167 Z m 0,2.328539 c 23.92172,0 43.179793,19.258074 43.179793,43.179793 0,23.92172 -19.258073,43.179793 -43.179793,43.179793 -23.921719,0 -43.179793,-19.258073 -43.179793,-43.179793 0,-23.921719 19.258074,-43.179793 43.179793,-43.179793 z"/>
    <path d="m 28.488398,45.708331 c -1.992687,0.929205 -2.848849,3.281485 -1.919642,5.274175 l 5.255434,11.270315 -0.719382,0.335453 -3.019079,-6.474436 c -0.929207,-1.99269 -3.281488,-2.848848 -5.274175,-1.919643 -1.992688,0.929206 -2.84885,3.281486 -1.919643,5.274175 l 3.019079,6.474437 -2.877527,1.341813 3.354533,7.193817 2.877527,-1.341813 3.019079,6.474437 c 0.929207,1.99269 3.281487,2.848848 5.274175,1.919642 1.992688,-0.929205 2.84885,-3.281485 1.919643,-5.274175 l -3.019079,-6.474436 0.719381,-0.335453 5.255435,11.270314 c 0.929206,1.99269 3.281487,2.848849 5.274175,1.919643 1.992687,-0.929205 2.848849,-3.281485 1.919643,-5.274175 L 42.37254,66.092106 72.106988,52.226705 77.362422,63.49702 c 0.929202,1.99268 3.281488,2.848848 5.274175,1.919643 1.992688,-0.929206 2.848845,-3.281495 1.919643,-5.274176 l -5.255434,-11.270314 0.719381,-0.335453 3.01908,6.474436 c 0.929206,1.99269 3.281487,2.848848 5.274175,1.919642 1.992687,-0.929205 2.848849,-3.281485 1.919643,-5.274175 l -3.01908,-6.474436 2.877527,-1.341813 -3.354532,-7.193818 -2.877527,1.341813 -3.019079,-6.474436 c -0.929207,-1.99269 -3.281488,-2.848848 -5.274176,-1.919643 -1.992687,0.929206 -2.848849,3.281486 -1.919642,5.274175 l 3.019079,6.474437 -0.719382,0.335453 -5.255434,-11.270315 c -0.929202,-1.99268 -3.281488,-2.848848 -5.274175,-1.919643 -1.992688,0.929206 -2.848845,3.281495 -1.919643,5.274176 L 68.752455,45.032887 39.018008,58.898288 33.762574,47.627974 c -0.929207,-1.99269 -3.281488,-2.848849 -5.274176,-1.919643 z"/>
  </g>
  <g fill="#3ccca3">
    <path d="M 55.562499,2.64583 A 52.916666,52.916666 0 0 0 2.6458334,55.5625 52.916666,52.916666 0 0 0 55.562499,108.47916 52.916666,52.916666 0 0 0 108.47916,55.5625 52.916666,52.916666 0 0 0 55.562499,2.64583 Z m 0,5.57018 A 47.34649,47.34649 0 0 1 102.90899,55.5625 47.34649,47.34649 0 0 1 55.562499,102.90898 47.34649,47.34649 0 0 1 8.2160087,55.5625 47.34649,47.34649 0 0 1 55.562499,8.21601 Z"/>
    <path d="M 55.562499,10.58335 A 44.979167,44.979164 0 0 0 10.583333,55.56252 44.979167,44.979164 0 0 0 55.562499,100.54168 44.979167,44.979164 0 0 0 100.54167,55.56252 44.979167,44.979164 0 0 0 55.562499,10.58335 Z m 0,1.28512 c 24.206502,0 43.694048,19.48754 43.694048,43.69405 0,24.2065 -19.487546,43.69404 -43.694048,43.69404 -24.206502,0 -43.694047,-19.48754 -43.694047,-43.69404 0,-24.20651 19.487545,-43.69405 43.694047,-43.69405 z"/>
    <path d="m 28.712035,46.18792 c -1.726996,0.80531 -2.469002,2.84396 -1.66369,4.57095 l 5.479069,11.74991 -1.678557,0.78272 -3.242715,-6.95402 c -0.805311,-1.727 -2.843956,-2.46901 -4.570952,-1.66369 -1.726995,0.80531 -2.469001,2.84395 -1.66369,4.57095 l 3.242715,6.95402 -2.877528,1.34181 2.907262,6.23465 2.877527,-1.34182 3.242715,6.95403 c 0.805311,1.72699 2.843956,2.469 4.570952,1.66369 1.726995,-0.80531 2.469001,-2.84396 1.66369,-4.57095 l -3.242715,-6.95403 1.678558,-0.78272 5.479069,11.7499 c 0.805312,1.727 2.843956,2.469 4.570952,1.66369 1.726996,-0.80531 2.469002,-2.84396 1.663691,-4.57095 l -5.47907,-11.7499 30.693623,-14.31268 5.47907,11.74991 c 0.805311,1.72699 2.843956,2.469 4.570952,1.66369 1.726996,-0.80531 2.469002,-2.84396 1.66369,-4.57095 l -5.479069,-11.74991 1.678557,-0.78272 3.242715,6.95402 c 0.805308,1.72699 2.843956,2.469 4.570952,1.66369 1.726996,-0.80531 2.468998,-2.84396 1.66369,-4.57095 l -3.242715,-6.95402 2.877528,-1.34182 -2.907262,-6.23464 -2.877527,1.34182 -3.242715,-6.95403 c -0.805311,-1.72699 -2.843956,-2.469 -4.570952,-1.66369 -1.726995,0.80531 -2.469001,2.84396 -1.66369,4.57095 l 3.242715,6.95403 -1.678558,0.78272 -5.479069,-11.7499 c -0.805312,-1.727 -2.843956,-2.469 -4.570952,-1.66369 -1.726996,0.80531 -2.469002,2.84395 -1.663691,4.57095 l 5.47907,11.7499 -30.693623,14.31267 -5.47907,-11.7499 c -0.805311,-1.72699 -2.843956,-2.469 -4.570952,-1.66369 z"/>
  </g>
</svg>
