<?xml version="1.0" encoding="UTF-8" standalone="no"?>
<svg xmlns="http://www.w3.org/2000/svg" version="1.1" width="200" height="200" viewBox="0 0 200 200">
  <rect x="0" y="0" width="200" height="200" fill="#eeeeee"/>
  <path fill="#bbbbbb" d="m 108.13498,118.74490 -26.44043,0 0,-3.58887 q 0,-6.00586 2.416992,-10.62012 2.416992,-4.6875 10.180664,-11.86523 l 4.6875,-4.24805 q 4.174804,-3.80859 6.079104,-7.17773 1.97754,-3.36914 1.97754,-6.73829 0,-5.12695 -3.51563,-7.98339 -3.51562,-2.92969 -9.814452,-2.92969 -5.932617,0 -12.817383,2.49023 -6.884765,2.417 -14.355468,7.25098 l 0,-22.99805 q 8.862304,-3.07617 16.186523,-4.54101 7.324219,-1.46485 14.135742,-1.46485 17.871098,0 27.246098,7.32422 9.375,7.25098 9.375,21.24024 0,7.17773 -2.85645,12.89062 -2.85644,5.63965 -9.74121,12.1582 l -4.6875,4.17481 q -4.98047,4.54101 -6.51855,7.32422 -1.53809,2.70996 -1.53809,6.00586 l 0,3.2959 z m -26.44043,10.83984 26.44043,0 0,26.0742 -26.44043,0 0,-26.0742 z"/>
</svg>
