<svg xmlns="http://www.w3.org/2000/svg" viewBox="0 0 100 100">
  <circle cx="50" cy="50" r="48" fill="none" stroke="#FFA500" stroke-width="4"/>

  <!-- Owl in lower left corner -->
  <g transform="translate(2, 69) scale(0.04)">
    <!-- Main body (orange) -->
    <path d="M 120 20
             C 120 20, 130 80, 140 120
             C 145 145, 155 100, 170 90
             C 190 75, 300 75, 450 120
             C 480 130, 520 100, 560 90
             C 575 87, 585 100, 590 120
             C 595 150, 605 200, 600 250
             C 595 300, 570 400, 560 450
             L 550 480
             C 520 520, 480 550, 420 580
             C 380 600, 300 620, 220 580
             C 160 550, 120 520, 90 480
             L 80 450
             C 70 400, 55 350, 55 300
             C 55 250, 65 200, 80 150
             C 90 110, 100 60, 120 20 Z"
             fill="#FFA500" stroke="#000" stroke-width="8"/>

    <!-- White belly -->
    <ellipse cx="320" cy="600" rx="250" ry="180" fill="#FFF" stroke="#000" stroke-width="8"/>

    <!-- Left foot -->
    <path d="M 80 680
             C 80 680, 50 700, 30 720
             C 25 725, 30 735, 40 730
             L 70 710
             C 75 720, 70 740, 85 750
             C 90 753, 95 748, 92 742
             L 95 720
             C 105 730, 110 750, 125 755
             C 130 757, 135 750, 130 745
             L 120 720
             L 100 700
             Z"
             fill="#FFF" stroke="#000" stroke-width="8"/>

    <!-- Right foot -->
    <path d="M 560 680
             C 560 680, 590 700, 610 720
             C 615 725, 610 735, 600 730
             L 570 710
             C 565 720, 570 740, 555 750
             C 550 753, 545 748, 548 742
             L 545 720
             C 535 730, 530 750, 515 755
             C 510 757, 505 750, 510 745
             L 520 720
             L 540 700
             Z"
             fill="#FFF" stroke="#000" stroke-width="8"/>

    <!-- Black mask area -->
    <path d="M 140 150
             C 140 150, 120 200, 130 250
             C 135 280, 160 320, 200 340
             C 220 350, 250 360, 280 365
             L 310 380
             C 320 390, 330 400, 340 400
             L 360 380
             C 380 375, 400 370, 420 360
             C 460 340, 490 310, 500 270
             C 505 240, 495 200, 485 170
             C 480 155, 470 145, 455 145
             C 430 145, 410 165, 400 180
             C 390 195, 385 210, 375 220
             C 360 235, 340 240, 320 240
             C 300 240, 280 235, 265 225
             C 250 215, 240 200, 230 185
             C 220 170, 205 150, 180 145
             C 165 142, 150 145, 140 150 Z"
             fill="#000"/>

    <!-- Left eye (white) -->
    <ellipse cx="230" cy="230" rx="75" ry="85" fill="#FFF"/>

    <!-- Right eye (white) -->
    <ellipse cx="430" cy="250" rx="70" ry="75" fill="#FFF"/>

    <!-- Left pupil -->
    <ellipse cx="245" cy="245" rx="15" ry="20" fill="#000"/>

    <!-- Right pupil -->
    <ellipse cx="445" cy="265" rx="13" ry="18" fill="#000"/>

    <!-- Nose/beak -->
    <ellipse cx="330" cy="330" rx="30" ry="40" fill="#FFF"/>
  </g>
</svg>
