<svg version="1.1" xmlns="http://www.w3.org/2000/svg">
  <defs>

    <symbol id="add" viewBox="0 0 13 16">
      <path d="M12.571 6.571v1.714q0 0.357-0.25 0.607t-0.607 0.25h-3.714v3.714q0 0.357-0.25 0.607t-0.607 0.25h-1.714q-0.357 0-0.607-0.25t-0.25-0.607v-3.714h-3.714q-0.357 0-0.607-0.25t-0.25-0.607v-1.714q0-0.357 0.25-0.607t0.607-0.25h3.714v-3.714q0-0.357 0.25-0.607t0.607-0.25h1.714q0.357 0 0.607 0.25t0.25 0.607v3.714h3.714q0.357 0 0.607 0.25t0.25 0.607z"/>
    </symbol>

    <symbol id="administrate" viewBox="0 0 15 16">
      <path d="M3.429 13.143q0-0.232-0.17-0.402t-0.402-0.17-0.402 0.17-0.17 0.402 0.17 0.402 0.402 0.17 0.402-0.17 0.17-0.402zM9.179 9.393l-6.089 6.089q-0.33 0.33-0.804 0.33-0.464 0-0.813-0.33l-0.946-0.964q-0.339-0.321-0.339-0.804 0-0.473 0.339-0.813l6.080-6.080q0.348 0.875 1.022 1.549t1.549 1.022zM14.839 5.509q0 0.348-0.205 0.946-0.42 1.196-1.469 1.942t-2.308 0.746q-1.652 0-2.826-1.174t-1.174-2.826 1.174-2.826 2.826-1.174q0.518 0 1.085 0.147t0.96 0.415q0.143 0.098 0.143 0.25t-0.143 0.25l-2.616 1.509v2l1.723 0.955q0.045-0.027 0.705-0.433t1.21-0.723 0.629-0.317q0.134 0 0.21 0.089t0.076 0.223z"/>
    </symbol>

    <symbol id="archived" viewBox="0 0 16 16">
      <path d="M9.714 7.429q0-0.232-0.17-0.402t-0.402-0.17h-2.286q-0.232 0-0.402 0.17t-0.17 0.402 0.17 0.402 0.402 0.17h2.286q0.232 0 0.402-0.17t0.17-0.402zM14.857 5.714v8.571q0 0.232-0.17 0.402t-0.402 0.17h-12.571q-0.232 0-0.402-0.17t-0.17-0.402v-8.571q0-0.232 0.17-0.402t0.402-0.17h12.571q0.232 0 0.402 0.17t0.17 0.402zM15.429 1.714v2.286q0 0.232-0.17 0.402t-0.402 0.17h-13.714q-0.232 0-0.402-0.17t-0.17-0.402v-2.286q0-0.232 0.17-0.402t0.402-0.17h13.714q0.232 0 0.402 0.17t0.17 0.402z"/>
    </symbol>

    <symbol id="arrow-down" viewBox="0 0 15 16">
      <path d="M14.384 7.429q0 0.473-0.33 0.804l-5.813 5.821q-0.348 0.33-0.813 0.33-0.473 0-0.804-0.33l-5.813-5.821q-0.339-0.321-0.339-0.804 0-0.473 0.339-0.813l0.661-0.67q0.348-0.33 0.813-0.33 0.473 0 0.804 0.33l2.625 2.625v-6.286q0-0.464 0.339-0.804t0.804-0.339h1.143q0.464 0 0.804 0.339t0.339 0.804v6.286l2.625-2.625q0.33-0.33 0.804-0.33 0.464 0 0.813 0.33l0.67 0.67q0.33 0.348 0.33 0.813z"/>
    </symbol>

    <symbol id="arrow-left" viewBox="0 0 14 16">
      <path d="M13.714 8v1.143q0 0.473-0.29 0.808t-0.754 0.335h-6.286l2.616 2.625q0.339 0.321 0.339 0.804t-0.339 0.804l-0.67 0.679q-0.33 0.33-0.804 0.33-0.464 0-0.813-0.33l-5.813-5.821q-0.33-0.33-0.33-0.804 0-0.464 0.33-0.813l5.813-5.804q0.339-0.339 0.813-0.339 0.464 0 0.804 0.339l0.67 0.661q0.339 0.339 0.339 0.813t-0.339 0.813l-2.616 2.616h6.286q0.464 0 0.754 0.335t0.29 0.808z"/>
    </symbol>

    <symbol id="arrow-right" viewBox="0 0 13 16">
      <path d="M13.143 8.571q0 0.482-0.33 0.813l-5.813 5.813q-0.348 0.33-0.813 0.33-0.455 0-0.804-0.33l-0.67-0.67q-0.339-0.339-0.339-0.813t0.339-0.813l2.616-2.616h-6.286q-0.464 0-0.754-0.335t-0.29-0.808v-1.143q0-0.473 0.29-0.808t0.754-0.335h6.286l-2.616-2.625q-0.339-0.321-0.339-0.804t0.339-0.804l0.67-0.67q0.339-0.339 0.804-0.339 0.473 0 0.813 0.339l5.813 5.813q0.33 0.313 0.33 0.804z"/>
    </symbol>

    <symbol id="arrow-up" viewBox="0 0 15 16">
      <path d="M14.384 8.67q0 0.455-0.33 0.804l-0.67 0.67q-0.339 0.339-0.813 0.339-0.482 0-0.804-0.339l-2.625-2.616v6.286q0 0.464-0.335 0.754t-0.808 0.29h-1.143q-0.473 0-0.808-0.29t-0.335-0.754v-6.286l-2.625 2.616q-0.321 0.339-0.804 0.339t-0.804-0.339l-0.67-0.67q-0.339-0.339-0.339-0.804 0-0.473 0.339-0.813l5.813-5.813q0.313-0.33 0.804-0.33 0.482 0 0.813 0.33l5.813 5.813q0.33 0.348 0.33 0.813z"/>
    </symbol>

    <symbol id="attached" viewBox="0 0 13 16">
      <path d="M12.536 12.366q0 1.045-0.705 1.75t-1.75 0.705q-1.205 0-2.098-0.893l-6.938-6.929q-1.009-1.027-1.009-2.42 0-1.42 0.982-2.411t2.402-0.991q1.411 0 2.438 1.009l5.402 5.411q0.089 0.089 0.089 0.196 0 0.143-0.272 0.415t-0.415 0.272q-0.116 0-0.205-0.089l-5.411-5.42q-0.705-0.688-1.616-0.688-0.946 0-1.598 0.67t-0.652 1.616q0 0.938 0.679 1.616l6.929 6.938q0.563 0.563 1.295 0.563 0.571 0 0.946-0.375t0.375-0.946q0-0.732-0.563-1.295l-5.188-5.188q-0.232-0.214-0.536-0.214-0.259 0-0.429 0.17t-0.17 0.429q0 0.286 0.223 0.527l3.661 3.661q0.089 0.089 0.089 0.196 0 0.143-0.277 0.42t-0.42 0.277q-0.107 0-0.196-0.089l-3.661-3.661q-0.563-0.545-0.563-1.33 0-0.732 0.509-1.241t1.241-0.509q0.786 0 1.33 0.563l5.188 5.188q0.893 0.875 0.893 2.098z"/>
    </symbol>

    <symbol id="badge" viewBox="0 0 14 16">
      <path d="M12.286 8l1.232 1.205q0.268 0.25 0.179 0.625-0.107 0.366-0.464 0.455l-1.679 0.429 0.473 1.661q0.107 0.366-0.17 0.625-0.259 0.277-0.625 0.17l-1.661-0.473-0.429 1.679q-0.089 0.357-0.455 0.464-0.107 0.018-0.17 0.018-0.277 0-0.455-0.196l-1.205-1.232-1.205 1.232q-0.25 0.268-0.625 0.179-0.366-0.098-0.455-0.464l-0.429-1.679-1.661 0.473q-0.366 0.107-0.625-0.17-0.277-0.259-0.17-0.625l0.473-1.661-1.679-0.429q-0.357-0.089-0.464-0.455-0.089-0.375 0.179-0.625l1.232-1.205-1.232-1.205q-0.268-0.25-0.179-0.625 0.107-0.366 0.464-0.455l1.679-0.429-0.473-1.661q-0.107-0.366 0.17-0.625 0.259-0.277 0.625-0.17l1.661 0.473 0.429-1.679q0.089-0.366 0.455-0.455 0.366-0.107 0.625 0.17l1.205 1.241 1.205-1.241q0.259-0.268 0.625-0.17 0.366 0.089 0.455 0.455l0.429 1.679 1.661-0.473q0.366-0.107 0.625 0.17 0.277 0.259 0.17 0.625l-0.473 1.661 1.679 0.429q0.357 0.089 0.464 0.455 0.089 0.375-0.179 0.625z"/>
    </symbol>

    <symbol id="birthday" viewBox="0 0 16 16">
      <path d="M16 12.571v3.429h-16v-3.429q0.402 0 0.759-0.125t0.527-0.246 0.42-0.335q0.268-0.241 0.46-0.339t0.504-0.098 0.496 0.098 0.469 0.339q0.259 0.223 0.42 0.339t0.518 0.241 0.768 0.125q0.402 0 0.759-0.129t0.518-0.241 0.429-0.335q0.188-0.17 0.29-0.241t0.277-0.134 0.388-0.063q0.313 0 0.504 0.098t0.46 0.339q0.25 0.214 0.42 0.335t0.527 0.246 0.759 0.125 0.759-0.125 0.527-0.246 0.42-0.335q0.268-0.241 0.46-0.339t0.504-0.098q0.304 0 0.496 0.098t0.46 0.339q0.25 0.214 0.42 0.335t0.527 0.246 0.759 0.125zM16 9.714v1.714q-0.313 0-0.496-0.098t-0.469-0.339q-0.259-0.223-0.42-0.339t-0.518-0.241-0.759-0.125q-0.411 0-0.768 0.125t-0.518 0.241-0.42 0.339q-0.196 0.17-0.295 0.241t-0.277 0.134-0.393 0.063q-0.313 0-0.504-0.098t-0.46-0.339q-0.259-0.223-0.42-0.339t-0.518-0.241-0.768-0.125q-0.402 0-0.759 0.129t-0.518 0.241-0.429 0.335q-0.188 0.17-0.29 0.241t-0.277 0.134-0.388 0.063q-0.313 0-0.504-0.098t-0.46-0.339q-0.25-0.214-0.42-0.335t-0.527-0.246-0.759-0.125q-0.411 0-0.768 0.125t-0.518 0.241-0.42 0.339q-0.268 0.241-0.46 0.339t-0.504 0.098v-1.714q0-0.714 0.5-1.214t1.214-0.5h0.571v-4h2.286v4h2.286v-4h2.286v4h2.286v-4h2.286v4h0.571q0.714 0 1.214 0.5t0.5 1.214zM4.571 2q0 0.688-0.321 1.058t-0.821 0.371q-0.473 0-0.808-0.335t-0.335-0.808q0-0.259 0.085-0.455t0.21-0.304 0.277-0.25 0.277-0.281 0.21-0.397 0.085-0.598q0.339 0 0.741 0.661t0.402 1.339zM9.143 2q0 0.688-0.321 1.058t-0.821 0.371q-0.473 0-0.808-0.335t-0.335-0.808q0-0.259 0.085-0.455t0.21-0.304 0.277-0.25 0.277-0.281 0.21-0.397 0.085-0.598q0.339 0 0.741 0.661t0.402 1.339zM13.714 2q0 0.688-0.321 1.058t-0.821 0.371q-0.473 0-0.808-0.335t-0.335-0.808q0-0.259 0.085-0.455t0.21-0.304 0.277-0.25 0.277-0.281 0.21-0.397 0.085-0.598q0.339 0 0.741 0.661t0.402 1.339z"/>
    </symbol>

    <symbol id="board" viewBox="0 0 16 16">
      <path d="M12.571 6.857q0 1.241-0.839 2.295t-2.29 1.665-3.156 0.612q-0.768 0-1.571-0.143-1.107 0.786-2.482 1.143-0.321 0.080-0.768 0.143h-0.027q-0.098 0-0.183-0.071t-0.103-0.188q-0.009-0.027-0.009-0.058t0.004-0.058 0.018-0.054l0.022-0.045t0.031-0.049 0.036-0.045 0.040-0.045 0.036-0.040q0.045-0.054 0.205-0.223t0.232-0.263 0.201-0.259 0.223-0.344 0.183-0.393q-1.107-0.643-1.741-1.58t-0.634-2q0-1.241 0.839-2.295t2.29-1.665 3.156-0.612 3.156 0.612 2.29 1.665 0.839 2.295zM16 9.143q0 1.071-0.634 2.004t-1.741 1.576q0.089 0.214 0.183 0.393t0.223 0.344 0.201 0.259 0.232 0.263 0.205 0.223q0.009 0.009 0.036 0.040t0.040 0.045 0.036 0.045 0.031 0.049l0.022 0.045t0.018 0.054 0.004 0.058-0.009 0.058q-0.027 0.125-0.116 0.196t-0.196 0.063q-0.446-0.063-0.768-0.143-1.375-0.357-2.482-1.143-0.804 0.143-1.571 0.143-2.42 0-4.214-1.179 0.518 0.036 0.786 0.036 1.438 0 2.759-0.402t2.357-1.152q1.116-0.821 1.714-1.893t0.598-2.268q0-0.688-0.205-1.357 1.152 0.634 1.821 1.589t0.67 2.054z"/>
    </symbol>

    <symbol id="bookmark" viewBox="0 0 11 16">
      <path d="M10.393 1.143q0.205 0 0.393 0.080 0.295 0.116 0.469 0.366t0.174 0.554v11.509q0 0.304-0.174 0.554t-0.469 0.366q-0.17 0.071-0.393 0.071-0.429 0-0.741-0.286l-3.938-3.786-3.938 3.786q-0.321 0.295-0.741 0.295-0.205 0-0.393-0.080-0.295-0.116-0.469-0.366t-0.174-0.554v-11.509q0-0.304 0.174-0.554t0.469-0.366q0.188-0.080 0.393-0.080h9.357z"/>
    </symbol>

    <symbol id="brand" viewBox="0 0 17 16">
      <path d="M2.857 2.286q0 0.643-0.571 0.982v11.304q0 0.116-0.085 0.201t-0.201 0.085h-0.571q-0.116 0-0.201-0.085t-0.085-0.201v-11.304q-0.571-0.339-0.571-0.982 0-0.473 0.335-0.808t0.808-0.335 0.808 0.335 0.335 0.808zM16 2.857v6.813q0 0.223-0.112 0.344t-0.353 0.246q-1.92 1.036-3.295 1.036-0.545 0-1.103-0.196t-0.969-0.429-1.031-0.429-1.272-0.196q-1.714 0-4.143 1.304-0.152 0.080-0.295 0.080-0.232 0-0.402-0.17t-0.17-0.402v-6.625q0-0.286 0.277-0.491 0.188-0.125 0.705-0.384 2.107-1.071 3.759-1.071 0.955 0 1.786 0.259t1.955 0.786q0.339 0.17 0.786 0.17 0.482 0 1.049-0.188t0.982-0.42 0.786-0.42 0.487-0.188q0.232 0 0.402 0.17t0.17 0.402z"/>
    </symbol>

    <symbol id="caret-down" viewBox="0 0 9 16">
      <path d="M9.143 6.286q0 0.232-0.17 0.402l-4 4q-0.17 0.17-0.402 0.17t-0.402-0.17l-4-4q-0.17-0.17-0.17-0.402t0.17-0.402 0.402-0.17h8q0.232 0 0.402 0.17t0.17 0.402z"/>
    </symbol>

    <symbol id="clipboard" viewBox="0 0 16 16">
      <path d="M6.857 14.857h8v-5.714h-3.714c-0.473 0-0.857-0.384-0.857-0.857v-3.714h-3.429v10.286zM9.143 2v-0.571c0-0.152-0.134-0.286-0.286-0.286h-6.286c-0.152 0-0.286 0.134-0.286 0.286v0.571c0 0.152 0.134 0.286 0.286 0.286h6.286c0.152 0 0.286-0.134 0.286-0.286zM11.429 8h2.67l-2.67-2.67v2.67zM16 9.143v6c0 0.473-0.384 0.857-0.857 0.857h-8.571c-0.473 0-0.857-0.384-0.857-0.857v-1.429h-4.857c-0.473 0-0.857-0.384-0.857-0.857v-12c0-0.473 0.384-0.857 0.857-0.857h9.714c0.473 0 0.857 0.384 0.857 0.857v2.929c0.116 0.071 0.223 0.152 0.321 0.25l3.643 3.643c0.339 0.339 0.607 0.991 0.607 1.464z"/>
    </symbol>

    <symbol id="dashboard" viewBox="0 0 16 16">
      <path d="M3.429 10.286q0-0.473-0.335-0.808t-0.808-0.335-0.808 0.335-0.335 0.808 0.335 0.808 0.808 0.335 0.808-0.335 0.335-0.808zM5.143 6.286q0-0.473-0.335-0.808t-0.808-0.335-0.808 0.335-0.335 0.808 0.335 0.808 0.808 0.335 0.808-0.335 0.335-0.808zM8.964 10.58l0.902-3.411q0.054-0.232-0.067-0.433t-0.344-0.263-0.429 0.058-0.268 0.353l-0.902 3.411q-0.536 0.045-0.955 0.388t-0.563 0.879q-0.179 0.688 0.179 1.304t1.045 0.795 1.304-0.179 0.795-1.045q0.143-0.536-0.054-1.045t-0.643-0.813zM14.857 10.286q0-0.473-0.335-0.808t-0.808-0.335-0.808 0.335-0.335 0.808 0.335 0.808 0.808 0.335 0.808-0.335 0.335-0.808zM9.143 4.571q0-0.473-0.335-0.808t-0.808-0.335-0.808 0.335-0.335 0.808 0.335 0.808 0.808 0.335 0.808-0.335 0.335-0.808zM13.143 6.286q0-0.473-0.335-0.808t-0.808-0.335-0.808 0.335-0.335 0.808 0.335 0.808 0.808 0.335 0.808-0.335 0.335-0.808zM16 10.286q0 2.33-1.259 4.313-0.17 0.259-0.482 0.259h-12.518q-0.313 0-0.482-0.259-1.259-1.973-1.259-4.313 0-1.625 0.634-3.107t1.705-2.554 2.554-1.705 3.107-0.634 3.107 0.634 2.554 1.705 1.705 2.554 0.634 3.107z"/>
    </symbol>

    <symbol id="date" viewBox="0 0 15 16">
      <path d="M1.143 14.857h2.571v-2.571h-2.571v2.571zM4.286 14.857h2.857v-2.571h-2.857v2.571zM1.143 11.714h2.571v-2.857h-2.571v2.857zM4.286 11.714h2.857v-2.857h-2.857v2.857zM1.143 8.286h2.571v-2.571h-2.571v2.571zM7.714 14.857h2.857v-2.571h-2.857v2.571zM4.286 8.286h2.857v-2.571h-2.857v2.571zM11.143 14.857h2.571v-2.571h-2.571v2.571zM7.714 11.714h2.857v-2.857h-2.857v2.857zM4.571 4v-2.571q0-0.116-0.085-0.201t-0.201-0.085h-0.571q-0.116 0-0.201 0.085t-0.085 0.201v2.571q0 0.116 0.085 0.201t0.201 0.085h0.571q0.116 0 0.201-0.085t0.085-0.201zM11.143 11.714h2.571v-2.857h-2.571v2.857zM7.714 8.286h2.857v-2.571h-2.857v2.571zM11.143 8.286h2.571v-2.571h-2.571v2.571zM11.429 4v-2.571q0-0.116-0.085-0.201t-0.201-0.085h-0.571q-0.116 0-0.201 0.085t-0.085 0.201v2.571q0 0.116 0.085 0.201t0.201 0.085h0.571q0.116 0 0.201-0.085t0.085-0.201zM14.857 3.429v11.429q0 0.464-0.339 0.804t-0.804 0.339h-12.571q-0.464 0-0.804-0.339t-0.339-0.804v-11.429q0-0.464 0.339-0.804t0.804-0.339h1.143v-0.857q0-0.589 0.42-1.009t1.009-0.42h0.571q0.589 0 1.009 0.42t0.42 1.009v0.857h3.429v-0.857q0-0.589 0.42-1.009t1.009-0.42h0.571q0.589 0 1.009 0.42t0.42 1.009v0.857h1.143q0.464 0 0.804 0.339t0.339 0.804z"/>
    </symbol>

    <symbol id="date-okay" viewBox="0 0 15 16">
      <path d="M11.634 8.607l-4.571 4.571q-0.089 0.080-0.205 0.080t-0.205-0.080l-2.571-2.571q-0.080-0.089-0.080-0.205t0.080-0.196l0.411-0.411q0.080-0.080 0.196-0.080t0.205 0.080l1.964 1.964 3.964-3.964q0.089-0.080 0.205-0.080t0.196 0.080l0.411 0.411q0.080 0.080 0.080 0.196t-0.080 0.205zM1.143 14.857h12.571v-9.143h-12.571v9.143zM4.571 4v-2.571q0-0.125-0.080-0.205t-0.205-0.080h-0.571q-0.125 0-0.205 0.080t-0.080 0.205v2.571q0 0.125 0.080 0.205t0.205 0.080h0.571q0.125 0 0.205-0.080t0.080-0.205zM11.429 4v-2.571q0-0.125-0.080-0.205t-0.205-0.080h-0.571q-0.125 0-0.205 0.080t-0.080 0.205v2.571q0 0.125 0.080 0.205t0.205 0.080h0.571q0.125 0 0.205-0.080t0.080-0.205zM14.857 3.429v11.429q0 0.464-0.339 0.804t-0.804 0.339h-12.571q-0.464 0-0.804-0.339t-0.339-0.804v-11.429q0-0.464 0.339-0.804t0.804-0.339h1.143v-0.857q0-0.589 0.42-1.009t1.009-0.42h0.571q0.589 0 1.009 0.42t0.42 1.009v0.857h3.429v-0.857q0-0.589 0.42-1.009t1.009-0.42h0.571q0.589 0 1.009 0.42t0.42 1.009v0.857h1.143q0.464 0 0.804 0.339t0.339 0.804z"/>
    </symbol>

    <symbol id="delete" viewBox="0 0 13 16">
      <path d="M4.571 12.286v-6.286q0-0.125-0.080-0.205t-0.205-0.080h-0.571q-0.125 0-0.205 0.080t-0.080 0.205v6.286q0 0.125 0.080 0.205t0.205 0.080h0.571q0.125 0 0.205-0.080t0.080-0.205zM6.857 12.286v-6.286q0-0.125-0.080-0.205t-0.205-0.080h-0.571q-0.125 0-0.205 0.080t-0.080 0.205v6.286q0 0.125 0.080 0.205t0.205 0.080h0.571q0.125 0 0.205-0.080t0.080-0.205zM9.143 12.286v-6.286q0-0.125-0.080-0.205t-0.205-0.080h-0.571q-0.125 0-0.205 0.080t-0.080 0.205v6.286q0 0.125 0.080 0.205t0.205 0.080h0.571q0.125 0 0.205-0.080t0.080-0.205zM4.286 3.429h4l-0.429-1.045q-0.063-0.080-0.152-0.098h-2.83q-0.089 0.018-0.152 0.098zM12.571 3.714v0.571q0 0.125-0.080 0.205t-0.205 0.080h-0.857v8.464q0 0.741-0.42 1.281t-1.009 0.54h-7.429q-0.589 0-1.009-0.522t-0.42-1.263v-8.5h-0.857q-0.125 0-0.205-0.080t-0.080-0.205v-0.571q0-0.125 0.080-0.205t0.205-0.080h2.759l0.625-1.491q0.134-0.33 0.482-0.563t0.705-0.232h2.857q0.357 0 0.705 0.232t0.482 0.563l0.625 1.491h2.759q0.125 0 0.205 0.080t0.080 0.205z"/>
    </symbol>

    <symbol id="disabled" viewBox="0 0 14 16">
      <path d="M11.714 7.973q0-1.438-0.777-2.634l-6.732 6.723q1.223 0.795 2.652 0.795 0.991 0 1.888-0.388t1.549-1.040 1.036-1.558 0.384-1.897zM2.795 10.643l6.741-6.732q-1.205-0.813-2.679-0.813-1.321 0-2.438 0.652t-1.768 1.777-0.652 2.446q0 1.446 0.795 2.67zM13.714 7.973q0 1.402-0.545 2.679t-1.46 2.196-2.188 1.464-2.665 0.545-2.665-0.545-2.188-1.464-1.46-2.196-0.545-2.679 0.545-2.674 1.46-2.192 2.188-1.464 2.665-0.545 2.665 0.545 2.188 1.464 1.46 2.192 0.545 2.674z"/>
    </symbol>

    <symbol id="download" viewBox="0 0 15 16">
      <path d="M11.429 12q0-0.232-0.17-0.402t-0.402-0.17-0.402 0.17-0.17 0.402 0.17 0.402 0.402 0.17 0.402-0.17 0.17-0.402zM13.714 12q0-0.232-0.17-0.402t-0.402-0.17-0.402 0.17-0.17 0.402 0.17 0.402 0.402 0.17 0.402-0.17 0.17-0.402zM14.857 10v2.857q0 0.357-0.25 0.607t-0.607 0.25h-13.143q-0.357 0-0.607-0.25t-0.25-0.607v-2.857q0-0.357 0.25-0.607t0.607-0.25h4.152l1.205 1.214q0.518 0.5 1.214 0.5t1.214-0.5l1.214-1.214h4.143q0.357 0 0.607 0.25t0.25 0.607zM11.955 4.92q0.152 0.366-0.125 0.625l-4 4q-0.161 0.17-0.402 0.17t-0.402-0.17l-4-4q-0.277-0.259-0.125-0.625 0.152-0.348 0.527-0.348h2.286v-4q0-0.232 0.17-0.402t0.402-0.17h2.286q0.232 0 0.402 0.17t0.17 0.402v4h2.286q0.375 0 0.527 0.348z"/>
    </symbol>

    <symbol id="edit" viewBox="0 0 14 16">
      <path d="M3.241 13.714l0.812-0.813-2.098-2.098-0.813 0.813v0.955h1.143v1.143h0.955zM7.911 5.429q0-0.196-0.196-0.196-0.089 0-0.152 0.063l-4.839 4.839q-0.063 0.063-0.063 0.152 0 0.196 0.196 0.196 0.089 0 0.152-0.063l4.839-4.839q0.063-0.063 0.063-0.152zM7.429 3.714l3.714 3.714-7.429 7.429h-3.714v-3.714zM13.527 4.571q0 0.473-0.33 0.804l-1.482 1.482-3.714-3.714 1.482-1.473q0.321-0.339 0.804-0.339 0.473 0 0.813 0.339l2.098 2.089q0.33 0.348 0.33 0.813z"/>
    </symbol>

    <symbol id="email" viewBox="0 0 16 16">
      <path d="M16 6.339v7.089q0 0.589-0.42 1.009t-1.009 0.42h-13.143q-0.589 0-1.009-0.42t-0.42-1.009v-7.089q0.393 0.438 0.902 0.777 3.232 2.196 4.438 3.080 0.509 0.375 0.826 0.585t0.844 0.429 0.982 0.219h0.018q0.455 0 0.982-0.219t0.844-0.429 0.826-0.585q1.518-1.098 4.446-3.080 0.509-0.348 0.893-0.777zM16 3.714q0 0.705-0.438 1.348t-1.089 1.098q-3.357 2.33-4.179 2.902-0.089 0.063-0.379 0.272t-0.482 0.339-0.464 0.29-0.513 0.241-0.446 0.080h-0.018q-0.205 0-0.446-0.080t-0.513-0.241-0.464-0.29-0.482-0.339-0.379-0.272q-0.813-0.571-2.339-1.629t-1.83-1.272q-0.554-0.375-1.045-1.031t-0.491-1.219q0-0.696 0.371-1.161t1.058-0.464h13.143q0.58 0 1.004 0.42t0.424 1.009z"/>
    </symbol>

    <symbol id="enabled" viewBox="0 0 16 16">
      <path d="M14.92 5.054q0 0.357-0.25 0.607l-7.679 7.679q-0.25 0.25-0.607 0.25t-0.607-0.25l-4.446-4.446q-0.25-0.25-0.25-0.607t0.25-0.607l1.214-1.214q0.25-0.25 0.607-0.25t0.607 0.25l2.625 2.634 5.857-5.866q0.25-0.25 0.607-0.25t0.607 0.25l1.214 1.214q0.25 0.25 0.25 0.607z"/>
    </symbol>

    <symbol id="error" viewBox="0 0 16 16">
      <path d="M9.143 12.277v-1.696q0-0.125-0.085-0.21t-0.201-0.085h-1.714q-0.116 0-0.201 0.085t-0.085 0.21v1.696q0 0.125 0.085 0.21t0.201 0.085h1.714q0.116 0 0.201-0.085t0.085-0.21zM9.125 8.938l0.161-4.098q0-0.107-0.089-0.17-0.116-0.098-0.214-0.098h-1.964q-0.098 0-0.214 0.098-0.089 0.063-0.089 0.188l0.152 4.080q0 0.089 0.089 0.147t0.214 0.058h1.652q0.125 0 0.21-0.058t0.094-0.147zM9 0.598l6.857 12.571q0.313 0.563-0.018 1.125-0.152 0.259-0.415 0.411t-0.567 0.152h-13.714q-0.304 0-0.567-0.152t-0.415-0.411q-0.33-0.563-0.018-1.125l6.857-12.571q0.152-0.277 0.42-0.438t0.58-0.161 0.58 0.161 0.42 0.438z"/>
    </symbol>

    <symbol id="filter" viewBox="0 0 13 16">
      <path d="M12.527 2.634q0.152 0.366-0.125 0.625l-4.402 4.402v6.625q0 0.375-0.348 0.527-0.116 0.045-0.223 0.045-0.241 0-0.402-0.17l-2.286-2.286q-0.17-0.17-0.17-0.402v-4.339l-4.402-4.402q-0.277-0.259-0.125-0.625 0.152-0.348 0.527-0.348h11.429q0.375 0 0.527 0.348z"/>
    </symbol>

    <symbol id="hidden" viewBox="0 0 16 16">
      <path d="M4.955 11.92l0.696-1.259q-0.777-0.563-1.214-1.42t-0.438-1.813q0-1.080 0.545-2.009-2.045 1.045-3.402 3.152 1.491 2.304 3.813 3.348zM8.429 5.143q0-0.179-0.125-0.304t-0.304-0.125q-1.116 0-1.915 0.799t-0.799 1.915q0 0.179 0.125 0.304t0.304 0.125 0.304-0.125 0.125-0.304q0-0.768 0.545-1.313t1.313-0.545q0.179 0 0.304-0.125t0.125-0.304zM11.67 3.438q0 0.063-0.009 0.080-0.938 1.679-2.813 5.054t-2.821 5.063l-0.438 0.795q-0.089 0.143-0.25 0.143-0.107 0-1.196-0.625-0.143-0.089-0.143-0.25 0-0.107 0.393-0.777-1.277-0.58-2.353-1.545t-1.862-2.188q-0.179-0.277-0.179-0.616t0.179-0.616q1.366-2.098 3.393-3.313t4.429-1.214q0.795 0 1.607 0.152l0.482-0.866q0.089-0.143 0.25-0.143 0.045 0 0.161 0.054t0.277 0.138 0.295 0.165 0.281 0.165 0.174 0.103q0.143 0.089 0.143 0.241zM12 7.429q0 1.241-0.705 2.263t-1.866 1.469l2.5-4.482q0.071 0.402 0.071 0.75zM16 8.571q0 0.313-0.179 0.616-0.348 0.571-0.973 1.295-1.339 1.536-3.103 2.384t-3.746 0.848l0.661-1.179q1.893-0.161 3.504-1.223t2.692-2.741q-1.027-1.598-2.518-2.625l0.563-1q0.848 0.571 1.629 1.366t1.29 1.643q0.179 0.304 0.179 0.616z"/>
    </symbol>

    <symbol id="history" viewBox="0 0 14 16">
      <path d="M13.714 8q0 1.393-0.545 2.661t-1.464 2.188-2.188 1.464-2.661 0.545q-1.536 0-2.92-0.647t-2.357-1.826q-0.063-0.089-0.058-0.201t0.076-0.183l1.223-1.232q0.089-0.080 0.223-0.080 0.143 0.018 0.205 0.107 0.652 0.848 1.598 1.313t2.009 0.464q0.929 0 1.772-0.362t1.46-0.978 0.978-1.46 0.362-1.772-0.362-1.772-0.978-1.46-1.46-0.978-1.772-0.362q-0.875 0-1.679 0.317t-1.429 0.906l1.223 1.232q0.277 0.268 0.125 0.616-0.152 0.357-0.527 0.357h-4q-0.232 0-0.402-0.17t-0.17-0.402v-4q0-0.375 0.357-0.527 0.348-0.152 0.616 0.125l1.161 1.152q0.955-0.902 2.183-1.397t2.54-0.496q1.393 0 2.661 0.545t2.188 1.464 1.464 2.188 0.545 2.661zM8 5.429v4q0 0.125-0.080 0.205t-0.205 0.080h-2.857q-0.125 0-0.205-0.080t-0.080-0.205v-0.571q0-0.125 0.080-0.205t0.205-0.080h2v-3.143q0-0.125 0.080-0.205t0.205-0.080h0.571q0.125 0 0.205 0.080t0.080 0.205z"/>
    </symbol>

    <symbol id="image" viewBox="0 0 17 16">
      <path d="M5.714 5.143q0 0.714-0.5 1.214t-1.214 0.5-1.214-0.5-0.5-1.214 0.5-1.214 1.214-0.5 1.214 0.5 0.5 1.214zM14.857 8.571v4h-12.571v-1.714l2.857-2.857 1.429 1.429 4.571-4.571zM15.714 2.286h-14.286q-0.116 0-0.201 0.085t-0.085 0.201v10.857q0 0.116 0.085 0.201t0.201 0.085h14.286q0.116 0 0.201-0.085t0.085-0.201v-10.857q0-0.116-0.085-0.201t-0.201-0.085zM17.143 2.571v10.857q0 0.589-0.42 1.009t-1.009 0.42h-14.286q-0.589 0-1.009-0.42t-0.42-1.009v-10.857q0-0.589 0.42-1.009t1.009-0.42h14.286q0.589 0 1.009 0.42t0.42 1.009z"/>
    </symbol>

    <symbol id="info" viewBox="0 0 14 16">
      <path d="M9.143 12.286v-1.429q0-0.125-0.080-0.205t-0.205-0.080h-0.857v-4.571q0-0.125-0.080-0.205t-0.205-0.080h-2.857q-0.125 0-0.205 0.080t-0.080 0.205v1.429q0 0.125 0.080 0.205t0.205 0.080h0.857v2.857h-0.857q-0.125 0-0.205 0.080t-0.080 0.205v1.429q0 0.125 0.080 0.205t0.205 0.080h4q0.125 0 0.205-0.080t0.080-0.205zM8 4.286v-1.429q0-0.125-0.080-0.205t-0.205-0.080h-1.714q-0.125 0-0.205 0.080t-0.080 0.205v1.429q0 0.125 0.080 0.205t0.205 0.080h1.714q0.125 0 0.205-0.080t0.080-0.205zM13.714 8q0 1.866-0.92 3.442t-2.496 2.496-3.442 0.92-3.442-0.92-2.496-2.496-0.92-3.442 0.92-3.442 2.496-2.496 3.442-0.92 3.442 0.92 2.496 2.496 0.92 3.442z"/>
    </symbol>

    <symbol id="invoice" viewBox="0 0 14 16">
      <path d="M13.107 3.393c0.33 0.33 0.607 0.991 0.607 1.464v10.286c0 0.473-0.384 0.857-0.857 0.857h-12c-0.473 0-0.857-0.384-0.857-0.857v-14.286c0-0.473 0.384-0.857 0.857-0.857h8c0.473 0 1.134 0.277 1.464 0.607zM9.143 1.214v3.357h3.357c-0.054-0.152-0.134-0.304-0.196-0.366l-2.795-2.795c-0.063-0.063-0.214-0.143-0.366-0.196zM12.571 14.857v-9.143h-3.714c-0.473 0-0.857-0.384-0.857-0.857v-3.714h-6.857v13.714h11.429z0.161 0 0.286 0.125 0.286 0.286v0.571c0 0.161-0.125 0.286-0.286 0.286h-6.286c-0.161 0-0.286-0.125-0.286-0.286v-0.571c0-0.161 0.125-0.286 0.286-0.286h6.286z"/>
      <path d="m 7.387092,10.167903 c 0,0.929643 -0.6657077,1.66376 -1.6315977,1.823039 l 0,0.797932 c 0,0.08219 -0.063816,0.146007 -0.1460064,0.146007 l -0.6151681,0 c -0.077598,0 -0.1460066,-0.06382 -0.1460066,-0.146007 l 0,-0.797932 c -1.066461,-0.150601 -1.6499769,-0.788741 -1.6729499,-0.815799 -0.045436,-0.05463 -0.05003,-0.132222 -0.00919,-0.186847 l 0.4696716,-0.615168 c 0.022973,-0.03217 0.063814,-0.05003 0.1046551,-0.05463 0.040841,-0.0046 0.082192,0.0092 0.1092498,0.04084 0.00919,0.0046 0.6473301,0.615168 1.4539401,0.615168 0.446698,0 0.9296435,-0.236878 0.9296435,-0.751985 0,-0.4375089 -0.5380805,-0.6519243 -1.1532481,-0.8979912 C 4.2596924,9.000873 3.2386673,8.5904205 3.2386673,7.4463619 c 0,-0.8387722 0.6565191,-1.531538 1.6091359,-1.713791 l 0,-0.8203937 c 0,-0.082192 0.068409,-0.1460066 0.1460065,-0.1460066 l 0.6151676,0 c 0.08219,0 0.1460063,0.063814 0.1460063,0.1460066 l 0,0.8020152 c 0.9255601,0.1046551 1.4176939,0.6064891 1.4360722,0.6243569 0.045435,0.05003 0.054626,0.1184386 0.022973,0.1730634 L 6.8449281,7.1773213 c -0.022973,0.040843 -0.059217,0.068408 -0.1046551,0.072999 -0.045435,0.00919 -0.086787,-0.00461 -0.1230334,-0.032164 -0.00461,-0.00461 -0.5559487,-0.4921339 -1.2400356,-0.4921339 -0.5789209,0 -0.9801838,0.2874183 -0.9801838,0.701955 0,0.4829447 0.5559482,0.6973597 1.2032778,0.948022 0.8387722,0.3236646 1.7867941,0.692765 1.7867941,1.7913886 z"/>
    </symbol>

    <symbol id="legal" viewBox="0 0 16 16">
      <path d="M15.813 13.714q0 0.473-0.33 0.804l-0.955 0.964q-0.348 0.33-0.813 0.33-0.473 0-0.804-0.33l-3.241-3.25q-0.339-0.321-0.339-0.804 0-0.473 0.384-0.857l-2.286-2.286-1.125 1.125q-0.125 0.125-0.304 0.125t-0.304-0.125q0.018 0.018 0.112 0.107t0.112 0.116 0.089 0.103 0.089 0.121 0.054 0.121 0.049 0.147 0.013 0.161q0 0.339-0.25 0.607-0.027 0.027-0.147 0.161t-0.17 0.183-0.165 0.147-0.196 0.138-0.196 0.080-0.232 0.040q-0.357 0-0.607-0.25l-3.643-3.643q-0.25-0.25-0.25-0.607 0-0.116 0.040-0.232t0.080-0.196 0.138-0.196 0.147-0.165 0.183-0.17 0.161-0.147q0.268-0.25 0.607-0.25 0.089 0 0.161 0.013t0.147 0.049 0.121 0.054 0.121 0.089 0.103 0.089 0.116 0.112 0.107 0.112q-0.125-0.125-0.125-0.304t0.125-0.304l3.107-3.107q0.125-0.125 0.304-0.125t0.304 0.125q-0.018-0.018-0.112-0.107t-0.112-0.116-0.089-0.103-0.089-0.121-0.054-0.121-0.049-0.147-0.013-0.161q0-0.339 0.25-0.607 0.027-0.027 0.147-0.161t0.17-0.183 0.165-0.147 0.196-0.138 0.196-0.080 0.232-0.040q0.357 0 0.607 0.25l3.643 3.643q0.25 0.25 0.25 0.607 0 0.116-0.040 0.232t-0.080 0.196-0.138 0.196-0.147 0.165-0.183 0.17-0.161 0.147q-0.268 0.25-0.607 0.25-0.089 0-0.161-0.013t-0.147-0.049-0.121-0.054-0.121-0.089-0.103-0.089-0.116-0.112-0.107-0.112q0.125 0.125 0.125 0.304t-0.125 0.304l-1.125 1.125 2.286 2.286q0.384-0.384 0.857-0.384 0.464 0 0.813 0.33l3.241 3.241q0.33 0.348 0.33 0.813z"/>
    </symbol>

    <symbol id="location" viewBox="0 0 9 16">
      <path d="M6.857 5.714q0-0.946-0.67-1.616t-1.616-0.67-1.616 0.67-0.67 1.616 0.67 1.616 1.616 0.67 1.616-0.67 0.67-1.616zM9.143 5.714q0 0.973-0.295 1.598l-3.25 6.911q-0.143 0.295-0.424 0.464t-0.603 0.17-0.603-0.17-0.415-0.464l-3.259-6.911q-0.295-0.625-0.295-1.598 0-1.893 1.339-3.232t3.232-1.339 3.232 1.339 1.339 3.232z"/>
    </symbol>

    <symbol id="lock" viewBox="0 0 10 16">
      <path d="M2.857 6.857h4.571v-1.714q0-0.946-0.67-1.616t-1.616-0.67-1.616 0.67-0.67 1.616v1.714zM10.286 7.714v5.143q0 0.357-0.25 0.607t-0.607 0.25h-8.571q-0.357 0-0.607-0.25t-0.25-0.607v-5.143q0-0.357 0.25-0.607t0.607-0.25h0.286v-1.714q0-1.643 1.179-2.821t2.821-1.179 2.821 1.179 1.179 2.821v1.714h0.286q0.357 0 0.607 0.25t0.25 0.607z"/>
    </symbol>

    <symbol id="log-in" viewBox="0 0 14 16">
      <path d="M10.571 8q0 0.232-0.17 0.402l-4.857 4.857q-0.17 0.17-0.402 0.17t-0.402-0.17-0.17-0.402v-2.571h-4q-0.232 0-0.402-0.17t-0.17-0.402v-3.429q0-0.232 0.17-0.402t0.402-0.17h4v-2.571q0-0.232 0.17-0.402t0.402-0.17 0.402 0.17l4.857 4.857q0.17 0.17 0.17 0.402zM13.714 4.857v6.286q0 1.063-0.754 1.817t-1.817 0.754h-2.857q-0.116 0-0.201-0.085t-0.085-0.201q0-0.036-0.009-0.179t-0.004-0.237 0.027-0.21 0.089-0.174 0.183-0.058h2.857q0.589 0 1.009-0.42t0.42-1.009v-6.286q0-0.589-0.42-1.009t-1.009-0.42h-2.786t-0.103-0.009-0.103-0.027-0.071-0.049-0.063-0.080-0.018-0.121q0-0.036-0.009-0.179t-0.004-0.237 0.027-0.21 0.089-0.174 0.183-0.058h2.857q1.063 0 1.817 0.754t0.754 1.817z"/>
    </symbol>

    <symbol id="log-out" viewBox="0 0 14 16">
      <path d="M5.714 12.857q0 0.036 0.009 0.179t0.004 0.237-0.027 0.21-0.089 0.174-0.183 0.058h-2.857q-1.063 0-1.817-0.754t-0.754-1.817v-6.286q0-1.063 0.754-1.817t1.817-0.754h2.857q0.116 0 0.201 0.085t0.085 0.201q0 0.036 0.009 0.179t0.004 0.237-0.027 0.21-0.089 0.174-0.183 0.058h-2.857q-0.589 0-1.009 0.42t-0.42 1.009v6.286q0 0.589 0.42 1.009t1.009 0.42h2.786t0.103 0.009 0.103 0.027 0.071 0.049 0.063 0.080 0.018 0.121zM14 8q0 0.232-0.17 0.402l-4.857 4.857q-0.17 0.17-0.402 0.17t-0.402-0.17-0.17-0.402v-2.571h-4q-0.232 0-0.402-0.17t-0.17-0.402v-3.429q0-0.232 0.17-0.402t0.402-0.17h4v-2.571q0-0.232 0.17-0.402t0.402-0.17 0.402 0.17l4.857 4.857q0.17 0.17 0.17 0.402z"/>
    </symbol>

    <symbol id="moderate" viewBox="0 0 16 16">
      <path d="M15.813 13.714q0 0.473-0.33 0.804l-0.955 0.964q-0.348 0.33-0.813 0.33-0.473 0-0.804-0.33l-3.241-3.25q-0.339-0.321-0.339-0.804 0-0.473 0.384-0.857l-2.286-2.286-1.125 1.125q-0.125 0.125-0.304 0.125t-0.304-0.125q0.018 0.018 0.112 0.107t0.112 0.116 0.089 0.103 0.089 0.121 0.054 0.121 0.049 0.147 0.013 0.161q0 0.339-0.25 0.607-0.027 0.027-0.147 0.161t-0.17 0.183-0.165 0.147-0.196 0.138-0.196 0.080-0.232 0.040q-0.357 0-0.607-0.25l-3.643-3.643q-0.25-0.25-0.25-0.607 0-0.116 0.040-0.232t0.080-0.196 0.138-0.196 0.147-0.165 0.183-0.17 0.161-0.147q0.268-0.25 0.607-0.25 0.089 0 0.161 0.013t0.147 0.049 0.121 0.054 0.121 0.089 0.103 0.089 0.116 0.112 0.107 0.112q-0.125-0.125-0.125-0.304t0.125-0.304l3.107-3.107q0.125-0.125 0.304-0.125t0.304 0.125q-0.018-0.018-0.112-0.107t-0.112-0.116-0.089-0.103-0.089-0.121-0.054-0.121-0.049-0.147-0.013-0.161q0-0.339 0.25-0.607 0.027-0.027 0.147-0.161t0.17-0.183 0.165-0.147 0.196-0.138 0.196-0.080 0.232-0.040q0.357 0 0.607 0.25l3.643 3.643q0.25 0.25 0.25 0.607 0 0.116-0.040 0.232t-0.080 0.196-0.138 0.196-0.147 0.165-0.183 0.17-0.161 0.147q-0.268 0.25-0.607 0.25-0.089 0-0.161-0.013t-0.147-0.049-0.121-0.054-0.121-0.089-0.103-0.089-0.116-0.112-0.107-0.112q0.125 0.125 0.125 0.304t-0.125 0.304l-1.125 1.125 2.286 2.286q0.384-0.384 0.857-0.384 0.464 0 0.813 0.33l3.241 3.241q0.33 0.348 0.33 0.813z"/>
    </symbol>

    <symbol id="move" viewBox="0 0 16 16">
      <path d="M16 8q0 0.232-0.17 0.402l-2.286 2.286q-0.17 0.17-0.402 0.17t-0.402-0.17-0.17-0.402v-1.143h-3.429v3.429h1.143q0.232 0 0.402 0.17t0.17 0.402-0.17 0.402l-2.286 2.286q-0.17 0.17-0.402 0.17t-0.402-0.17l-2.286-2.286q-0.17-0.17-0.17-0.402t0.17-0.402 0.402-0.17h1.143v-3.429h-3.429v1.143q0 0.232-0.17 0.402t-0.402 0.17-0.402-0.17l-2.286-2.286q-0.17-0.17-0.17-0.402t0.17-0.402l2.286-2.286q0.17-0.17 0.402-0.17t0.402 0.17 0.17 0.402v1.143h3.429v-3.429h-1.143q-0.232 0-0.402-0.17t-0.17-0.402 0.17-0.402l2.286-2.286q0.17-0.17 0.402-0.17t0.402 0.17l2.286 2.286q0.17 0.17 0.17 0.402t-0.17 0.402-0.402 0.17h-1.143v3.429h3.429v-1.143q0-0.232 0.17-0.402t0.402-0.17 0.402 0.17l2.286 2.286q0.17 0.17 0.17 0.402z"/>
    </symbol>

    <symbol id="news" viewBox="0 0 18 16">
      <path d="M9.143 4.571h-3.429v3.429h3.429v-3.429zM10.286 10.286v1.143h-5.714v-1.143h5.714zM10.286 3.429v5.714h-5.714v-5.714h5.714zM16 10.286v1.143h-4.571v-1.143h4.571zM16 8v1.143h-4.571v-1.143h4.571zM16 5.714v1.143h-4.571v-1.143h4.571zM16 3.429v1.143h-4.571v-1.143h4.571zM2.286 12v-8.571h-1.143v8.571q0 0.232 0.17 0.402t0.402 0.17 0.402-0.17 0.17-0.402zM17.143 12v-9.714h-13.714v9.714q0 0.295-0.098 0.571h13.241q0.232 0 0.402-0.17t0.17-0.402zM18.286 1.143v10.857q0 0.714-0.5 1.214t-1.214 0.5h-14.857q-0.714 0-1.214-0.5t-0.5-1.214v-9.714h2.286v-1.143h16z"/>
    </symbol>

    <symbol id="password" viewBox="0 0 15 16">
      <path d="M7.429 4.571q0-0.714-0.5-1.214t-1.214-0.5-1.214 0.5-0.5 1.214q0 0.375 0.17 0.741-0.366-0.17-0.741-0.17-0.714 0-1.214 0.5t-0.5 1.214 0.5 1.214 1.214 0.5 1.214-0.5 0.5-1.214q0-0.375-0.17-0.741 0.366 0.17 0.741 0.17 0.714 0 1.214-0.5t0.5-1.214zM15.027 10.857q0 0.152-0.438 0.589t-0.589 0.438q-0.080 0-0.254-0.143t-0.326-0.295-0.344-0.357-0.219-0.232l-0.857 0.857 1.964 1.964q0.25 0.25 0.25 0.607 0 0.375-0.348 0.723t-0.723 0.348q-0.357 0-0.607-0.25l-5.991-5.991q-1.571 1.17-3.259 1.17-1.455 0-2.371-0.915t-0.915-2.371q0-1.429 0.848-2.795t2.214-2.214 2.795-0.848q1.455 0 2.371 0.915t0.915 2.371q0 1.688-1.17 3.259l3.17 3.17 0.857-0.857q-0.027-0.027-0.232-0.219t-0.357-0.344-0.295-0.326-0.143-0.254q0-0.152 0.438-0.589t0.589-0.438q0.116 0 0.205 0.089 0.054 0.054 0.411 0.397t0.732 0.71 0.772 0.768 0.652 0.696 0.254 0.366z"/>
    </symbol>

    <symbol id="payment" viewBox="0 0 17 16">
      <path d="M6.857 10.286h3.429v-0.857h-1.143v-4h-1.018l-1.321 1.223 0.688 0.714q0.375-0.33 0.491-0.509h0.018v2.571h-1.143v0.857zM11.429 8q0 0.625-0.188 1.268t-0.531 1.196-0.906 0.902-1.232 0.348-1.232-0.348-0.906-0.902-0.531-1.196-0.188-1.268 0.188-1.268 0.531-1.196 0.906-0.902 1.232-0.348 1.232 0.348 0.906 0.902 0.531 1.196 0.188 1.268zM16 10.286v-4.571q-0.946 0-1.616-0.67t-0.67-1.616h-10.286q0 0.946-0.67 1.616t-1.616 0.67v4.571q0.946 0 1.616 0.67t0.67 1.616h10.286q0-0.946 0.67-1.616t1.616-0.67zM17.143 2.857v10.286q0 0.232-0.17 0.402t-0.402 0.17h-16q-0.232 0-0.402-0.17t-0.17-0.402v-10.286q0-0.232 0.17-0.402t0.402-0.17h16q0.232 0 0.402 0.17t0.17 0.402z"/>
    </symbol>

    <symbol id="pending" viewBox="0 0 14 16">
      <path d="M8 4.857v4q0 0.125-0.080 0.205t-0.205 0.080h-2.857q-0.125 0-0.205-0.080t-0.080-0.205v-0.571q0-0.125 0.080-0.205t0.205-0.080h2v-3.143q0-0.125 0.080-0.205t0.205-0.080h0.571q0.125 0 0.205 0.080t0.080 0.205zM11.714 8q0-1.321-0.652-2.438t-1.768-1.768-2.438-0.652-2.438 0.652-1.768 1.768-0.652 2.438 0.652 2.438 1.768 1.768 2.438 0.652 2.438-0.652 1.768-1.768 0.652-2.438zM13.714 8q0 1.866-0.92 3.442t-2.496 2.496-3.442 0.92-3.442-0.92-2.496-2.496-0.92-3.442 0.92-3.442 2.496-2.496 3.442-0.92 3.442 0.92 2.496 2.496 0.92 3.442z"/>
    </symbol>

    <symbol id="permission" viewBox="0 0 15 16">
      <path d="M7.429 4.571q0-0.714-0.5-1.214t-1.214-0.5-1.214 0.5-0.5 1.214q0 0.375 0.17 0.741-0.366-0.17-0.741-0.17-0.714 0-1.214 0.5t-0.5 1.214 0.5 1.214 1.214 0.5 1.214-0.5 0.5-1.214q0-0.375-0.17-0.741 0.366 0.17 0.741 0.17 0.714 0 1.214-0.5t0.5-1.214zM15.027 10.857q0 0.152-0.438 0.589t-0.589 0.438q-0.080 0-0.254-0.143t-0.326-0.295-0.344-0.357-0.219-0.232l-0.857 0.857 1.964 1.964q0.25 0.25 0.25 0.607 0 0.375-0.348 0.723t-0.723 0.348q-0.357 0-0.607-0.25l-5.991-5.991q-1.571 1.17-3.259 1.17-1.455 0-2.371-0.915t-0.915-2.371q0-1.429 0.848-2.795t2.214-2.214 2.795-0.848q1.455 0 2.371 0.915t0.915 2.371q0 1.688-1.17 3.259l3.17 3.17 0.857-0.857q-0.027-0.027-0.232-0.219t-0.357-0.344-0.295-0.326-0.143-0.254q0-0.152 0.438-0.589t0.589-0.438q0.116 0 0.205 0.089 0.054 0.054 0.411 0.397t0.732 0.71 0.772 0.768 0.652 0.696 0.254 0.366z"/>
    </symbol>

    <symbol id="phone" viewBox="0 0 13 16">
      <path d="M12.571 11.071q0 0.241-0.089 0.629t-0.188 0.612q-0.188 0.446-1.089 0.946-0.839 0.455-1.661 0.455-0.241 0-0.469-0.031t-0.513-0.112-0.424-0.129-0.496-0.183-0.438-0.161q-0.875-0.313-1.563-0.741-1.143-0.705-2.362-1.924t-1.924-2.362q-0.429-0.688-0.741-1.563-0.027-0.080-0.161-0.438t-0.183-0.496-0.129-0.424-0.112-0.513-0.031-0.469q0-0.821 0.455-1.661 0.5-0.902 0.946-1.089 0.223-0.098 0.612-0.188t0.629-0.089q0.125 0 0.188 0.027 0.161 0.054 0.473 0.679 0.098 0.17 0.268 0.482t0.313 0.567 0.277 0.478q0.027 0.036 0.156 0.223t0.192 0.317 0.063 0.254q0 0.179-0.254 0.446t-0.554 0.491-0.554 0.473-0.254 0.411q0 0.080 0.045 0.201t0.076 0.183 0.125 0.214 0.103 0.17q0.679 1.223 1.554 2.098t2.098 1.554q0.018 0.009 0.17 0.103t0.214 0.125 0.183 0.076 0.201 0.045q0.161 0 0.411-0.254t0.473-0.554 0.491-0.554 0.446-0.254q0.125 0 0.254 0.063t0.317 0.192 0.223 0.156q0.223 0.134 0.478 0.277t0.567 0.313 0.482 0.268q0.625 0.313 0.679 0.473 0.027 0.063 0.027 0.188z"/>
    </symbol>

    <symbol id="pin" viewBox="0 0 10 16">
      <path d="M4.286 7.714v-4q0-0.125-0.080-0.205t-0.205-0.080-0.205 0.080-0.080 0.205v4q0 0.125 0.080 0.205t0.205 0.080 0.205-0.080 0.080-0.205zM10.286 10.857q0 0.232-0.17 0.402t-0.402 0.17h-3.83l-0.455 4.313q-0.018 0.107-0.094 0.183t-0.183 0.076h-0.009q-0.241 0-0.286-0.241l-0.679-4.33h-3.607q-0.232 0-0.402-0.17t-0.17-0.402q0-1.098 0.701-1.978t1.585-0.879v-4.571q-0.464 0-0.804-0.339t-0.339-0.804 0.339-0.804 0.804-0.339h5.714q0.464 0 0.804 0.339t0.339 0.804-0.339 0.804-0.804 0.339v4.571q0.884 0 1.585 0.879t0.701 1.978z"/>
    </symbol>

    <symbol id="published" viewBox="0 0 16 16">
      <path d="M14.857 8.571q-1.357-2.107-3.402-3.152 0.545 0.929 0.545 2.009 0 1.652-1.174 2.826t-2.826 1.174-2.826-1.174-1.174-2.826q0-1.080 0.545-2.009-2.045 1.045-3.402 3.152 1.188 1.83 2.978 2.915t3.879 1.085 3.879-1.085 2.978-2.915zM8.429 5.143q0-0.179-0.125-0.304t-0.304-0.125q-1.116 0-1.915 0.799t-0.799 1.915q0 0.179 0.125 0.304t0.304 0.125 0.304-0.125 0.125-0.304q0-0.768 0.545-1.313t1.313-0.545q0.179 0 0.304-0.125t0.125-0.304zM16 8.571q0 0.304-0.179 0.616-1.25 2.054-3.362 3.29t-4.46 1.237-4.46-1.241-3.362-3.286q-0.179-0.313-0.179-0.616t0.179-0.616q1.25-2.045 3.362-3.286t4.46-1.241 4.46 1.241 3.362 3.286q0.179 0.313 0.179 0.616z"/>
    </symbol>

    <symbol id="quote" viewBox="0 0 15 16">
      <path d="M6.857 8.571v3.429q0 0.714-0.5 1.214t-1.214 0.5h-3.429q-0.714 0-1.214-0.5t-0.5-1.214v-6.286q0-0.929 0.362-1.772t0.978-1.46 1.46-0.978 1.772-0.362h0.571q0.232 0 0.402 0.17t0.17 0.402v1.143q0 0.232-0.17 0.402t-0.402 0.17h-0.571q-0.946 0-1.616 0.67t-0.67 1.616v0.286q0 0.357 0.25 0.607t0.607 0.25h2q0.714 0 1.214 0.5t0.5 1.214zM14.857 8.571v3.429q0 0.714-0.5 1.214t-1.214 0.5h-3.429q-0.714 0-1.214-0.5t-0.5-1.214v-6.286q0-0.929 0.362-1.772t0.978-1.46 1.46-0.978 1.772-0.362h0.571q0.232 0 0.402 0.17t0.17 0.402v1.143q0 0.232-0.17 0.402t-0.402 0.17h-0.571q-0.946 0-1.616 0.67t-0.67 1.616v0.286q0 0.357 0.25 0.607t0.607 0.25h2q0.714 0 1.214 0.5t0.5 1.214z"/>
    </symbol>

    <symbol id="remove" viewBox="0 0 13 16">
      <path d="M11.589 11.804q0 0.357-0.25 0.607l-1.214 1.214q-0.25 0.25-0.607 0.25t-0.607-0.25l-2.625-2.625-2.625 2.625q-0.25 0.25-0.607 0.25t-0.607-0.25l-1.214-1.214q-0.25-0.25-0.25-0.607t0.25-0.607l2.625-2.625-2.625-2.625q-0.25-0.25-0.25-0.607t0.25-0.607l1.214-1.214q0.25-0.25 0.607-0.25t0.607 0.25l2.625 2.625 2.625-2.625q0.25-0.25 0.607-0.25t0.607 0.25l1.214 1.214q0.25 0.25 0.25 0.607t-0.25 0.607l-2.625 2.625 2.625 2.625q0.25 0.25 0.25 0.607z"/>
    </symbol>

    <symbol id="reply" viewBox="0 0 16 16">
      <path d="M16 10q0 1.482-1.134 4.027-0.027 0.063-0.094 0.214t-0.121 0.268-0.116 0.196q-0.107 0.152-0.25 0.152-0.134 0-0.21-0.089t-0.076-0.223q0-0.080 0.022-0.237t0.022-0.21q0.045-0.607 0.045-1.098 0-0.902-0.156-1.616t-0.433-1.237-0.714-0.902-0.942-0.621-1.188-0.379-1.375-0.192-1.567-0.054h-2v2.286q0 0.232-0.17 0.402t-0.402 0.17-0.402-0.17l-4.571-4.571q-0.17-0.17-0.17-0.402t0.17-0.402l4.571-4.571q0.17-0.17 0.402-0.17t0.402 0.17 0.17 0.402v2.286h2q6.366 0 7.813 3.598 0.473 1.196 0.473 2.973z"/>
    </symbol>

    <symbol id="role" viewBox="0 0 16 16">
      <path d="M5.714 3.429h4.571v-1.143h-4.571v1.143zM2.571 3.429v11.429h-0.571q-0.821 0-1.411-0.589t-0.589-1.411v-7.429q0-0.821 0.589-1.411t1.411-0.589h0.571zM12.571 3.429v11.429h-9.143v-11.429h1.143v-1.429q0-0.357 0.25-0.607t0.607-0.25h5.143q0.357 0 0.607 0.25t0.25 0.607v1.429h1.143zM16 5.429v7.429q0 0.821-0.589 1.411t-1.411 0.589h-0.571v-11.429h0.571q0.821 0 1.411 0.589t0.589 1.411z"/>
    </symbol>

    <symbol id="search" viewBox="0 0 15 16">
      <path d="M10.286 7.429q0-1.652-1.174-2.826t-2.826-1.174-2.826 1.174-1.174 2.826 1.174 2.826 2.826 1.174 2.826-1.174 1.174-2.826zM14.857 14.857q0 0.464-0.339 0.804t-0.804 0.339q-0.482 0-0.804-0.339l-3.063-3.054q-1.598 1.107-3.563 1.107-1.277 0-2.442-0.496t-2.009-1.339-1.339-2.009-0.496-2.442 0.496-2.442 1.339-2.009 2.009-1.339 2.442-0.496 2.442 0.496 2.009 1.339 1.339 2.009 0.496 2.442q0 1.964-1.107 3.563l3.063 3.063q0.33 0.33 0.33 0.804z"/>
    </symbol>

    <symbol id="seating-area" viewBox="0 0 19 16">
      <path d="M1.714 10.571q-0.589 0-1.009 0.42t-0.42 1.009 0.42 1.009 1.009 0.42 1.009-0.42 0.42-1.009-0.42-1.009-1.009-0.42zM6.286 10.571q-0.589 0-1.009 0.42t-0.42 1.009 0.42 1.009 1.009 0.42 1.009-0.42 0.42-1.009-0.42-1.009-1.009-0.42zM6.286 6q-0.589 0-1.009 0.42t-0.42 1.009 0.42 1.009 1.009 0.42 1.009-0.42 0.42-1.009-0.42-1.009-1.009-0.42zM13.143 10.571q-0.589 0-1.009 0.42t-0.42 1.009 0.42 1.009 1.009 0.42 1.009-0.42 0.42-1.009-0.42-1.009-1.009-0.42zM17.714 10.571q-0.589 0-1.009 0.42t-0.42 1.009 0.42 1.009 1.009 0.42 1.009-0.42 0.42-1.009-0.42-1.009-1.009-0.42zM13.143 6q-0.589 0-1.009 0.42t-0.42 1.009 0.42 1.009 1.009 0.42 1.009-0.42 0.42-1.009-0.42-1.009-1.009-0.42zM17.714 6q-0.589 0-1.009 0.42t-0.42 1.009 0.42 1.009 1.009 0.42 1.009-0.42 0.42-1.009-0.42-1.009-1.009-0.42zM17.714 1.429q-0.589 0-1.009 0.42t-0.42 1.009 0.42 1.009 1.009 0.42 1.009-0.42 0.42-1.009-0.42-1.009-1.009-0.42zM3.429 12q0 0.714-0.5 1.214t-1.214 0.5-1.214-0.5-0.5-1.214 0.5-1.214 1.214-0.5 1.214 0.5 0.5 1.214zM8 12q0 0.714-0.5 1.214t-1.214 0.5-1.214-0.5-0.5-1.214 0.5-1.214 1.214-0.5 1.214 0.5 0.5 1.214zM3.429 7.429q0 0.714-0.5 1.214t-1.214 0.5-1.214-0.5-0.5-1.214 0.5-1.214 1.214-0.5 1.214 0.5 0.5 1.214zM8 7.429q0 0.714-0.5 1.214t-1.214 0.5-1.214-0.5-0.5-1.214 0.5-1.214 1.214-0.5 1.214 0.5 0.5 1.214zM3.429 2.857q0 0.714-0.5 1.214t-1.214 0.5-1.214-0.5-0.5-1.214 0.5-1.214 1.214-0.5 1.214 0.5 0.5 1.214zM14.857 12q0 0.714-0.5 1.214t-1.214 0.5-1.214-0.5-0.5-1.214 0.5-1.214 1.214-0.5 1.214 0.5 0.5 1.214zM8 2.857q0 0.714-0.5 1.214t-1.214 0.5-1.214-0.5-0.5-1.214 0.5-1.214 1.214-0.5 1.214 0.5 0.5 1.214zM19.429 12q0 0.714-0.5 1.214t-1.214 0.5-1.214-0.5-0.5-1.214 0.5-1.214 1.214-0.5 1.214 0.5 0.5 1.214zM14.857 7.429q0 0.714-0.5 1.214t-1.214 0.5-1.214-0.5-0.5-1.214 0.5-1.214 1.214-0.5 1.214 0.5 0.5 1.214zM19.429 7.429q0 0.714-0.5 1.214t-1.214 0.5-1.214-0.5-0.5-1.214 0.5-1.214 1.214-0.5 1.214 0.5 0.5 1.214zM14.857 2.857q0 0.714-0.5 1.214t-1.214 0.5-1.214-0.5-0.5-1.214 0.5-1.214 1.214-0.5 1.214 0.5 0.5 1.214zM19.429 2.857q0 0.714-0.5 1.214t-1.214 0.5-1.214-0.5-0.5-1.214 0.5-1.214 1.214-0.5 1.214 0.5 0.5 1.214z"/>
    </symbol>

    <symbol id="shipping" viewBox="0 0 17 16">
      <path d="M5.714 12.571c0-0.625-0.518-1.143-1.143-1.143s-1.143 0.518-1.143 1.143 0.518 1.143 1.143 1.143 1.143-0.518 1.143-1.143zM2.286 8h3.429v-2.286h-1.411c-0.036 0-0.17 0.054-0.196 0.080l-1.741 1.741c-0.027 0.027-0.080 0.161-0.080 0.196v0.268zM13.714 12.571c0-0.625-0.518-1.143-1.143-1.143s-1.143 0.518-1.143 1.143 0.518 1.143 1.143 1.143 1.143-0.518 1.143-1.143zM16 2.857v9.143c0 0.661-0.696 0.571-1.143 0.571 0 1.259-1.027 2.286-2.286 2.286s-2.286-1.027-2.286-2.286h-3.429c0 1.259-1.027 2.286-2.286 2.286s-2.286-1.027-2.286-2.286h-0.571c-0.446 0-1.143 0.089-1.143-0.571 0-0.313 0.259-0.571 0.571-0.571v-2.857c0-0.634-0.089-1.339 0.402-1.83l1.768-1.768c0.223-0.223 0.652-0.402 0.973-0.402h1.429v-1.714c0-0.313 0.259-0.571 0.571-0.571h9.143c0.313 0 0.571 0.259 0.571 0.571z"/>
    </symbol>

    <symbol id="shopping-cart" viewBox="0 0 15 16">
      <path d="M5.714 13.714q0 0.464-0.339 0.804t-0.804 0.339-0.804-0.339-0.339-0.804 0.339-0.804 0.804-0.339 0.804 0.339 0.339 0.804zM13.714 13.714q0 0.464-0.339 0.804t-0.804 0.339-0.804-0.339-0.339-0.804 0.339-0.804 0.804-0.339 0.804 0.339 0.339 0.804zM14.857 4v4.571q0 0.214-0.147 0.379t-0.362 0.192l-9.321 1.089q0.116 0.536 0.116 0.625 0 0.143-0.214 0.571h8.214q0.232 0 0.402 0.17t0.17 0.402-0.17 0.402-0.402 0.17h-9.143q-0.232 0-0.402-0.17t-0.17-0.402q0-0.098 0.071-0.281t0.143-0.321 0.192-0.357 0.138-0.263l-1.58-7.348h-1.821q-0.232 0-0.402-0.17t-0.17-0.402 0.17-0.402 0.402-0.17h2.286q0.143 0 0.254 0.058t0.174 0.138 0.116 0.219 0.071 0.232 0.049 0.263 0.040 0.232h10.723q0.232 0 0.402 0.17t0.17 0.402z"/>
    </symbol>

    <symbol id="snippet" viewBox="0 0 16 16">
      <path d="M8.571 8q0.232 0 0.402 0.17t0.17 0.402-0.17 0.402-0.402 0.17-0.402-0.17-0.17-0.402 0.17-0.402 0.402-0.17zM11.25 8.571l4.527 3.554q0.25 0.179 0.223 0.5-0.045 0.313-0.313 0.455l-1.143 0.571q-0.116 0.063-0.259 0.063-0.152 0-0.277-0.071l-6.161-3.455-0.982 0.589q-0.071 0.036-0.107 0.045 0.125 0.438 0.089 0.866-0.063 0.688-0.5 1.317t-1.179 1.103q-1.179 0.75-2.473 0.75-1.214 0-1.982-0.696-0.804-0.75-0.705-1.848 0.063-0.679 0.5-1.313t1.17-1.107q1.179-0.75 2.482-0.75 0.741 0 1.348 0.277 0.080-0.116 0.196-0.196l1.089-0.652-1.089-0.652q-0.116-0.080-0.196-0.196-0.607 0.277-1.348 0.277-1.304 0-2.482-0.75-0.732-0.473-1.17-1.107t-0.5-1.313q-0.045-0.527 0.138-1.009t0.567-0.83q0.759-0.705 1.982-0.705 1.295 0 2.473 0.75 0.741 0.464 1.179 1.098t0.5 1.321q0.036 0.429-0.089 0.866 0.036 0.009 0.107 0.045l0.982 0.589 6.161-3.455q0.125-0.071 0.277-0.071 0.143 0 0.259 0.063l1.143 0.571q0.268 0.143 0.313 0.455 0.027 0.321-0.223 0.5zM5.17 6.25q0.411-0.375 0.188-0.964t-0.946-1.045q-0.821-0.527-1.714-0.527-0.661 0-1.009 0.321-0.411 0.375-0.188 0.964t0.946 1.045q0.821 0.527 1.714 0.527 0.661 0 1.009-0.321zM4.411 12.902q0.723-0.455 0.946-1.045t-0.188-0.964q-0.348-0.321-1.009-0.321-0.893 0-1.714 0.527-0.723 0.455-0.946 1.045t0.188 0.964q0.348 0.321 1.009 0.321 0.893 0 1.714-0.527zM6 7.429l0.857 0.518v-0.098q0-0.321 0.295-0.5l0.125-0.071-0.705-0.42-0.232 0.232q-0.027 0.027-0.089 0.098t-0.107 0.107q-0.018 0.018-0.036 0.031t-0.027 0.022zM8 9.429l0.857 0.286 6.571-5.143-1.143-0.571-6.857 3.848v1.009l-1.429 0.857 0.080 0.071q0.018 0.018 0.063 0.054 0.036 0.036 0.098 0.107t0.098 0.107l0.232 0.232zM14.286 13.143l1.143-0.571-4.643-3.643-1.58 1.232q-0.018 0.027-0.116 0.063z"/>
    </symbol>

    <symbol id="snippet-document" viewBox="0 0 14 16">
      <path d="M13.107 3.393c0.33 0.33 0.607 0.991 0.607 1.464v10.286c0 0.473-0.384 0.857-0.857 0.857h-12c-0.473 0-0.857-0.384-0.857-0.857v-14.286c0-0.473 0.384-0.857 0.857-0.857h8c0.473 0 1.134 0.277 1.464 0.607zM9.143 1.214v3.357h3.357c-0.054-0.152-0.134-0.304-0.196-0.366l-2.795-2.795c-0.063-0.063-0.214-0.143-0.366-0.196zM12.571 14.857v-9.143h-3.714c-0.473 0-0.857-0.384-0.857-0.857v-3.714h-6.857v13.714h11.429zM3.429 7.143c0-0.161 0.125-0.286 0.286-0.286h6.286c0.161 0 0.286 0.125 0.286 0.286v0.571c0 0.161-0.125 0.286-0.286 0.286h-6.286c-0.161 0-0.286-0.125-0.286-0.286v-0.571zM10 9.143c0.161 0 0.286 0.125 0.286 0.286v0.571c0 0.161-0.125 0.286-0.286 0.286h-6.286c-0.161 0-0.286-0.125-0.286-0.286v-0.571c0-0.161 0.125-0.286 0.286-0.286h6.286zM10 11.429c0.161 0 0.286 0.125 0.286 0.286v0.571c0 0.161-0.125 0.286-0.286 0.286h-6.286c-0.161 0-0.286-0.125-0.286-0.286v-0.571c0-0.161 0.125-0.286 0.286-0.286h6.286z"/>
    </symbol>

    <symbol id="snippet-fragment" viewBox="0 0 15 16">
      <path d="M14.857 9.804c0 0.92-0.527 1.688-1.5 1.688-1.089 0-1.375-0.991-2.357-0.991-0.714 0-0.982 0.446-0.982 1.107 0 0.696 0.286 1.366 0.277 2.054v0.045c-0.098 0-0.196 0-0.295 0.009-0.92 0.089-1.848 0.268-2.777 0.268-0.634 0-1.295-0.25-1.295-0.982 0-0.982 0.991-1.268 0.991-2.357 0-0.973-0.768-1.5-1.688-1.5-0.938 0-1.804 0.518-1.804 1.545 0 1.134 0.866 1.625 0.866 2.241 0 0.313-0.196 0.589-0.411 0.795-0.277 0.259-0.67 0.313-1.045 0.313-0.732 0-1.464-0.098-2.188-0.214-0.161-0.027-0.33-0.045-0.491-0.071l-0.116-0.018c-0.018-0.009-0.045-0.009-0.045-0.018v-9.143c0.036 0.027 0.563 0.089 0.652 0.107 0.723 0.116 1.455 0.214 2.188 0.214 0.375 0 0.768-0.054 1.045-0.313 0.214-0.205 0.411-0.482 0.411-0.795 0-0.616-0.866-1.107-0.866-2.241 0-1.027 0.866-1.545 1.813-1.545 0.911 0 1.679 0.527 1.679 1.5 0 1.089-0.991 1.375-0.991 2.357 0 0.732 0.661 0.982 1.295 0.982 1.027 0 2.045-0.232 3.063-0.286v0.018c-0.027 0.036-0.089 0.563-0.107 0.652-0.116 0.723-0.214 1.455-0.214 2.188 0 0.375 0.054 0.768 0.313 1.045 0.205 0.214 0.482 0.411 0.795 0.411 0.616 0 1.107-0.866 2.241-0.866 1.027 0 1.545 0.866 1.545 1.804z"/>
    </symbol>

    <symbol id="sorted" viewBox="0 0 9 16">
      <path d="M9.143 9.714q0 0.232-0.17 0.402l-4 4q-0.17 0.17-0.402 0.17t-0.402-0.17l-4-4q-0.17-0.17-0.17-0.402t0.17-0.402 0.402-0.17h8q0.232 0 0.402 0.17t0.17 0.402zM9.143 6.286q0 0.232-0.17 0.402t-0.402 0.17h-8q-0.232 0-0.402-0.17t-0.17-0.402 0.17-0.402l4-4q0.17-0.17 0.402-0.17t0.402 0.17l4 4q0.17 0.17 0.17 0.402z"/>
    </symbol>

    <symbol id="spinner" viewBox="0 0 16 16">
      <path d="M4.696 12.446c0 0.625-0.509 1.143-1.143 1.143-0.625 0-1.143-0.518-1.143-1.143 0-0.634 0.518-1.143 1.143-1.143 0.634 0 1.143 0.509 1.143 1.143zM9.143 14.286c0 0.634-0.509 1.143-1.143 1.143s-1.143-0.509-1.143-1.143 0.509-1.143 1.143-1.143 1.143 0.509 1.143 1.143zM2.857 8c0 0.634-0.509 1.143-1.143 1.143s-1.143-0.509-1.143-1.143 0.509-1.143 1.143-1.143 1.143 0.509 1.143 1.143zM13.589 12.446c0 0.625-0.518 1.143-1.143 1.143-0.634 0-1.143-0.518-1.143-1.143 0-0.634 0.509-1.143 1.143-1.143 0.625 0 1.143 0.509 1.143 1.143zM4.982 3.554c0 0.786-0.643 1.429-1.429 1.429s-1.429-0.643-1.429-1.429 0.643-1.429 1.429-1.429 1.429 0.643 1.429 1.429zM15.429 8c0 0.634-0.509 1.143-1.143 1.143s-1.143-0.509-1.143-1.143 0.509-1.143 1.143-1.143 1.143 0.509 1.143 1.143zM9.714 1.714c0 0.946-0.768 1.714-1.714 1.714s-1.714-0.768-1.714-1.714 0.768-1.714 1.714-1.714 1.714 0.768 1.714 1.714zM14.446 3.554c0 1.107-0.902 2-2 2-1.107 0-2-0.893-2-2 0-1.098 0.893-2 2-2 1.098 0 2 0.902 2 2z"/>
    </symbol>

    <symbol id="success" viewBox="0 0 16 16">
      <path d="M14.92 5.054q0 0.357-0.25 0.607l-7.679 7.679q-0.25 0.25-0.607 0.25t-0.607-0.25l-4.446-4.446q-0.25-0.25-0.25-0.607t0.25-0.607l1.214-1.214q0.25-0.25 0.607-0.25t0.607 0.25l2.625 2.634 5.857-5.866q0.25-0.25 0.607-0.25t0.607 0.25l1.214 1.214q0.25 0.25 0.25 0.607z"/>
    </symbol>

    <symbol id="text" viewBox="0 0 14 16">
      <path d="M13.107 3.393q0.25 0.25 0.429 0.679t0.179 0.786v10.286q0 0.357-0.25 0.607t-0.607 0.25h-12q-0.357 0-0.607-0.25t-0.25-0.607v-14.286q0-0.357 0.25-0.607t0.607-0.25h8q0.357 0 0.786 0.179t0.679 0.429zM9.143 1.214v3.357h3.357q-0.089-0.259-0.196-0.366l-2.795-2.795q-0.107-0.107-0.366-0.196zM12.571 14.857v-9.143h-3.714q-0.357 0-0.607-0.25t-0.25-0.607v-3.714h-6.857v13.714h11.429zM3.429 7.143q0-0.125 0.080-0.205t0.205-0.080h6.286q0.125 0 0.205 0.080t0.080 0.205v0.571q0 0.125-0.080 0.205t-0.205 0.080h-6.286q-0.125 0-0.205-0.080t-0.080-0.205v-0.571zM10 9.143q0.125 0 0.205 0.080t0.080 0.205v0.571q0 0.125-0.080 0.205t-0.205 0.080h-6.286q-0.125 0-0.205-0.080t-0.080-0.205v-0.571q0-0.125 0.080-0.205t0.205-0.080h6.286zM10 11.429q0.125 0 0.205 0.080t0.080 0.205v0.571q0 0.125-0.080 0.205t-0.205 0.080h-6.286q-0.125 0-0.205-0.080t-0.080-0.205v-0.571q0-0.125 0.080-0.205t0.205-0.080h6.286z"/>
    </symbol>

    <symbol id="ticket" viewBox="0 0 16 16">
      <path d="M9.143 4.036l2.821 2.821-5.107 5.107-2.821-2.821zM7.259 12.777l5.518-5.518q0.17-0.17 0.17-0.402t-0.17-0.402l-3.232-3.232q-0.161-0.161-0.402-0.161t-0.402 0.161l-5.518 5.518q-0.17 0.17-0.17 0.402t0.17 0.402l3.232 3.232q0.161 0.161 0.402 0.161t0.402-0.161zM15.196 7.089l-8.098 8.107q-0.33 0.33-0.808 0.33t-0.808-0.33l-1.125-1.125q0.5-0.5 0.5-1.214t-0.5-1.214-1.214-0.5-1.214 0.5l-1.116-1.125q-0.33-0.33-0.33-0.808t0.33-0.808l8.098-8.089q0.33-0.33 0.808-0.33t0.808 0.33l1.116 1.116q-0.5 0.5-0.5 1.214t0.5 1.214 1.214 0.5 1.214-0.5l1.125 1.116q0.33 0.33 0.33 0.808t-0.33 0.808z"/>
    </symbol>

    <symbol id="ticketing-checkin" viewBox="0 0 17 16">
      <path d="M7.429 8.929v-1.714c-1.089 0.098-2.402 0.536-3.429 1.045v1.652c1.036-0.482 2.321-0.893 3.429-0.982zM7.429 5.196v-1.759c-1.125 0.054-2.446 0.58-3.429 1.125v1.688c1.054-0.545 2.321-1.009 3.429-1.054zM14.857 9.33v-1.643c-0.813 0.402-2.232 1-3.429 0.634v-2c-0.116-0.036-0.232-0.080-0.348-0.134-1.027-0.518-1.866-1-3.214-1-0.143 0-0.286 0.009-0.438 0.027v1.982h0.17c1.348 0 2.455 0.482 3.482 0.991 0.116 0.054 0.232 0.098 0.348 0.134v1.679c0.241 0.098 0.509 0.152 0.813 0.152 0.991 0 2.063-0.527 2.616-0.821zM14.857 5.518v-1.688c-0.714 0.384-1.714 0.813-2.732 0.813v0c-0.241 0-0.473-0.018-0.696-0.071v1.75c1.196 0.339 2.616-0.348 3.429-0.804zM2.857 2.286c0 0.42-0.232 0.786-0.571 0.982v11.304c0 0.161-0.125 0.286-0.286 0.286h-0.571c-0.161 0-0.286-0.125-0.286-0.286v-11.304c-0.339-0.196-0.571-0.563-0.571-0.982 0-0.634 0.509-1.143 1.143-1.143s1.143 0.509 1.143 1.143zM16 2.857v6.813c0 0.214-0.125 0.411-0.313 0.509-0.036 0.018-0.089 0.045-0.152 0.080-0.571 0.304-1.92 1.036-3.295 1.036-0.527 0-1-0.107-1.411-0.313l-0.25-0.125c-0.902-0.455-1.616-0.813-2.714-0.813-1.286 0-3.098 0.67-4.143 1.304-0.089 0.054-0.196 0.080-0.295 0.080s-0.196-0.027-0.286-0.071c-0.179-0.107-0.286-0.295-0.286-0.5v-6.625c0-0.196 0.107-0.384 0.277-0.491 0.571-0.339 2.589-1.455 4.464-1.455 1.491 0 2.705 0.545 3.732 1.045 0.232 0.116 0.5 0.17 0.795 0.17 1.054 0 2.214-0.67 2.768-1 0.116-0.063 0.214-0.116 0.277-0.152 0.179-0.089 0.384-0.080 0.554 0.018 0.17 0.107 0.277 0.295 0.277 0.491z"/>
    </symbol>

    <symbol id="time" viewBox="0 0 16 16">
      <path d="M8 4.857v4q0 0.125-0.080 0.205t-0.205 0.080h-2.857q-0.125 0-0.205-0.080t-0.080-0.205v-0.571q0-0.125 0.080-0.205t0.205-0.080h2v-3.143q0-0.125 0.080-0.205t0.205-0.080h0.571q0.125 0 0.205 0.080t0.080 0.205zM11.714 8q0-1.321-0.652-2.438t-1.768-1.768-2.438-0.652-2.438 0.652-1.768 1.768-0.652 2.438 0.652 2.438 1.768 1.768 2.438 0.652 2.438-0.652 1.768-1.768 0.652-2.438zM13.714 8q0 1.866-0.92 3.442t-2.496 2.496-3.442 0.92-3.442-0.92-2.496-2.496-0.92-3.442 0.92-3.442 2.496-2.496 3.442-0.92 3.442 0.92 2.496 2.496 0.92 3.442z"/>
    </symbol>

    <symbol id="trophy" viewBox="0 0 15 16">
      <path d="M4.089 7.884q-0.661-1.446-0.661-3.313h-2.286v0.857q0 0.696 0.844 1.446t2.103 1.009zM13.714 5.429v-0.857h-2.286q0 1.866-0.661 3.313 1.259-0.259 2.103-1.009t0.844-1.446zM14.857 4.286v1.143q0 0.634-0.371 1.277t-1 1.161-1.545 0.871-1.924 0.397q-0.375 0.482-0.848 0.848-0.339 0.304-0.469 0.647t-0.129 0.799q0 0.482 0.272 0.813t0.871 0.33q0.67 0 1.192 0.406t0.522 1.022v0.571q0 0.125-0.080 0.205t-0.205 0.080h-7.429q-0.125 0-0.205-0.080t-0.080-0.205v-0.571q0-0.616 0.522-1.022t1.192-0.406q0.598 0 0.871-0.33t0.272-0.813q0-0.455-0.129-0.799t-0.469-0.647q-0.473-0.366-0.848-0.848-1.009-0.045-1.924-0.397t-1.545-0.871-1-1.161-0.371-1.277v-1.143q0-0.357 0.25-0.607t0.607-0.25h2.571v-0.857q0-0.589 0.42-1.009t1.009-0.42h5.143q0.589 0 1.009 0.42t0.42 1.009v0.857h2.571q0.357 0 0.607 0.25t0.25 0.607z"/>
    </symbol>

    <symbol id="unlock" viewBox="0 0 15 16">
      <path d="M14.857 5.143v2.286q0 0.232-0.17 0.402t-0.402 0.17h-0.571q-0.232 0-0.402-0.17t-0.17-0.402v-2.286q0-0.946-0.67-1.616t-1.616-0.67-1.616 0.67-0.67 1.616v1.714h0.857q0.357 0 0.607 0.25t0.25 0.607v5.143q0 0.357-0.25 0.607t-0.607 0.25h-8.571q-0.357 0-0.607-0.25t-0.25-0.607v-5.143q0-0.357 0.25-0.607t0.607-0.25h6v-1.714q0-1.652 1.174-2.826t2.826-1.174 2.826 1.174 1.174 2.826z"/>
    </symbol>

    <symbol id="update" viewBox="0 0 14 16">
      <path d="M13.491 9.429q0 0.045-0.009 0.063-0.571 2.393-2.393 3.879t-4.268 1.487q-1.304 0-2.522-0.491t-2.174-1.402l-1.152 1.152q-0.17 0.17-0.402 0.17t-0.402-0.17-0.17-0.402v-4q0-0.232 0.17-0.402t0.402-0.17h4q0.232 0 0.402 0.17t0.17 0.402-0.17 0.402l-1.223 1.223q0.634 0.589 1.438 0.911t1.67 0.321q1.196 0 2.232-0.58t1.661-1.598q0.098-0.152 0.473-1.045 0.071-0.205 0.268-0.205h1.714q0.116 0 0.201 0.085t0.085 0.201zM13.714 2.286v4q0 0.232-0.17 0.402t-0.402 0.17h-4q-0.232 0-0.402-0.17t-0.17-0.402 0.17-0.402l1.232-1.232q-1.321-1.223-3.116-1.223-1.196 0-2.232 0.58t-1.661 1.598q-0.098 0.152-0.473 1.045-0.071 0.205-0.268 0.205h-1.777q-0.116 0-0.201-0.085t-0.085-0.201v-0.063q0.58-2.393 2.411-3.879t4.286-1.487q1.304 0 2.536 0.496t2.188 1.397l1.161-1.152q0.17-0.17 0.402-0.17t0.402 0.17 0.17 0.402z"/>
    </symbol>

    <symbol id="upload" viewBox="0 0 15 16">
      <path d="M11.429 13.143q0-0.232-0.17-0.402t-0.402-0.17-0.402 0.17-0.17 0.402 0.17 0.402 0.402 0.17 0.402-0.17 0.17-0.402zM13.714 13.143q0-0.232-0.17-0.402t-0.402-0.17-0.402 0.17-0.17 0.402 0.17 0.402 0.402 0.17 0.402-0.17 0.17-0.402zM14.857 11.143v2.857q0 0.357-0.25 0.607t-0.607 0.25h-13.143q-0.357 0-0.607-0.25t-0.25-0.607v-2.857q0-0.357 0.25-0.607t0.607-0.25h3.813q0.188 0.5 0.629 0.821t0.987 0.321h2.286q0.545 0 0.987-0.321t0.629-0.821h3.813q0.357 0 0.607 0.25t0.25 0.607zM11.955 5.357q-0.152 0.357-0.527 0.357h-2.286v4q0 0.232-0.17 0.402t-0.402 0.17h-2.286q-0.232 0-0.402-0.17t-0.17-0.402v-4h-2.286q-0.375 0-0.527-0.357-0.152-0.348 0.125-0.616l4-4q0.161-0.17 0.402-0.17t0.402 0.17l4 4q0.277 0.268 0.125 0.616z"/>
    </symbol>

    <symbol id="user" viewBox="0 0 13 16">
      <path d="M12.571 12.545q0 1.071-0.652 1.692t-1.732 0.621h-7.804q-1.080 0-1.732-0.621t-0.652-1.692q0-0.473 0.031-0.924t0.125-0.973 0.237-0.969 0.384-0.871 0.554-0.723 0.763-0.478 0.996-0.179q0.080 0 0.375 0.192t0.665 0.429 0.964 0.429 1.192 0.192 1.192-0.192 0.964-0.429 0.665-0.429 0.375-0.192q0.545 0 0.996 0.179t0.763 0.478 0.554 0.723 0.384 0.871 0.237 0.969 0.125 0.973 0.031 0.924zM9.714 4.571q0 1.42-1.004 2.424t-2.424 1.004-2.424-1.004-1.004-2.424 1.004-2.424 2.424-1.004 2.424 1.004 1.004 2.424z"/>
    </symbol>

    <symbol id="user-comment" viewBox="0 0 16 16">
      <path d="M8 3.429c-3.714 0-6.857 2.089-6.857 4.571 0 1.33 0.893 2.598 2.438 3.473l0.777 0.446-0.241 0.857c-0.17 0.634-0.393 1.125-0.625 1.536 0.902-0.375 1.723-0.884 2.455-1.527l0.384-0.339 0.509 0.054c0.384 0.045 0.777 0.071 1.161 0.071 3.714 0 6.857-2.089 6.857-4.571s-3.143-4.571-6.857-4.571zM16 8c0 3.161-3.58 5.714-8 5.714-0.438 0-0.875-0.027-1.295-0.071-1.17 1.036-2.563 1.768-4.107 2.161-0.321 0.089-0.67 0.152-1.018 0.196h-0.045c-0.179 0-0.339-0.143-0.384-0.339v-0.009c-0.045-0.223 0.107-0.357 0.241-0.518 0.563-0.634 1.205-1.17 1.625-2.661-1.839-1.045-3.018-2.661-3.018-4.473 0-3.161 3.58-5.714 8-5.714v0c4.42 0 8 2.554 8 5.714z"/>
    </symbol>

    <symbol id="users" viewBox="0 0 17 16">
      <path d="M5.295 8q-1.446 0.045-2.366 1.143h-1.196q-0.732 0-1.232-0.362t-0.5-1.058q0-3.152 1.107-3.152 0.054 0 0.388 0.188t0.871 0.379 1.063 0.192q0.598 0 1.187-0.205-0.045 0.33-0.045 0.589 0 1.241 0.723 2.286zM14.857 13.688q0 1.071-0.652 1.692t-1.732 0.621h-7.804q-1.080 0-1.732-0.621t-0.652-1.692q0-0.473 0.031-0.924t0.125-0.973 0.237-0.969 0.384-0.871 0.554-0.723 0.763-0.478 0.996-0.179q0.089 0 0.384 0.192t0.652 0.429 0.955 0.429 1.205 0.192 1.205-0.192 0.955-0.429 0.652-0.429 0.384-0.192q0.545 0 0.996 0.179t0.763 0.478 0.554 0.723 0.384 0.871 0.237 0.969 0.125 0.973 0.031 0.924zM5.714 2.286q0 0.946-0.67 1.616t-1.616 0.67-1.616-0.67-0.67-1.616 0.67-1.616 1.616-0.67 1.616 0.67 0.67 1.616zM12 5.714q0 1.42-1.004 2.424t-2.424 1.004-2.424-1.004-1.004-2.424 1.004-2.424 2.424-1.004 2.424 1.004 1.004 2.424zM17.143 7.723q0 0.696-0.5 1.058t-1.232 0.362h-1.196q-0.92-1.098-2.366-1.143 0.723-1.045 0.723-2.286 0-0.259-0.045-0.589 0.589 0.205 1.188 0.205 0.527 0 1.063-0.192t0.871-0.379 0.388-0.188q1.107 0 1.107 3.152zM16 2.286q0 0.946-0.67 1.616t-1.616 0.67-1.616-0.67-0.67-1.616 0.67-1.616 1.616-0.67 1.616 0.67 0.67 1.616z"/>
    </symbol>

    <symbol id="view" viewBox="0 0 16 16">
      <path d="M14.857 8.571q-1.357-2.107-3.402-3.152 0.545 0.929 0.545 2.009 0 1.652-1.174 2.826t-2.826 1.174-2.826-1.174-1.174-2.826q0-1.080 0.545-2.009-2.045 1.045-3.402 3.152 1.188 1.83 2.978 2.915t3.879 1.085 3.879-1.085 2.978-2.915zM8.429 5.143q0-0.179-0.125-0.304t-0.304-0.125q-1.116 0-1.915 0.799t-0.799 1.915q0 0.179 0.125 0.304t0.304 0.125 0.304-0.125 0.125-0.304q0-0.768 0.545-1.313t1.313-0.545q0.179 0 0.304-0.125t0.125-0.304zM16 8.571q0 0.304-0.179 0.616-1.25 2.054-3.362 3.29t-4.46 1.237-4.46-1.241-3.362-3.286q-0.179-0.313-0.179-0.616t0.179-0.616q1.25-2.045 3.362-3.286t4.46-1.241 4.46 1.241 3.362 3.286q0.179 0.313 0.179 0.616z"/>
    </symbol>

    <symbol id="warning" viewBox="0 0 16 16">
      <path d="M9.143 12.277v-1.696q0-0.125-0.085-0.21t-0.201-0.085h-1.714q-0.116 0-0.201 0.085t-0.085 0.21v1.696q0 0.125 0.085 0.21t0.201 0.085h1.714q0.116 0 0.201-0.085t0.085-0.21zM9.125 8.938l0.161-4.098q0-0.107-0.089-0.17-0.116-0.098-0.214-0.098h-1.964q-0.098 0-0.214 0.098-0.089 0.063-0.089 0.188l0.152 4.080q0 0.089 0.089 0.147t0.214 0.058h1.652q0.125 0 0.21-0.058t0.094-0.147zM9 0.598l6.857 12.571q0.313 0.563-0.018 1.125-0.152 0.259-0.415 0.411t-0.567 0.152h-13.714q-0.304 0-0.567-0.152t-0.415-0.411q-0.33-0.563-0.018-1.125l6.857-12.571q0.152-0.277 0.42-0.438t0.58-0.161 0.58 0.161 0.42 0.438z"/>
    </symbol>

  </defs>
</svg>
