<svg xmlns="http://www.w3.org/2000/svg" version="1.1" viewBox="0 0 320 320">
  <g stroke="#222" stroke-width="2.6458" style="paint-order:stroke fill markers">
    <g fill="#c4a777">
      <path d="m31.1 246.421h119.2c5.8697 0 10.595 4.1716 10.595 9.3533v39.752h-140.39v-39.752c0-5.1817 4.7255-9.3533 10.595-9.3533z"/>
      <path d="m33.813 279.554h31.75c2.2094 0 3.9881 1.7787 3.9881 3.9881 0.02405 3.8392-0.0175 7.1965-0.01929 10.583h-39.688c-0.02816-3.9011-0.0193-5.992-0.0193-10.583 0-2.2094 1.7787-3.9881 3.9881-3.9881z"/>
      <path d="m74.823 279.573h31.75c2.2094 0 3.9881 1.7787 3.9881 3.9881 0.0241 3.8392-0.0175 7.1965-0.0193 10.583h-39.688c-0.02816-3.9011-0.0193-5.992-0.0193-10.583 0-2.2094 1.7787-3.9881 3.9881-3.9881z"/>
      <path d="m115.834 279.554h31.75c2.2094 0 3.988 1.7787 3.988 3.9881 0.024 3.8392-0.0175 7.1965-0.0193 10.583h-39.688c-0.0282-3.9011-0.0193-5.992-0.0193-10.583 0-2.2094 1.7787-3.9881 3.988-3.9881z"/>
    </g>
    <rect x="20.3259" y="292.545" width="140.74" height="11.098" fill="#ab8b5d"/>
    <g fill="#c4a777">
      <path d="m19.922 266.344c4.7638 0 8.599 3.5401 8.599 7.9375v26.458c0 4.3974-3.8351 7.9375-8.599 7.9375s-8.599-3.5401-8.599-7.9375v-26.458c0-4.3974 3.8351-7.9375 8.599-7.9375z"/>
      <path d="m161.474 266.344c4.7638 0 8.599 3.5401 8.599 7.9375v26.458c0 4.3974-3.8351 7.9375-8.599 7.9375-4.7638 0-8.599-3.5401-8.599-7.9375v-26.458c0-4.3974 3.8351-7.9375 8.599-7.9375z"/>
    </g>
  </g>
  <g fill="#222">
    <path d="m43.335 274.954q-4.93896 0-8.07873-3.24561-3.10449-3.2456-3.10449-9.45458 0-6.24426 3.13977-9.45459 3.17505-3.21032 8.14929-3.21032 5.00952 0 8.07873 3.17504 3.06921 3.13977 3.06921 9.56042 0 6.38538-3.13977 9.52514-3.13977 3.1045-8.11401 3.1045zm0.03528-18.5917q-1.69336 0-2.85754 1.55225-1.1289 1.55224-1.1289 4.3745 0 2.78699 1.09363 4.30396 1.09363 1.48169 2.85754 1.48169 1.79919 0 2.89282-1.51697 1.12891-1.51697 1.12891-4.33923 0-2.82227-1.16418-4.33923-1.12891-1.51697-2.82226-1.51697z"/>
    <path d="m64.1249 274.107q0 0.56445-3.35144 0.56445-3.38672 0-3.38672-0.52918v-23.0014q0-1.23474 1.3053-1.23474h6.73816q9.27819 0 9.27819 7.23205 0 2.18726-0.846679 3.98645-0.846679 1.76392-2.39892 2.82227l4.44507 7.40844q-0.282227 0.84668-1.83447 1.9403-2.1167 1.51697-3.49255 1.51697t-2.04614-0.98779l-3.31616-7.72595h-1.09363zm0-17.9567v5.29175h0.176392q3.35144 0 3.35144-2.78699 0-1.27002-0.670288-1.86975-0.635009-0.63501-2.1167-0.63501z"/>
    <path d="m91.248 267.228 0.0706-4.79785q0-0.4939 1.02307-0.63501 1.02307-0.17639 1.69336-0.17639l1.37585 0.10583q1.34058 0.21167 1.34058 0.74085l-0.14112 11.0421q-0.70556 0.4939-2.85754 0.9878-2.1167 0.45862-4.86841 0.45862-5.11535 0-8.25512-3.31617-3.13977-3.31616-3.13977-9.73681 0-5.46813 3.06922-8.89013 3.06921-3.42199 8.50207-3.42199 2.46948 0 4.44506 0.49389 2.01086 0.45862 2.75171 1.27002 0.0353 0.28223 0.0353 1.05835t-0.52918 2.22253q-0.52917 1.41114-1.19946 2.1167-0.67029 0.70557-0.98779 0.70557-0.28223 0-0.63501-0.24695-0.31751-0.28223-1.3053-0.56445-0.98779-0.31751-1.90503-0.31751-2.18725 0-3.5631 1.41113-1.34058 1.41114-1.34058 4.37451 0 2.96338 1.37585 4.51563 1.41114 1.51696 3.21033 1.51696 1.83447 0 1.83447-0.91723z"/>
    <path d="m116.687 274.671q-3.06921 0-3.31616-0.98779l-1.16418-4.5509h-5.60925l-1.02307 4.3745q-0.21167 1.09363-3.38672 1.09363-1.69336 0-2.50476-0.17639-0.8114-0.21167-0.8114-0.3175l6.24426-23.8834q0-0.28223 4.83313-0.28223t4.83313 0.28223l6.10314 23.9187q0 0.24695-1.6228 0.38807-1.6228 0.14111-2.57532 0.14111zm-9.20763-10.019h3.70422l-1.58753-7.30261h-0.21167z"/>
  </g>
</svg>
