<svg width="630" height="265.3" version="1.1" viewBox="0 0 166.69 70.193" xmlns="http://www.w3.org/2000/svg">
  <g fill="#c4a777" stroke="#222" stroke-width="2.6458">
    <path d="m23.746 3.968h119.2c5.8697 0 10.595 4.1716 10.595 9.3533v39.752c-18.542-4e-6 -123.17-4e-6 -140.39 0v-39.752c0-5.1817 4.7255-9.3533 10.595-9.3533z" stroke-linecap="square" style="paint-order:stroke fill markers"/>
    <path d="m26.459 37.101h31.75c2.2094 0 3.9881 1.7787 3.9881 3.9881 0.02405 3.8392-0.0175 7.1965-0.01929 10.583h-39.688c-0.02816-3.9011-0.0193-5.992-0.0193-10.583 0-2.2094 1.7787-3.9881 3.9881-3.9881z" style="paint-order:stroke fill markers"/>
    <path d="m67.469 37.12h31.75c2.2094 0 3.9881 1.7787 3.9881 3.9881 0.0241 3.8392-0.0175 7.1965-0.0193 10.583h-39.688c-0.02816-3.9011-0.0193-5.992-0.0193-10.583 0-2.2094 1.7787-3.9881 3.9881-3.9881z" style="paint-order:stroke fill markers"/>
    <path d="m108.48 37.101h31.75c2.2094 0 3.988 1.7787 3.988 3.9881 0.024 3.8392-0.0175 7.1965-0.0193 10.583h-39.688c-0.0282-3.9011-0.0193-5.992-0.0193-10.583 0-2.2094 1.7787-3.9881 3.988-3.9881z" style="paint-order:stroke fill markers"/>
  </g>
  <g stroke="#222">
    <rect x="12.972" y="50.092" width="140.74" height="11.098" fill="#ab8b5d" stroke-width="2.6459" style="paint-order:stroke fill markers"/>
    <path d="m12.568 23.891c4.7638 0 8.599 3.5401 8.599 7.9375v26.458c0 4.3974-3.8351 7.9375-8.599 7.9375s-8.599-3.5401-8.599-7.9375v-26.458c0-4.3974 3.8351-7.9375 8.599-7.9375z" fill="#c4a777" stroke-width="2.6459" style="paint-order:stroke fill markers"/>
    <path d="m154.12 23.891c4.7638 0 8.599 3.5401 8.599 7.9375v26.458c0 4.3974-3.8351 7.9375-8.599 7.9375-4.7638 0-8.599-3.5401-8.599-7.9375v-26.458c0-4.3974 3.8351-7.9375 8.599-7.9375z" fill="#c4a777" stroke-width="2.6458" style="paint-order:stroke fill markers"/>
  </g>
  <g fill="#222">
    <path d="m78.769 30.827v-23.698q0-0.8001 3.8481-0.8001 3.8862 0 3.8862 0.8001v18.669h5.8674q0.6858 0 0.9525 1.7907 0.1143 0.8763 0.1143 1.7907t-0.1143 1.8669q-0.3048 1.8288-0.9906 1.8288h-11.735q-0.8382 0-1.3335-0.6858t-0.4953-1.5621z"/>
    <path d="m113.65 33.151q-3.3147 0-3.5814-1.0668l-1.2573-4.9149h-6.0579l-1.1049 4.7244q-0.2286 1.1811-3.6576 1.1811-1.8288 0-2.7051-0.1905-0.8763-0.2286-0.8763-0.3429l6.7437-25.794q0-0.3048 5.2197-0.3048t5.2197 0.3048l6.5913 25.832q0 0.2667-1.7526 0.4191t-2.7813 0.1524zm-9.9441-10.82h4.0005l-1.7145-7.8867h-0.2286z"/>
    <path d="m141.55 32.237q0 0.8001-3.5814 0.8001t-3.8862-0.5715l-6.3627-11.887v11.849q0 0.6858-3.5433 0.6858-3.5052 0-3.5052-0.6858v-25.489q0-0.5715 3.0099-0.5715 1.1811 0 2.7432 0.2286 1.6002 0.1905 1.9431 0.762l6.096 11.735v-11.963q0-0.7239 3.5433-0.7239t3.5433 0.7239z"/>
    <path d="m32.044 6.551q1.8542 0 3.2512 0.5334 1.4224 0.508 1.4224 1.397t-0.6858 2.2098q-0.6604 1.2954-1.1176 1.2954-0.127 0-0.3048-0.127-0.1524-0.1524-0.762-0.3048-0.5842-0.1778-1.016-0.1778-1.4732 0-2.3876 1.0414-0.889 1.0414-0.889 3.2004 0 2.1336 0.9144 3.175 0.9398 1.0414 2.3622 1.0414 0.5842 0 1.2954-0.1524 0.7366-0.1778 1.0414-0.4826 0.0508-0.0508 0.2032-0.0508t0.5588 0.5842q0.4318 0.5588 0.7874 1.4986 0.3556 0.9144 0.3556 1.4224 0 0.9906-1.524 1.5748t-3.6068 0.5842q-3.3528 0-5.5118-2.3622t-2.159-6.6548q0-4.318 2.2098-6.7818 2.2352-2.4638 5.5626-2.4638z"/>
    <path d="m39.983 23.061q-1.5748-1.7526-1.5748-4.8514t1.5748-4.8514q1.6002-1.7526 4.2926-1.7526t4.2672 1.7526 1.5748 4.8514-1.5748 4.8514-4.2672 1.7526-4.2926-1.7526zm4.2926-7.2136q-1.4224 0-1.4224 2.3368t1.4224 2.3368q1.4478 0 1.4478-2.3368t-1.4478-2.3368z"/>
    <path d="m51.887 15.924q-0.1778 0-0.1778-1.0922 0-2.9718 0.4826-2.9718h8.1026q0.1778 0 0.7874 1.1176t0.6096 1.27q0 0.127-0.0254 0.1524l-4.9276 6.1976 4.4196-0.3048q0.4064 0 0.4064 1.8034 0 0.6858-0.127 1.5748t-0.4318 0.889h-8.128q-0.381 0-0.9144-1.27t-0.5334-1.524q0-0.2794 0.0508-0.3302l4.8514-5.6642z"/>
    <path d="m62.558 11.987q0-0.2794 2.3114-0.2794 2.3368 0 2.413 0.254l1.8288 5.9944 1.7526-6.0452q0.1016-0.2032 1.5748-0.2032 3.3782 0 3.2258 0.3302l-5.969 16.993q-0.0254 0.1524-1.397 0.1524-1.3462 0-2.5146-0.1016-1.1684-0.0762-1.1176-0.2032l2.2098-5.334z"/>
  </g>
</svg>
