<svg version="1.1" xmlns="http://www.w3.org/2000/svg">
  <defs>

    <!--
      Icons selected from Font Awesome Free 7.1.0 (https://fontawesome.com/)
      Icons license: CC BY 4.0 (see https://fontawesome.com/license/free)
    -->

    <symbol id="add" viewBox="0 0 640 640"><path d="M352 128C352 110.3 337.7 96 320 96C302.3 96 288 110.3 288 128L288 288L128 288C110.3 288 96 302.3 96 320C96 337.7 110.3 352 128 352L288 352L288 512C288 529.7 302.3 544 320 544C337.7 544 352 529.7 352 512L352 352L512 352C529.7 352 544 337.7 544 320C544 302.3 529.7 288 512 288L352 288L352 128z"/></symbol>
    <symbol id="administrate" viewBox="0 0 640 640"><path d="M541.4 162.6C549 155 561.7 156.9 565.5 166.9C572.3 184.6 576 203.9 576 224C576 312.4 504.4 384 416 384C398.5 384 381.6 381.2 365.8 376L178.9 562.9C150.8 591 105.2 591 77.1 562.9C49 534.8 49 489.2 77.1 461.1L264 274.2C258.8 258.4 256 241.6 256 224C256 135.6 327.6 64 416 64C436.1 64 455.4 67.7 473.1 74.5C483.1 78.3 484.9 91 477.4 98.6L388.7 187.3C385.7 190.3 384 194.4 384 198.6L384 240C384 248.8 391.2 256 400 256L441.4 256C445.6 256 449.7 254.3 452.7 251.3L541.4 162.6z"/></symbol>
    <symbol id="announce" viewBox="0 0 640 640"><path d="M525.2 82.9C536.7 88 544 99.4 544 112L544 528C544 540.6 536.7 552 525.2 557.1C513.7 562.2 500.4 560.3 490.9 552L444.3 511.3C400.7 473.2 345.6 451 287.9 448.3L287.9 544C287.9 561.7 273.6 576 255.9 576L223.9 576C206.2 576 191.9 561.7 191.9 544L191.9 448C121.3 448 64 390.7 64 320C64 249.3 121.3 192 192 192L276.5 192C338.3 191.8 397.9 169.3 444.4 128.7L491 88C500.4 79.7 513.9 77.8 525.3 82.9zM288 384L288 384.2C358.3 386.9 425.8 412.7 480 457.6L480 182.3C425.8 227.2 358.3 253 288 255.7L288 384z"/></symbol>
    <symbol id="api" viewBox="0 0 640 640"><path d="M64 144C64 117.5 85.5 96 112 96L208 96C234.5 96 256 117.5 256 144L256 160L384 160L384 144C384 117.5 405.5 96 432 96L528 96C554.5 96 576 117.5 576 144L576 240C576 266.5 554.5 288 528 288L432 288C405.5 288 384 266.5 384 240L384 224L256 224L256 240C256 247.3 254.3 254.3 251.4 260.5L320 352L400 352C426.5 352 448 373.5 448 400L448 496C448 522.5 426.5 544 400 544L304 544C277.5 544 256 522.5 256 496L256 400C256 392.7 257.7 385.7 260.6 379.5L192 288L112 288C85.5 288 64 266.5 64 240L64 144z"/></symbol>
    <symbol id="archived" viewBox="0 0 640 640"><path d="M64 128C64 110.3 78.3 96 96 96L544 96C561.7 96 576 110.3 576 128L576 160C576 177.7 561.7 192 544 192L96 192C78.3 192 64 177.7 64 160L64 128zM96 240L544 240L544 480C544 515.3 515.3 544 480 544L160 544C124.7 544 96 515.3 96 480L96 240zM248 304C234.7 304 224 314.7 224 328C224 341.3 234.7 352 248 352L392 352C405.3 352 416 341.3 416 328C416 314.7 405.3 304 392 304L248 304z"/></symbol>
    <symbol id="arrow-down" viewBox="0 0 640 640"><path d="M297.4 566.6C309.9 579.1 330.2 579.1 342.7 566.6L502.7 406.6C515.2 394.1 515.2 373.8 502.7 361.3C490.2 348.8 469.9 348.8 457.4 361.3L352 466.7L352 96C352 78.3 337.7 64 320 64C302.3 64 288 78.3 288 96L288 466.7L182.6 361.3C170.1 348.8 149.8 348.8 137.3 361.3C124.8 373.8 124.8 394.1 137.3 406.6L297.3 566.6z"/></symbol>
    <symbol id="arrow-left" viewBox="0 0 640 640"><path d="M73.4 297.4C60.9 309.9 60.9 330.2 73.4 342.7L233.4 502.7C245.9 515.2 266.2 515.2 278.7 502.7C291.2 490.2 291.2 469.9 278.7 457.4L173.3 352L544 352C561.7 352 576 337.7 576 320C576 302.3 561.7 288 544 288L173.3 288L278.7 182.6C291.2 170.1 291.2 149.8 278.7 137.3C266.2 124.8 245.9 124.8 233.4 137.3L73.4 297.3z"/></symbol>
    <symbol id="arrow-right" viewBox="0 0 640 640"><path d="M566.6 342.6C579.1 330.1 579.1 309.8 566.6 297.3L406.6 137.3C394.1 124.8 373.8 124.8 361.3 137.3C348.8 149.8 348.8 170.1 361.3 182.6L466.7 288L96 288C78.3 288 64 302.3 64 320C64 337.7 78.3 352 96 352L466.7 352L361.3 457.4C348.8 469.9 348.8 490.2 361.3 502.7C373.8 515.2 394.1 515.2 406.6 502.7L566.6 342.7z"/></symbol>
    <symbol id="arrow-up" viewBox="0 0 640 640"><path d="M342.6 81.4C330.1 68.9 309.8 68.9 297.3 81.4L137.3 241.4C124.8 253.9 124.8 274.2 137.3 286.7C149.8 299.2 170.1 299.2 182.6 286.7L288 181.3L288 552C288 569.7 302.3 584 320 584C337.7 584 352 569.7 352 552L352 181.3L457.4 286.7C469.9 299.2 490.2 299.2 502.7 286.7C515.2 274.2 515.2 253.9 502.7 241.4L342.7 81.4z"/></symbol>
    <symbol id="attached" viewBox="0 0 640 640"><path d="M288.6 76.8C344.8 20.6 436 20.6 492.2 76.8C548.4 133 548.4 224.2 492.2 280.4L328.2 444.4C293.8 478.8 238.1 478.8 203.7 444.4C169.3 410 169.3 354.3 203.7 319.9L356.5 167.3C369 154.8 389.3 154.8 401.8 167.3C414.3 179.8 414.3 200.1 401.8 212.6L249 365.3C239.6 374.7 239.6 389.9 249 399.2C258.4 408.5 273.6 408.6 282.9 399.2L446.9 235.2C478.1 204 478.1 153.3 446.9 122.1C415.7 90.9 365 90.9 333.8 122.1L169.8 286.1C116.7 339.2 116.7 425.3 169.8 478.4C222.9 531.5 309 531.5 362.1 478.4L492.3 348.3C504.8 335.8 525.1 335.8 537.6 348.3C550.1 360.8 550.1 381.1 537.6 393.6L407.4 523.6C329.3 601.7 202.7 601.7 124.6 523.6C46.5 445.5 46.5 318.9 124.6 240.8L288.6 76.8z"/></symbol>
    <symbol id="badge" viewBox="0 0 640 640"><path d="M341.9 38.1C328.5 29.9 311.6 29.9 298.2 38.1C273.8 53 258.7 57 230.1 56.4C214.4 56 199.8 64.5 192.2 78.3C178.5 103.4 167.4 114.5 142.3 128.2C128.5 135.7 120.1 150.4 120.4 166.1C121.1 194.7 117 209.8 102.1 234.2C93.9 247.6 93.9 264.5 102.1 277.9C117 302.3 121 317.4 120.4 346C120 361.7 128.5 376.3 142.3 383.9C164.4 396 175.6 406 187.4 425.4L138.7 522.5C132.8 534.4 137.6 548.8 149.4 554.7L235.4 597.7C246.9 603.4 260.9 599.1 267.1 587.9L319.9 492.8L372.7 587.9C378.9 599.1 392.9 603.5 404.4 597.7L490.4 554.7C502.3 548.8 507.1 534.4 501.1 522.5L452.5 425.3C464.2 405.9 475.5 395.9 497.6 383.8C511.4 376.3 519.8 361.6 519.5 345.9C518.8 317.3 522.9 302.2 537.8 277.8C546 264.4 546 247.5 537.8 234.1C522.9 209.7 518.9 194.6 519.5 166C519.9 150.3 511.4 135.7 497.6 128.1C472.5 114.4 461.4 103.3 447.7 78.2C440.2 64.4 425.5 56 409.8 56.3C381.2 57 366.1 52.9 341.7 38zM320 160C373 160 416 203 416 256C416 309 373 352 320 352C267 352 224 309 224 256C224 203 267 160 320 160z"/></symbol>
    <symbol id="bars" viewBox="0 0 640 640"><path d="M96 160C96 142.3 110.3 128 128 128L512 128C529.7 128 544 142.3 544 160C544 177.7 529.7 192 512 192L128 192C110.3 192 96 177.7 96 160zM96 320C96 302.3 110.3 288 128 288L512 288C529.7 288 544 302.3 544 320C544 337.7 529.7 352 512 352L128 352C110.3 352 96 337.7 96 320zM544 480C544 497.7 529.7 512 512 512L128 512C110.3 512 96 497.7 96 480C96 462.3 110.3 448 128 448L512 448C529.7 448 544 462.3 544 480z"/></symbol>
    <symbol id="birthday" viewBox="0 0 640 640"><path d="M182.4 53.5L157.8 95.6C154 102.1 152 109.6 152 117.2L152 120C152 142.1 169.9 160 192 160C214.1 160 232 142.1 232 120L232 117.2C232 109.6 230 102.2 226.2 95.6L201.6 53.5C199.6 50.1 195.9 48 192 48C188.1 48 184.4 50.1 182.4 53.5zM310.4 53.5L285.8 95.6C282 102.1 280 109.6 280 117.2L280 120C280 142.1 297.9 160 320 160C342.1 160 360 142.1 360 120L360 117.2C360 109.6 358 102.2 354.2 95.6L329.6 53.5C327.6 50.1 323.9 48 320 48C316.1 48 312.4 50.1 310.4 53.5zM413.8 95.6C410 102.1 408 109.6 408 117.2L408 120C408 142.1 425.9 160 448 160C470.1 160 488 142.1 488 120L488 117.2C488 109.6 486 102.2 482.2 95.6L457.6 53.5C455.6 50.1 451.9 48 448 48C444.1 48 440.4 50.1 438.4 53.5L413.8 95.6zM224 224C224 206.3 209.7 192 192 192C174.3 192 160 206.3 160 224L160 277.5C122.7 290.6 96 326.2 96 368L96 388.8C116.9 390.1 137.6 396.1 156.3 406.8L163.4 410.9C189.7 425.9 222.3 424.3 247 406.7C290.7 375.5 349.3 375.5 393 406.7C417.6 424.3 450.3 426 476.6 410.9L483.7 406.8C502.4 396.1 523 390.1 544 388.8L544 368C544 326.2 517.3 290.6 480 277.5L480 224C480 206.3 465.7 192 448 192C430.3 192 416 206.3 416 224L416 272L352 272L352 224C352 206.3 337.7 192 320 192C302.3 192 288 206.3 288 224L288 272L224 272L224 224zM544 437C531.3 438.2 518.9 442 507.5 448.5L500.4 452.6C457.8 476.9 405 474.3 365.1 445.8C338.1 426.5 301.9 426.5 274.9 445.8C235 474.3 182.2 477 139.6 452.6L132.5 448.5C121.1 442 108.7 438.1 96 437L96 512C96 547.3 124.7 576 160 576L480 576C515.3 576 544 547.3 544 512L544 437z"/></symbol>
    <symbol id="board" viewBox="0 0 640 640"><path d="M416 208C416 305.2 330 384 224 384C197.3 384 171.9 379 148.8 370L67.2 413.2C57.9 418.1 46.5 416.4 39 409C31.5 401.6 29.8 390.1 34.8 380.8L70.4 313.6C46.3 284.2 32 247.6 32 208C32 110.8 118 32 224 32C330 32 416 110.8 416 208zM416 576C321.9 576 243.6 513.9 227.2 432C347.2 430.5 451.5 345.1 463 229.3C546.3 248.5 608 317.6 608 400C608 439.6 593.7 476.2 569.6 505.6L605.2 572.8C610.1 582.1 608.4 593.5 601 601C593.6 608.5 582.1 610.2 572.8 605.2L491.2 562C468.1 571 442.7 576 416 576z"/></symbol>
    <symbol id="bookmark" viewBox="0 0 640 640"><path d="M192 64C156.7 64 128 92.7 128 128L128 544C128 555.5 134.2 566.2 144.2 571.8C154.2 577.4 166.5 577.3 176.4 571.4L320 485.3L463.5 571.4C473.4 577.3 485.7 577.5 495.7 571.8C505.7 566.1 512 555.5 512 544L512 128C512 92.7 483.3 64 448 64L192 64z"/></symbol>
    <symbol id="brand" viewBox="0 0 640 640"><path d="M160 96C160 78.3 145.7 64 128 64C110.3 64 96 78.3 96 96L96 544C96 561.7 110.3 576 128 576C145.7 576 160 561.7 160 544L160 422.4L222.7 403.6C264.6 391 309.8 394.9 348.9 414.5C391.6 435.9 441.4 438.5 486.1 421.7L523.2 407.8C535.7 403.1 544 391.2 544 377.8L544 130.1C544 107.1 519.8 92.1 499.2 102.4L487.4 108.3C442.5 130.8 389.6 130.8 344.6 108.3C308.2 90.1 266.3 86.5 227.4 98.2L160 118.4L160 96z"/></symbol>
    <symbol id="catalog" viewBox="0 0 640 640"><path d="M480 576L192 576C139 576 96 533 96 480L96 160C96 107 139 64 192 64L496 64C522.5 64 544 85.5 544 112L544 400C544 420.9 530.6 438.7 512 445.3L512 512C529.7 512 544 526.3 544 544C544 561.7 529.7 576 512 576L480 576zM192 448C174.3 448 160 462.3 160 480C160 497.7 174.3 512 192 512L448 512L448 448L192 448zM224 216C224 229.3 234.7 240 248 240L424 240C437.3 240 448 229.3 448 216C448 202.7 437.3 192 424 192L248 192C234.7 192 224 202.7 224 216zM248 288C234.7 288 224 298.7 224 312C224 325.3 234.7 336 248 336L424 336C437.3 336 448 325.3 448 312C448 298.7 437.3 288 424 288L248 288z"/></symbol>
    <symbol id="chevron-down" viewBox="0 0 640 640"><path d="M297.4 470.6C309.9 483.1 330.2 483.1 342.7 470.6L534.7 278.6C547.2 266.1 547.2 245.8 534.7 233.3C522.2 220.8 501.9 220.8 489.4 233.3L320 402.7L150.6 233.4C138.1 220.9 117.8 220.9 105.3 233.4C92.8 245.9 92.8 266.2 105.3 278.7L297.3 470.7z"/></symbol>
    <symbol id="chevron-left" viewBox="0 0 640 640"><path d="M169.4 297.4C156.9 309.9 156.9 330.2 169.4 342.7L361.4 534.7C373.9 547.2 394.2 547.2 406.7 534.7C419.2 522.2 419.2 501.9 406.7 489.4L237.3 320L406.6 150.6C419.1 138.1 419.1 117.8 406.6 105.3C394.1 92.8 373.8 92.8 361.3 105.3L169.3 297.3z"/></symbol>
    <symbol id="chevron-right" viewBox="0 0 640 640"><path d="M471.1 297.4C483.6 309.9 483.6 330.2 471.1 342.7L279.1 534.7C266.6 547.2 246.3 547.2 233.8 534.7C221.3 522.2 221.3 501.9 233.8 489.4L403.2 320L233.9 150.6C221.4 138.1 221.4 117.8 233.9 105.3C246.4 92.8 266.7 92.8 279.2 105.3L471.2 297.3z"/></symbol>
    <symbol id="chevron-up" viewBox="0 0 640 640"><path d="M297.4 169.4C309.9 156.9 330.2 156.9 342.7 169.4L534.7 361.4C547.2 373.9 547.2 394.2 534.7 406.7C522.2 419.2 501.9 419.2 489.4 406.7L320 237.3L150.6 406.6C138.1 419.1 117.8 419.1 105.3 406.6C92.8 394.1 92.8 373.8 105.3 361.3L297.3 169.3z"/></symbol>
    <symbol id="clipboard" viewBox="0 0 640 640"><path d="M448 96L439.4 96C428.4 76.9 407.7 64 384 64L256 64C232.3 64 211.6 76.9 200.6 96L192 96C156.7 96 128 124.7 128 160L128 512C128 547.3 156.7 576 192 576L448 576C483.3 576 512 547.3 512 512L512 160C512 124.7 483.3 96 448 96zM264 176C250.7 176 240 165.3 240 152C240 138.7 250.7 128 264 128L376 128C389.3 128 400 138.7 400 152C400 165.3 389.3 176 376 176L264 176z"/></symbol>
    <symbol id="consent" viewBox="0 0 640 640"><path d="M64.1 128C64.1 92.7 92.8 64 128.1 64L277.6 64C294.6 64 310.9 70.7 322.9 82.7L429.3 189.3C441.3 201.3 448 217.6 448 234.6L448 332.1L316 464.1L273.9 464.1L257.8 410.5C253.1 394.8 238.7 384.1 222.3 384.1C211 384.1 200.4 389.2 193.4 398L133.3 473C125 483.3 126.7 498.5 137 506.7C147.3 514.9 162.5 513.3 170.7 502.9L217.8 444.1L233 494.8C236 505 245.4 511.9 256 511.9L287.5 511.9C286.6 515 285.8 518.2 285.2 521.4L274.3 575.9L128.1 575.9C92.8 575.9 64.1 547.2 64.1 511.9L64.1 127.9zM272.1 122.5L272.1 216C272.1 229.3 282.8 240 296.1 240L389.6 240L272.1 122.5zM332.3 530.9C334.8 518.5 340.9 507.1 349.8 498.2L468.7 379.3L548.7 459.3L429.8 578.2C420.9 587.1 409.5 593.2 397.1 595.7L337.5 607.6C336.6 607.8 335.6 607.9 334.6 607.9C326.6 607.9 320 601.4 320 593.3C320 592.3 320.1 591.4 320.3 590.4L332.2 530.8zM600.1 407.9L571.3 436.7L491.3 356.7L520.1 327.9C542.2 305.8 578 305.8 600.1 327.9C622.2 350 622.2 385.8 600.1 407.9z"/></symbol>
    <symbol id="copy" viewBox="0 0 640 640"><path d="M288 64C252.7 64 224 92.7 224 128L224 384C224 419.3 252.7 448 288 448L480 448C515.3 448 544 419.3 544 384L544 183.4C544 166 536.9 149.3 524.3 137.2L466.6 81.8C454.7 70.4 438.8 64 422.3 64L288 64zM160 192C124.7 192 96 220.7 96 256L96 512C96 547.3 124.7 576 160 576L352 576C387.3 576 416 547.3 416 512L416 496L352 496L352 512L160 512L160 256L176 256L176 192L160 192z"/></symbol>
    <symbol id="dashboard" viewBox="0 0 640 640"><path d="M64 320C64 178.6 178.6 64 320 64C461.4 64 576 178.6 576 320C576 461.4 461.4 576 320 576C178.6 576 64 461.4 64 320zM352 160C352 142.3 337.7 128 320 128C302.3 128 288 142.3 288 160C288 177.7 302.3 192 320 192C337.7 192 352 177.7 352 160zM320 480C355.3 480 384 451.3 384 416C384 399.8 378 384.9 368 373.7L437.5 234.8C443.4 222.9 438.6 208.5 426.8 202.6C415 196.7 400.5 201.5 394.6 213.3L325.1 352.2C323.4 352.1 321.7 352 320 352C284.7 352 256 380.7 256 416C256 451.3 284.7 480 320 480zM240 208C240 190.3 225.7 176 208 176C190.3 176 176 190.3 176 208C176 225.7 190.3 240 208 240C225.7 240 240 225.7 240 208zM160 352C177.7 352 192 337.7 192 320C192 302.3 177.7 288 160 288C142.3 288 128 302.3 128 320C128 337.7 142.3 352 160 352zM512 320C512 302.3 497.7 288 480 288C462.3 288 448 302.3 448 320C448 337.7 462.3 352 480 352C497.7 352 512 337.7 512 320z"/></symbol>
    <symbol id="date" viewBox="0 0 640 640"><path d="M224 64C241.7 64 256 78.3 256 96L256 128L384 128L384 96C384 78.3 398.3 64 416 64C433.7 64 448 78.3 448 96L448 128L480 128C515.3 128 544 156.7 544 192L544 480C544 515.3 515.3 544 480 544L160 544C124.7 544 96 515.3 96 480L96 192C96 156.7 124.7 128 160 128L192 128L192 96C192 78.3 206.3 64 224 64zM224 320C206.3 320 192 334.3 192 352L192 416C192 433.7 206.3 448 224 448L288 448C305.7 448 320 433.7 320 416L320 352C320 334.3 305.7 320 288 320L224 320z"/></symbol>
    <symbol id="date-okay" viewBox="0 0 640 640"><path d="M416 64C433.7 64 448 78.3 448 96L448 128L480 128C515.3 128 544 156.7 544 192L544 480C544 515.3 515.3 544 480 544L160 544C124.7 544 96 515.3 96 480L96 192C96 156.7 124.7 128 160 128L192 128L192 96C192 78.3 206.3 64 224 64C241.7 64 256 78.3 256 96L256 128L384 128L384 96C384 78.3 398.3 64 416 64zM438 225.7C427.3 217.9 412.3 220.3 404.5 231L285.1 395.2L233 343.1C223.6 333.7 208.4 333.7 199.1 343.1C189.8 352.5 189.7 367.7 199.1 377L271.1 449C276.1 454 283 456.5 289.9 456C296.8 455.5 303.3 451.9 307.4 446.2L443.3 259.2C451.1 248.5 448.7 233.5 438 225.7z"/></symbol>
    <symbol id="delete" viewBox="0 0 640 640"><path d="M232.7 69.9C237.1 56.8 249.3 48 263.1 48L377 48C390.8 48 403 56.8 407.4 69.9L416 96L512 96C529.7 96 544 110.3 544 128C544 145.7 529.7 160 512 160L128 160C110.3 160 96 145.7 96 128C96 110.3 110.3 96 128 96L224 96L232.7 69.9zM128 208L512 208L512 512C512 547.3 483.3 576 448 576L192 576C156.7 576 128 547.3 128 512L128 208zM216 272C202.7 272 192 282.7 192 296L192 488C192 501.3 202.7 512 216 512C229.3 512 240 501.3 240 488L240 296C240 282.7 229.3 272 216 272zM320 272C306.7 272 296 282.7 296 296L296 488C296 501.3 306.7 512 320 512C333.3 512 344 501.3 344 488L344 296C344 282.7 333.3 272 320 272zM424 272C410.7 272 400 282.7 400 296L400 488C400 501.3 410.7 512 424 512C437.3 512 448 501.3 448 488L448 296C448 282.7 437.3 272 424 272z"/></symbol>
    <symbol id="disabled" viewBox="0 0 640 640"><path d="M431.2 476.5L163.5 208.8C141.1 240.2 128 278.6 128 320C128 426 214 512 320 512C361.5 512 399.9 498.9 431.2 476.5zM476.5 431.2C498.9 399.8 512 361.4 512 320C512 214 426 128 320 128C278.5 128 240.1 141.1 208.8 163.5L476.5 431.2zM64 320C64 178.6 178.6 64 320 64C461.4 64 576 178.6 576 320C576 461.4 461.4 576 320 576C178.6 576 64 461.4 64 320z"/></symbol>
    <symbol id="download" viewBox="0 0 640 640"><path d="M352 96C352 78.3 337.7 64 320 64C302.3 64 288 78.3 288 96L288 306.7L246.6 265.3C234.1 252.8 213.8 252.8 201.3 265.3C188.8 277.8 188.8 298.1 201.3 310.6L297.3 406.6C309.8 419.1 330.1 419.1 342.6 406.6L438.6 310.6C451.1 298.1 451.1 277.8 438.6 265.3C426.1 252.8 405.8 252.8 393.3 265.3L352 306.7L352 96zM160 384C124.7 384 96 412.7 96 448L96 480C96 515.3 124.7 544 160 544L480 544C515.3 544 544 515.3 544 480L544 448C544 412.7 515.3 384 480 384L433.1 384L376.5 440.6C345.3 471.8 294.6 471.8 263.4 440.6L206.9 384L160 384zM464 440C477.3 440 488 450.7 488 464C488 477.3 477.3 488 464 488C450.7 488 440 477.3 440 464C440 450.7 450.7 440 464 440z"/></symbol>
    <symbol id="edit" viewBox="0 0 640 640"><path d="M535.6 85.7C513.7 63.8 478.3 63.8 456.4 85.7L432 110.1L529.9 208L554.3 183.6C576.2 161.7 576.2 126.3 554.3 104.4L535.6 85.7zM236.4 305.7C230.3 311.8 225.6 319.3 222.9 327.6L193.3 416.4C190.4 425 192.7 434.5 199.1 441C205.5 447.5 215 449.7 223.7 446.8L312.5 417.2C320.7 414.5 328.2 409.8 334.4 403.7L496 241.9L398.1 144L236.4 305.7zM160 128C107 128 64 171 64 224L64 480C64 533 107 576 160 576L416 576C469 576 512 533 512 480L512 384C512 366.3 497.7 352 480 352C462.3 352 448 366.3 448 384L448 480C448 497.7 433.7 512 416 512L160 512C142.3 512 128 497.7 128 480L128 224C128 206.3 142.3 192 160 192L256 192C273.7 192 288 177.7 288 160C288 142.3 273.7 128 256 128L160 128z"/></symbol>
    <symbol id="ellipsis-h" viewBox="0 0 640 640"><path d="M96 320C96 289.1 121.1 264 152 264C182.9 264 208 289.1 208 320C208 350.9 182.9 376 152 376C121.1 376 96 350.9 96 320zM264 320C264 289.1 289.1 264 320 264C350.9 264 376 289.1 376 320C376 350.9 350.9 376 320 376C289.1 376 264 350.9 264 320zM488 264C518.9 264 544 289.1 544 320C544 350.9 518.9 376 488 376C457.1 376 432 350.9 432 320C432 289.1 457.1 264 488 264z"/></symbol>
    <symbol id="email" viewBox="0 0 640 640"><path d="M112 128C85.5 128 64 149.5 64 176C64 191.1 71.1 205.3 83.2 214.4L291.2 370.4C308.3 383.2 331.7 383.2 348.8 370.4L556.8 214.4C568.9 205.3 576 191.1 576 176C576 149.5 554.5 128 528 128L112 128zM64 260L64 448C64 483.3 92.7 512 128 512L512 512C547.3 512 576 483.3 576 448L576 260L377.6 408.8C343.5 434.4 296.5 434.4 262.4 408.8L64 260z"/></symbol>
    <symbol id="enabled" viewBox="0 0 640 640"><path d="M530.8 134.1C545.1 144.5 548.3 164.5 537.9 178.8L281.9 530.8C276.4 538.4 267.9 543.1 258.5 543.9C249.1 544.7 240 541.2 233.4 534.6L105.4 406.6C92.9 394.1 92.9 373.8 105.4 361.3C117.9 348.8 138.2 348.8 150.7 361.3L252.2 462.8L486.2 141.1C496.6 126.8 516.6 123.6 530.9 134z"/></symbol>
    <symbol id="error" viewBox="0 0 640 640"><path d="M320 64C334.7 64 348.2 72.1 355.2 85L571.2 485C577.9 497.4 577.6 512.4 570.4 524.5C563.2 536.6 550.1 544 536 544L104 544C89.9 544 76.8 536.6 69.6 524.5C62.4 512.4 62.1 497.4 68.8 485L284.8 85C291.8 72.1 305.3 64 320 64zM320 416C302.3 416 288 430.3 288 448C288 465.7 302.3 480 320 480C337.7 480 352 465.7 352 448C352 430.3 337.7 416 320 416zM320 224C301.8 224 287.3 239.5 288.6 257.7L296 361.7C296.9 374.2 307.4 384 319.9 384C332.5 384 342.9 374.3 343.8 361.7L351.2 257.7C352.5 239.5 338.1 224 319.8 224z"/></symbol>
    <symbol id="filter" viewBox="0 0 640 640"><path d="M96 128C83.1 128 71.4 135.8 66.4 147.8C61.4 159.8 64.2 173.5 73.4 182.6L256 365.3L256 480C256 488.5 259.4 496.6 265.4 502.6L329.4 566.6C338.6 575.8 352.3 578.5 364.3 573.5C376.3 568.5 384 556.9 384 544L384 365.3L566.6 182.7C575.8 173.5 578.5 159.8 573.5 147.8C568.5 135.8 556.9 128 544 128L96 128z"/></symbol>
    <symbol id="gallery" viewBox="0 0 640 640"><path d="M128 160C128 124.7 156.7 96 192 96L512 96C547.3 96 576 124.7 576 160L576 416C576 451.3 547.3 480 512 480L192 480C156.7 480 128 451.3 128 416L128 160zM56 192C69.3 192 80 202.7 80 216L80 512C80 520.8 87.2 528 96 528L456 528C469.3 528 480 538.7 480 552C480 565.3 469.3 576 456 576L96 576C60.7 576 32 547.3 32 512L32 216C32 202.7 42.7 192 56 192zM224 224C241.7 224 256 209.7 256 192C256 174.3 241.7 160 224 160C206.3 160 192 174.3 192 192C192 209.7 206.3 224 224 224zM420.5 235.5C416.1 228.4 408.4 224 400 224C391.6 224 383.9 228.4 379.5 235.5L323.2 327.6L298.7 297C294.1 291.3 287.3 288 280 288C272.7 288 265.8 291.3 261.3 297L197.3 377C191.5 384.2 190.4 394.1 194.4 402.4C198.4 410.7 206.8 416 216 416L488 416C496.7 416 504.7 411.3 508.9 403.7C513.1 396.1 513 386.9 508.4 379.4L420.4 235.4z"/></symbol>
    <symbol id="hidden" viewBox="0 0 640 640"><path d="M73 39.1C63.6 29.7 48.4 29.7 39.1 39.1C29.8 48.5 29.7 63.7 39 73.1L567 601.1C576.4 610.5 591.6 610.5 600.9 601.1C610.2 591.7 610.3 576.5 600.9 567.2L504.5 470.8C507.2 468.4 509.9 466 512.5 463.6C559.3 420.1 590.6 368.2 605.5 332.5C608.8 324.6 608.8 315.8 605.5 307.9C590.6 272.2 559.3 220.2 512.5 176.8C465.4 133.1 400.7 96.2 319.9 96.2C263.1 96.2 214.3 114.4 173.9 140.4L73 39.1zM236.5 202.7C260 185.9 288.9 176 320 176C399.5 176 464 240.5 464 320C464 351.1 454.1 379.9 437.3 403.5L402.6 368.8C415.3 347.4 419.6 321.1 412.7 295.1C399 243.9 346.3 213.5 295.1 227.2C286.5 229.5 278.4 232.9 271.1 237.2L236.4 202.5zM357.3 459.1C345.4 462.3 332.9 464 320 464C240.5 464 176 399.5 176 320C176 307.1 177.7 294.6 180.9 282.7L101.4 203.2C68.8 240 46.4 279 34.5 307.7C31.2 315.6 31.2 324.4 34.5 332.3C49.4 368 80.7 420 127.5 463.4C174.6 507.1 239.3 544 320.1 544C357.4 544 391.3 536.1 421.6 523.4L357.4 459.2z"/></symbol>
    <symbol id="history" viewBox="0 0 640 640"><path d="M320 128C426 128 512 214 512 320C512 426 426 512 320 512C254.8 512 197.1 479.5 162.4 429.7C152.3 415.2 132.3 411.7 117.8 421.8C103.3 431.9 99.8 451.9 109.9 466.4C156.1 532.6 233 576 320 576C461.4 576 576 461.4 576 320C576 178.6 461.4 64 320 64C234.3 64 158.5 106.1 112 170.7L112 144C112 126.3 97.7 112 80 112C62.3 112 48 126.3 48 144L48 256C48 273.7 62.3 288 80 288L104.6 288C105.1 288 105.6 288 106.1 288L192.1 288C209.8 288 224.1 273.7 224.1 256C224.1 238.3 209.8 224 192.1 224L153.8 224C186.9 166.6 249 128 320 128zM344 216C344 202.7 333.3 192 320 192C306.7 192 296 202.7 296 216L296 320C296 326.4 298.5 332.5 303 337L375 409C384.4 418.4 399.6 418.4 408.9 409C418.2 399.6 418.3 384.4 408.9 375.1L343.9 310.1L343.9 216z"/></symbol>
    <symbol id="identity-tag" viewBox="0 0 640 640"><path d="M192 64C156.7 64 128 92.7 128 128L128 512C128 547.3 156.7 576 192 576L448 576C483.3 576 512 547.3 512 512L512 128C512 92.7 483.3 64 448 64L192 64zM288 416L352 416C396.2 416 432 451.8 432 496C432 504.8 424.8 512 416 512L224 512C215.2 512 208 504.8 208 496C208 451.8 243.8 416 288 416zM264 320C264 289.1 289.1 264 320 264C350.9 264 376 289.1 376 320C376 350.9 350.9 376 320 376C289.1 376 264 350.9 264 320zM280 128L360 128C373.3 128 384 138.7 384 152C384 165.3 373.3 176 360 176L280 176C266.7 176 256 165.3 256 152C256 138.7 266.7 128 280 128z"/></symbol>
    <symbol id="image" viewBox="0 0 640 640"><path d="M160 96C124.7 96 96 124.7 96 160L96 480C96 515.3 124.7 544 160 544L480 544C515.3 544 544 515.3 544 480L544 160C544 124.7 515.3 96 480 96L160 96zM224 176C250.5 176 272 197.5 272 224C272 250.5 250.5 272 224 272C197.5 272 176 250.5 176 224C176 197.5 197.5 176 224 176zM368 288C376.4 288 384.1 292.4 388.5 299.5L476.5 443.5C481 450.9 481.2 460.2 477 467.8C472.8 475.4 464.7 480 456 480L184 480C175.1 480 166.8 475 162.7 467.1C158.6 459.2 159.2 449.6 164.3 442.3L220.3 362.3C224.8 355.9 232.1 352.1 240 352.1C247.9 352.1 255.2 355.9 259.7 362.3L286.1 400.1L347.5 299.6C351.9 292.5 359.6 288.1 368 288.1z"/></symbol>
    <symbol id="info" viewBox="0 0 640 640"><path d="M320 576C461.4 576 576 461.4 576 320C576 178.6 461.4 64 320 64C178.6 64 64 178.6 64 320C64 461.4 178.6 576 320 576zM288 224C288 206.3 302.3 192 320 192C337.7 192 352 206.3 352 224C352 241.7 337.7 256 320 256C302.3 256 288 241.7 288 224zM280 288L328 288C341.3 288 352 298.7 352 312L352 400L360 400C373.3 400 384 410.7 384 424C384 437.3 373.3 448 360 448L280 448C266.7 448 256 437.3 256 424C256 410.7 266.7 400 280 400L304 400L304 336L280 336C266.7 336 256 325.3 256 312C256 298.7 266.7 288 280 288z"/></symbol>
    <symbol id="invoice" viewBox="0 0 640 640"><path d="M128 128C128 92.7 156.7 64 192 64L341.5 64C358.5 64 374.8 70.7 386.8 82.7L493.3 189.3C505.3 201.3 512 217.6 512 234.6L512 512C512 547.3 483.3 576 448 576L192 576C156.7 576 128 547.3 128 512L128 128zM336 122.5L336 216C336 229.3 346.7 240 360 240L453.5 240L336 122.5zM192 152C192 165.3 202.7 176 216 176L264 176C277.3 176 288 165.3 288 152C288 138.7 277.3 128 264 128L216 128C202.7 128 192 138.7 192 152zM192 248C192 261.3 202.7 272 216 272L264 272C277.3 272 288 261.3 288 248C288 234.7 277.3 224 264 224L216 224C202.7 224 192 234.7 192 248zM304 324L304 328C275.2 328.3 252 351.7 252 380.5C252 406.2 270.5 428.1 295.9 432.3L337.6 439.3C343.6 440.3 348 445.5 348 451.6C348 458.5 342.4 464.1 335.5 464.1L280 464C269 464 260 473 260 484C260 495 269 504 280 504L304 504L304 508C304 519 313 528 324 528C335 528 344 519 344 508L344 503.3C369 499.2 388 477.6 388 451.5C388 425.8 369.5 403.9 344.1 399.7L302.4 392.7C296.4 391.7 292 386.5 292 380.4C292 373.5 297.6 367.9 304.5 367.9L352 367.9C363 367.9 372 358.9 372 347.9C372 336.9 363 327.9 352 327.9L344 327.9L344 323.9C344 312.9 335 303.9 324 303.9C313 303.9 304 312.9 304 323.9z"/></symbol>
    <symbol id="language" viewBox="0 0 640 640"><path d="M192 64C209.7 64 224 78.3 224 96L224 128L352 128C369.7 128 384 142.3 384 160C384 177.7 369.7 192 352 192L342.4 192L334 215.1C317.6 260.3 292.9 301.6 261.8 337.1C276 345.9 290.8 353.7 306.2 360.6L356.6 383L418.8 243C423.9 231.4 435.4 224 448 224C460.6 224 472.1 231.4 477.2 243L605.2 531C612.4 547.2 605.1 566.1 589 573.2C572.9 580.3 553.9 573.1 546.8 557L526.8 512L369.3 512L349.3 557C342.1 573.2 323.2 580.4 307.1 573.2C291 566 283.7 547.1 290.9 531L330.7 441.5L280.3 419.1C257.3 408.9 235.3 396.7 214.5 382.7C193.2 399.9 169.9 414.9 145 427.4L110.3 444.6C94.5 452.5 75.3 446.1 67.4 430.3C59.5 414.5 65.9 395.3 81.7 387.4L116.2 370.1C132.5 361.9 148 352.4 162.6 341.8C148.8 329.1 135.8 315.4 123.7 300.9L113.6 288.7C102.3 275.1 104.1 254.9 117.7 243.6C131.3 232.3 151.5 234.1 162.8 247.7L173 259.9C184.5 273.8 197.1 286.7 210.4 298.6C237.9 268.2 259.6 232.5 273.9 193.2L274.4 192L64.1 192C46.3 192 32 177.7 32 160C32 142.3 46.3 128 64 128L160 128L160 96C160 78.3 174.3 64 192 64zM448 334.8L397.7 448L498.3 448L448 334.8z"/></symbol>
    <symbol id="legal" viewBox="0 0 640 640"><path d="M384 96L512 96C529.7 96 544 110.3 544 128C544 145.7 529.7 160 512 160L398.4 160C393.2 185.8 375.5 207.1 352 217.3L352 512L512 512C529.7 512 544 526.3 544 544C544 561.7 529.7 576 512 576L128 576C110.3 576 96 561.7 96 544C96 526.3 110.3 512 128 512L288 512L288 217.3C264.5 207 246.8 185.7 241.6 160L128 160C110.3 160 96 145.7 96 128C96 110.3 110.3 96 128 96L256 96C270.6 76.6 293.8 64 320 64C346.2 64 369.4 76.6 384 96zM439.6 384L584.4 384L512 259.8L439.6 384zM512 480C449.1 480 396.8 446 386 401.1C383.4 390.1 387 378.8 392.7 369L487.9 205.8C492.9 197.2 502.1 192 512 192C521.9 192 531.1 197.3 536.1 205.8L631.3 369C637 378.8 640.6 390.1 638 401.1C627.2 445.9 574.9 480 512 480zM126.8 259.8L54.4 384L199.3 384L126.8 259.8zM.9 401.1C-1.7 390.1 1.9 378.8 7.6 369L102.8 205.8C107.8 197.2 117 192 126.9 192C136.8 192 146 197.3 151 205.8L246.2 369C251.9 378.8 255.5 390.1 252.9 401.1C242.1 445.9 189.8 480 126.9 480C64 480 11.7 446 .9 401.1z"/></symbol>
    <symbol id="location" viewBox="0 0 640 640"><path d="M128 252.6C128 148.4 214 64 320 64C426 64 512 148.4 512 252.6C512 371.9 391.8 514.9 341.6 569.4C329.8 582.2 310.1 582.2 298.3 569.4C248.1 514.9 127.9 371.9 127.9 252.6zM320 320C355.3 320 384 291.3 384 256C384 220.7 355.3 192 320 192C284.7 192 256 220.7 256 256C256 291.3 284.7 320 320 320z"/></symbol>
    <symbol id="lock" viewBox="0 0 640 640"><path d="M256 160L256 224L384 224L384 160C384 124.7 355.3 96 320 96C284.7 96 256 124.7 256 160zM192 224L192 160C192 89.3 249.3 32 320 32C390.7 32 448 89.3 448 160L448 224C483.3 224 512 252.7 512 288L512 512C512 547.3 483.3 576 448 576L192 576C156.7 576 128 547.3 128 512L128 288C128 252.7 156.7 224 192 224z"/></symbol>
    <symbol id="log-in" viewBox="0 0 640 640"><path d="M409 337C418.4 327.6 418.4 312.4 409 303.1L265 159C258.1 152.1 247.8 150.1 238.8 153.8C229.8 157.5 224 166.3 224 176L224 256L112 256C85.5 256 64 277.5 64 304L64 336C64 362.5 85.5 384 112 384L224 384L224 464C224 473.7 229.8 482.5 238.8 486.2C247.8 489.9 258.1 487.9 265 481L409 337zM416 480C398.3 480 384 494.3 384 512C384 529.7 398.3 544 416 544L480 544C533 544 576 501 576 448L576 192C576 139 533 96 480 96L416 96C398.3 96 384 110.3 384 128C384 145.7 398.3 160 416 160L480 160C497.7 160 512 174.3 512 192L512 448C512 465.7 497.7 480 480 480L416 480z"/></symbol>
    <symbol id="log-out" viewBox="0 0 640 640"><path d="M569 337C578.4 327.6 578.4 312.4 569 303.1L425 159C418.1 152.1 407.8 150.1 398.8 153.8C389.8 157.5 384 166.3 384 176L384 256L272 256C245.5 256 224 277.5 224 304L224 336C224 362.5 245.5 384 272 384L384 384L384 464C384 473.7 389.8 482.5 398.8 486.2C407.8 489.9 418.1 487.9 425 481L569 337zM224 160C241.7 160 256 145.7 256 128C256 110.3 241.7 96 224 96L160 96C107 96 64 139 64 192L64 448C64 501 107 544 160 544L224 544C241.7 544 256 529.7 256 512C256 494.3 241.7 480 224 480L160 480C142.3 480 128 465.7 128 448L128 192C128 174.3 142.3 160 160 160L224 160z"/></symbol>
    <symbol id="moderate" viewBox="0 0 640 640"><path d="M201.6 217.4L182.9 198.7C170.4 186.2 170.4 165.9 182.9 153.4L297.6 38.6C310.1 26.1 330.4 26.1 342.9 38.6L361.6 57.4C374.1 69.9 374.1 90.2 361.6 102.7L246.9 217.4C234.4 229.9 214.1 229.9 201.6 217.4zM308 275.7L276.6 244.3L388.6 132.3L508 251.7L396 363.7L364.6 332.3L132.6 564.3C117 579.9 91.7 579.9 76 564.3C60.3 548.7 60.4 523.4 76 507.7L308 275.7zM422.9 438.6C410.4 426.1 410.4 405.8 422.9 393.3L537.6 278.6C550.1 266.1 570.4 266.1 582.9 278.6L601.6 297.3C614.1 309.8 614.1 330.1 601.6 342.6L486.9 457.4C474.4 469.9 454.1 469.9 441.6 457.4L422.9 438.7z"/></symbol>
    <symbol id="move" viewBox="0 0 640 640"><path d="M342.6 73.4C330.1 60.9 309.8 60.9 297.3 73.4L233.3 137.4C220.8 149.9 220.8 170.2 233.3 182.7C245.8 195.2 266.1 195.2 278.6 182.7L288 173.3L288 288L173.3 288L182.7 278.6C195.2 266.1 195.2 245.8 182.7 233.3C170.2 220.8 149.9 220.8 137.4 233.3L73.4 297.3C60.9 309.8 60.9 330.1 73.4 342.6L137.4 406.6C149.9 419.1 170.2 419.1 182.7 406.6C195.2 394.1 195.2 373.8 182.7 361.3L173.3 351.9L288 351.9L288 466.6L278.6 457.2C266.1 444.7 245.8 444.7 233.3 457.2C220.8 469.7 220.8 490 233.3 502.5L297.3 566.5C309.8 579 330.1 579 342.6 566.5L406.6 502.5C419.1 490 419.1 469.7 406.6 457.2C394.1 444.7 373.8 444.7 361.3 457.2L351.9 466.6L351.9 351.9L466.6 351.9L457.2 361.3C444.7 373.8 444.7 394.1 457.2 406.6C469.7 419.1 490 419.1 502.5 406.6L566.5 342.6C579 330.1 579 309.8 566.5 297.3L502.5 233.3C490 220.8 469.7 220.8 457.2 233.3C444.7 245.8 444.7 266.1 457.2 278.6L466.6 288L351.9 288L351.9 173.3L361.3 182.7C373.8 195.2 394.1 195.2 406.6 182.7C419.1 170.2 419.1 149.9 406.6 137.4L342.6 73.4z"/></symbol>
    <symbol id="muted" viewBox="0 0 640 640"><path d="M80 416L128 416L262.1 535.2C268.5 540.9 276.7 544 285.2 544C304.4 544 320 528.4 320 509.2L320 130.8C320 111.6 304.4 96 285.2 96C276.7 96 268.5 99.1 262.1 104.8L128 224L80 224C53.5 224 32 245.5 32 272L32 368C32 394.5 53.5 416 80 416zM399 239C389.6 248.4 389.6 263.6 399 272.9L446 319.9L399 366.9C389.6 376.3 389.6 391.5 399 400.8C408.4 410.1 423.6 410.2 432.9 400.8L479.9 353.8L526.9 400.8C536.3 410.2 551.5 410.2 560.8 400.8C570.1 391.4 570.2 376.2 560.8 366.9L513.8 319.9L560.8 272.9C570.2 263.5 570.2 248.3 560.8 239C551.4 229.7 536.2 229.6 526.9 239L479.9 286L432.9 239C423.5 229.6 408.3 229.6 399 239z"/></symbol>
    <symbol id="navigation" viewBox="0 0 640 640"><path d="M256 128C256 110.3 270.3 96 288 96L352 96C369.7 96 384 110.3 384 128L384 192C384 209.7 369.7 224 352 224L344 224L344 288L464 288C503.8 288 536 320.2 536 360L536 416L544 416C561.7 416 576 430.3 576 448L576 512C576 529.7 561.7 544 544 544L480 544C462.3 544 448 529.7 448 512L448 448C448 430.3 462.3 416 480 416L488 416L488 360C488 346.7 477.3 336 464 336L344 336L344 416L352 416C369.7 416 384 430.3 384 448L384 512C384 529.7 369.7 544 352 544L288 544C270.3 544 256 529.7 256 512L256 448C256 430.3 270.3 416 288 416L296 416L296 336L176 336C162.7 336 152 346.7 152 360L152 416L160 416C177.7 416 192 430.3 192 448L192 512C192 529.7 177.7 544 160 544L96 544C78.3 544 64 529.7 64 512L64 448C64 430.3 78.3 416 96 416L104 416L104 360C104 320.2 136.2 288 176 288L296 288L296 224L288 224C270.3 224 256 209.7 256 192L256 128z"/></symbol>
    <symbol id="news" viewBox="0 0 640 640"><path d="M64 480L64 184C64 170.7 74.7 160 88 160C101.3 160 112 170.7 112 184L112 472C112 485.3 122.7 496 136 496C149.3 496 160 485.3 160 472L160 160C160 124.7 188.7 96 224 96L512 96C547.3 96 576 124.7 576 160L576 480C576 515.3 547.3 544 512 544L128 544C92.7 544 64 515.3 64 480zM224 192L224 256C224 273.7 238.3 288 256 288L320 288C337.7 288 352 273.7 352 256L352 192C352 174.3 337.7 160 320 160L256 160C238.3 160 224 174.3 224 192zM248 432C234.7 432 224 442.7 224 456C224 469.3 234.7 480 248 480L488 480C501.3 480 512 469.3 512 456C512 442.7 501.3 432 488 432L248 432zM224 360C224 373.3 234.7 384 248 384L488 384C501.3 384 512 373.3 512 360C512 346.7 501.3 336 488 336L248 336C234.7 336 224 346.7 224 360zM424 240C410.7 240 400 250.7 400 264C400 277.3 410.7 288 424 288L488 288C501.3 288 512 277.3 512 264C512 250.7 501.3 240 488 240L424 240z"/></symbol>
    <symbol id="note" viewBox="0 0 640 640"><path d="M160 544C124.7 544 96 515.3 96 480L96 160C96 124.7 124.7 96 160 96L480 96C515.3 96 544 124.7 544 160L544 373.5C544 390.5 537.3 406.8 525.3 418.8L418.7 525.3C406.7 537.3 390.4 544 373.4 544L160 544zM485.5 368L392 368C378.7 368 368 378.7 368 392L368 485.5L485.5 368z"/></symbol>
    <symbol id="page" viewBox="0 0 640 640"><path d="M128 128C128 92.7 156.7 64 192 64L341.5 64C358.5 64 374.8 70.7 386.8 82.7L493.3 189.3C505.3 201.3 512 217.6 512 234.6L512 512C512 547.3 483.3 576 448 576L192 576C156.7 576 128 547.3 128 512L128 128zM336 122.5L336 216C336 229.3 346.7 240 360 240L453.5 240L336 122.5zM248 320C234.7 320 224 330.7 224 344C224 357.3 234.7 368 248 368L392 368C405.3 368 416 357.3 416 344C416 330.7 405.3 320 392 320L248 320zM248 416C234.7 416 224 426.7 224 440C224 453.3 234.7 464 248 464L392 464C405.3 464 416 453.3 416 440C416 426.7 405.3 416 392 416L248 416z"/></symbol>
    <symbol id="password" viewBox="0 0 640 640"><path d="M400 416C497.2 416 576 337.2 576 240C576 142.8 497.2 64 400 64C302.8 64 224 142.8 224 240C224 258.7 226.9 276.8 232.3 293.7L71 455C66.5 459.5 64 465.6 64 472L64 552C64 565.3 74.7 576 88 576L168 576C181.3 576 192 565.3 192 552L192 512L232 512C245.3 512 256 501.3 256 488L256 448L296 448C302.4 448 308.5 445.5 313 441L346.3 407.7C363.2 413.1 381.3 416 400 416zM440 160C462.1 160 480 177.9 480 200C480 222.1 462.1 240 440 240C417.9 240 400 222.1 400 200C400 177.9 417.9 160 440 160z"/></symbol>
    <symbol id="payment" viewBox="0 0 640 640"><path d="M128 128C92.7 128 64 156.7 64 192L64 448C64 483.3 92.7 512 128 512L512 512C547.3 512 576 483.3 576 448L576 192C576 156.7 547.3 128 512 128L128 128zM320 208C381.9 208 432 258.1 432 320C432 381.9 381.9 432 320 432C258.1 432 208 381.9 208 320C208 258.1 258.1 208 320 208zM128 248L128 200C128 195.6 131.6 192 136 192L184 192C188.4 192 192.1 195.6 191.5 200C187.9 229 164.9 251.9 136 255.5C131.6 256 128 252.4 128 248zM128 392C128 387.6 131.6 383.9 136 384.5C165 388.1 187.9 411.1 191.5 440C192 444.4 188.4 448 184 448L136 448C131.6 448 128 444.4 128 440L128 392zM504 255.5C475 251.9 452.1 228.9 448.5 200C448 195.6 451.6 192 456 192L504 192C508.4 192 512 195.6 512 200L512 248C512 252.4 508.4 256.1 504 255.5zM512 392L512 440C512 444.4 508.4 448 504 448L456 448C451.6 448 447.9 444.4 448.5 440C452.1 411 475.1 388.1 504 384.5C508.4 384 512 387.6 512 392zM304 252C293 252 284 261 284 272C284 281.7 290.9 289.7 300 291.6L300 340L296 340C285 340 276 349 276 360C276 371 285 380 296 380L344 380C355 380 364 371 364 360C364 349 355 340 344 340L340 340L340 272C340 261 331 252 320 252L304 252z"/></symbol>
    <symbol id="pending" viewBox="0 0 640 640"><path d="M160 64C142.3 64 128 78.3 128 96C128 113.7 142.3 128 160 128L160 139C160 181.4 176.9 222.1 206.9 252.1L274.8 320L206.9 387.9C176.9 417.9 160 458.6 160 501L160 512C142.3 512 128 526.3 128 544C128 561.7 142.3 576 160 576L480 576C497.7 576 512 561.7 512 544C512 526.3 497.7 512 480 512L480 501C480 458.6 463.1 417.9 433.1 387.9L365.2 320L433.1 252.1C463.1 222.1 480 181.4 480 139L480 128C497.7 128 512 113.7 512 96C512 78.3 497.7 64 480 64L160 64zM224 139L224 128L416 128L416 139C416 158 410.4 176.4 400 192L240 192C229.7 176.4 224 158 224 139zM240 448C243.5 442.7 247.6 437.7 252.1 433.1L320 365.2L387.9 433.1C392.5 437.7 396.5 442.7 400.1 448L240 448z"/></symbol>
    <symbol id="permission" viewBox="0 0 640 640"><path d="M400 416C497.2 416 576 337.2 576 240C576 142.8 497.2 64 400 64C302.8 64 224 142.8 224 240C224 258.7 226.9 276.8 232.3 293.7L71 455C66.5 459.5 64 465.6 64 472L64 552C64 565.3 74.7 576 88 576L168 576C181.3 576 192 565.3 192 552L192 512L232 512C245.3 512 256 501.3 256 488L256 448L296 448C302.4 448 308.5 445.5 313 441L346.3 407.7C363.2 413.1 381.3 416 400 416zM440 160C462.1 160 480 177.9 480 200C480 222.1 462.1 240 440 240C417.9 240 400 222.1 400 200C400 177.9 417.9 160 440 160z"/></symbol>
    <symbol id="phone" viewBox="0 0 640 640"><path d="M224.2 89C216.3 70.1 195.7 60.1 176.1 65.4L170.6 66.9C106 84.5 50.8 147.1 66.9 223.3C104 398.3 241.7 536 416.7 573.1C493 589.3 555.5 534 573.1 469.4L574.6 463.9C580 444.2 569.9 423.6 551.1 415.8L453.8 375.3C437.3 368.4 418.2 373.2 406.8 387.1L368.2 434.3C297.9 399.4 241.3 341 208.8 269.3L253 233.3C266.9 222 271.6 202.9 264.8 186.3L224.2 89z"/></symbol>
    <symbol id="pin" viewBox="0 0 640 640"><path d="M160 96C160 78.3 174.3 64 192 64L448 64C465.7 64 480 78.3 480 96C480 113.7 465.7 128 448 128L418.5 128L428.8 262.1C465.9 283.3 494.6 318.5 507 361.8L510.8 375.2C513.6 384.9 511.6 395.2 505.6 403.3C499.6 411.4 490 416 480 416L160 416C150 416 140.5 411.3 134.5 403.3C128.5 395.3 126.5 384.9 129.3 375.2L133 361.8C145.4 318.5 174 283.3 211.2 262.1L221.5 128L192 128C174.3 128 160 113.7 160 96zM288 464L352 464L352 576C352 593.7 337.7 608 320 608C302.3 608 288 593.7 288 576L288 464z"/></symbol>
    <symbol id="unpin" viewBox="0 0 640 640"><path d="M73 39.1C63.6 29.7 48.4 29.7 39.1 39.1C29.8 48.5 29.7 63.7 39 73.1L567 601.1C576.4 610.5 591.6 610.5 600.9 601.1C610.2 591.7 610.3 576.5 600.9 567.2L449.8 416L480 416C490 416 499.5 411.3 505.5 403.3C511.5 395.3 513.5 384.9 510.7 375.2L507 361.8C494.6 318.5 466 283.3 428.8 262.1L418.5 128L448 128C465.7 128 480 113.7 480 96C480 78.3 465.7 64 448 64L192 64C184.6 64 177.9 66.5 172.5 70.6L222.1 120.3L217.3 183.4L73 39.1zM314.2 416L181.7 283.6C159 304.1 141.9 331 133 361.9L129.2 375.3C126.4 385 128.4 395.3 134.4 403.4C140.4 411.5 150 416 160 416L314.2 416zM288 576C288 593.7 302.3 608 320 608C337.7 608 352 593.7 352 576L352 464L288 464L288 576z"/></symbol>
    <symbol id="print" viewBox="0 0 640 640"><path d="M128 128C128 92.7 156.7 64 192 64L405.5 64C422.5 64 438.8 70.7 450.8 82.7L493.3 125.2C505.3 137.2 512 153.5 512 170.5L512 208L128 208L128 128zM64 320C64 284.7 92.7 256 128 256L512 256C547.3 256 576 284.7 576 320L576 416C576 433.7 561.7 448 544 448L512 448L512 512C512 547.3 483.3 576 448 576L192 576C156.7 576 128 547.3 128 512L128 448L96 448C78.3 448 64 433.7 64 416L64 320zM192 480L192 512L448 512L448 416L192 416L192 480zM520 336C520 322.7 509.3 312 496 312C482.7 312 472 322.7 472 336C472 349.3 482.7 360 496 360C509.3 360 520 349.3 520 336z"/></symbol>
    <symbol id="published" viewBox="0 0 640 640"><path d="M320 96C239.2 96 174.5 132.8 127.4 176.6C80.6 220.1 49.3 272 34.4 307.7C31.1 315.6 31.1 324.4 34.4 332.3C49.3 368 80.6 420 127.4 463.4C174.5 507.1 239.2 544 320 544C400.8 544 465.5 507.2 512.6 463.4C559.4 419.9 590.7 368 605.6 332.3C608.9 324.4 608.9 315.6 605.6 307.7C590.7 272 559.4 220 512.6 176.6C465.5 132.9 400.8 96 320 96zM176 320C176 240.5 240.5 176 320 176C399.5 176 464 240.5 464 320C464 399.5 399.5 464 320 464C240.5 464 176 399.5 176 320zM320 256C320 291.3 291.3 320 256 320C244.5 320 233.7 317 224.3 311.6C223.3 322.5 224.2 333.7 227.2 344.8C240.9 396 293.6 426.4 344.8 412.7C396 399 426.4 346.3 412.7 295.1C400.5 249.4 357.2 220.3 311.6 224.3C316.9 233.6 320 244.4 320 256z"/></symbol>
    <symbol id="quote" viewBox="0 0 640 640"><path d="M544 360C544 426.3 490.3 480 424 480L416 480C398.3 480 384 465.7 384 448C384 430.3 398.3 416 416 416L424 416C454.9 416 480 390.9 480 360L480 352L416 352C380.7 352 352 323.3 352 288L352 224C352 188.7 380.7 160 416 160L480 160C515.3 160 544 188.7 544 224L544 360zM288 360C288 426.3 234.3 480 168 480L160 480C142.3 480 128 465.7 128 448C128 430.3 142.3 416 160 416L168 416C198.9 416 224 390.9 224 360L224 352L160 352C124.7 352 96 323.3 96 288L96 224C96 188.7 124.7 160 160 160L224 160C259.3 160 288 188.7 288 224L288 360z"/></symbol>
    <symbol id="remove" viewBox="0 0 640 640"><path d="M183.1 137.4C170.6 124.9 150.3 124.9 137.8 137.4C125.3 149.9 125.3 170.2 137.8 182.7L275.2 320L137.9 457.4C125.4 469.9 125.4 490.2 137.9 502.7C150.4 515.2 170.7 515.2 183.2 502.7L320.5 365.3L457.9 502.6C470.4 515.1 490.7 515.1 503.2 502.6C515.7 490.1 515.7 469.8 503.2 457.3L365.8 320L503.1 182.6C515.6 170.1 515.6 149.8 503.1 137.3C490.6 124.8 470.3 124.8 457.8 137.3L320.5 274.7L183.1 137.4z"/></symbol>
    <symbol id="reply" viewBox="0 0 640 640"><path d="M268.2 82.4C280.2 87.4 288 99 288 112L288 192L400 192C497.2 192 576 270.8 576 368C576 481.3 494.5 531.9 475.8 542.1C473.3 543.5 470.5 544 467.7 544C456.8 544 448 535.1 448 524.3C448 516.8 452.3 509.9 457.8 504.8C467.2 496 480 478.4 480 448.1C480 395.1 437 352.1 384 352.1L288 352.1L288 432.1C288 445 280.2 456.7 268.2 461.7C256.2 466.7 242.5 463.9 233.3 454.8L73.3 294.8C60.8 282.3 60.8 262 73.3 249.5L233.3 89.5C242.5 80.3 256.2 77.6 268.2 82.6z"/></symbol>
    <symbol id="role" viewBox="0 0 640 640"><path d="M320 312C253.7 312 200 258.3 200 192C200 125.7 253.7 72 320 72C386.3 72 440 125.7 440 192C440 258.3 386.3 312 320 312zM289.5 368L350.5 368C360.2 368 368 375.8 368 385.5C368 389.7 366.5 393.7 363.8 396.9L336.4 428.9L367.4 544L368 544L402.6 405.5C404.8 396.8 413.7 391.5 422.1 394.7C484 418.3 528 478.3 528 548.5C528 563.6 515.7 575.9 500.6 575.9L139.4 576C124.3 576 112 563.7 112 548.6C112 478.4 156 418.4 217.9 394.8C226.3 391.6 235.2 396.9 237.4 405.6L272 544.1L272.6 544.1L303.6 429L276.2 397C273.5 393.8 272 389.8 272 385.6C272 375.9 279.8 368.1 289.5 368.1z"/></symbol>
    <symbol id="search" viewBox="0 0 640 640"><path d="M480 272C480 317.9 465.1 360.3 440 394.7L566.6 521.4C579.1 533.9 579.1 554.2 566.6 566.7C554.1 579.2 533.8 579.2 521.3 566.7L394.7 440C360.3 465.1 317.9 480 272 480C157.1 480 64 386.9 64 272C64 157.1 157.1 64 272 64C386.9 64 480 157.1 480 272zM272 416C351.5 416 416 351.5 416 272C416 192.5 351.5 128 272 128C192.5 128 128 192.5 128 272C128 351.5 192.5 416 272 416z"/></symbol>
    <symbol id="seating-area" viewBox="0 0 640 640"><path d="M152 160C174.1 160 192 177.9 192 200L192 248C192 270.1 174.1 288 152 288L104 288C81.9 288 64 270.1 64 248L64 200C64 177.9 81.9 160 104 160L152 160zM344 288L296 288C273.9 288 256 270.1 256 248L256 200C256 177.9 273.9 160 296 160L344 160C366.1 160 384 177.9 384 200L384 248C384 270.1 366.1 288 344 288zM536 288L488 288C465.9 288 448 270.1 448 248L448 200C448 177.9 465.9 160 488 160L536 160C558.1 160 576 177.9 576 200L576 248C576 270.1 558.1 288 536 288zM536 480L488 480C465.9 480 448 462.1 448 440L448 392C448 369.9 465.9 352 488 352L536 352C558.1 352 576 369.9 576 392L576 440C576 462.1 558.1 480 536 480zM344 352C366.1 352 384 369.9 384 392L384 440C384 462.1 366.1 480 344 480L296 480C273.9 480 256 462.1 256 440L256 392C256 369.9 273.9 352 296 352L344 352zM152 480L104 480C81.9 480 64 462.1 64 440L64 392C64 369.9 81.9 352 104 352L152 352C174.1 352 192 369.9 192 392L192 440C192 462.1 174.1 480 152 480z"/></symbol>
    <symbol id="server" viewBox="0 0 640 640"><path d="M160 96C124.7 96 96 124.7 96 160L96 224C96 259.3 124.7 288 160 288L480 288C515.3 288 544 259.3 544 224L544 160C544 124.7 515.3 96 480 96L160 96zM376 168C389.3 168 400 178.7 400 192C400 205.3 389.3 216 376 216C362.7 216 352 205.3 352 192C352 178.7 362.7 168 376 168zM432 192C432 178.7 442.7 168 456 168C469.3 168 480 178.7 480 192C480 205.3 469.3 216 456 216C442.7 216 432 205.3 432 192zM160 352C124.7 352 96 380.7 96 416L96 480C96 515.3 124.7 544 160 544L480 544C515.3 544 544 515.3 544 480L544 416C544 380.7 515.3 352 480 352L160 352zM376 424C389.3 424 400 434.7 400 448C400 461.3 389.3 472 376 472C362.7 472 352 461.3 352 448C352 434.7 362.7 424 376 424zM432 448C432 434.7 442.7 424 456 424C469.3 424 480 434.7 480 448C480 461.3 469.3 472 456 472C442.7 472 432 461.3 432 448z"/></symbol>
    <symbol id="settings" viewBox="0 0 640 640"><path d="M96 128C78.3 128 64 142.3 64 160C64 177.7 78.3 192 96 192L182.7 192C195 220.3 223.2 240 256 240C288.8 240 317 220.3 329.3 192L544 192C561.7 192 576 177.7 576 160C576 142.3 561.7 128 544 128L329.3 128C317 99.7 288.8 80 256 80C223.2 80 195 99.7 182.7 128L96 128zM96 288C78.3 288 64 302.3 64 320C64 337.7 78.3 352 96 352L342.7 352C355 380.3 383.2 400 416 400C448.8 400 477 380.3 489.3 352L544 352C561.7 352 576 337.7 576 320C576 302.3 561.7 288 544 288L489.3 288C477 259.7 448.8 240 416 240C383.2 240 355 259.7 342.7 288L96 288zM96 448C78.3 448 64 462.3 64 480C64 497.7 78.3 512 96 512L150.7 512C163 540.3 191.2 560 224 560C256.8 560 285 540.3 297.3 512L544 512C561.7 512 576 497.7 576 480C576 462.3 561.7 448 544 448L297.3 448C285 419.7 256.8 400 224 400C191.2 400 163 419.7 150.7 448L96 448z"/></symbol>
    <symbol id="shipping" viewBox="0 0 640 640"><path d="M32 160C32 124.7 60.7 96 96 96L384 96C419.3 96 448 124.7 448 160L448 192L498.7 192C515.7 192 532 198.7 544 210.7L589.3 256C601.3 268 608 284.3 608 301.3L608 448C608 483.3 579.3 512 544 512L540.7 512C530.3 548.9 496.3 576 456 576C415.7 576 381.8 548.9 371.3 512L268.7 512C258.3 548.9 224.3 576 184 576C143.7 576 109.8 548.9 99.3 512L96 512C60.7 512 32 483.3 32 448L32 160zM544 352L544 301.3L498.7 256L448 256L448 352L544 352zM224 488C224 465.9 206.1 448 184 448C161.9 448 144 465.9 144 488C144 510.1 161.9 528 184 528C206.1 528 224 510.1 224 488zM456 528C478.1 528 496 510.1 496 488C496 465.9 478.1 448 456 448C433.9 448 416 465.9 416 488C416 510.1 433.9 528 456 528z"/></symbol>
    <symbol id="shop" viewBox="0 0 640 640"><path d="M94.7 136.3C101.6 112.4 123.5 96 148.4 96L492.4 96C517.3 96 539.2 112.4 546.2 136.3L569.6 216.5C582.4 260.2 549.5 304 504 304C477.7 304 454.6 289.1 443.2 266.9C431.6 288.8 408.6 304 381.8 304C355.2 304 332.1 289 320.5 267C308.9 289 285.8 304 259.2 304C232.4 304 209.4 288.9 197.8 266.9C186.4 289 163.3 304 137 304C91.4 304 58.6 260.3 71.4 216.5L94.7 136.3zM160.4 416L480.4 416L480.4 349.6C488 351.2 495.9 352 503.9 352C518.2 352 531.9 349.4 544.4 344.8L544.4 496C544.4 522.5 522.9 544 496.4 544L144.4 544C117.9 544 96.4 522.5 96.4 496L96.4 344.8C108.9 349.4 122.5 352 136.9 352C145 352 152.8 351.2 160.4 349.6L160.4 416z"/></symbol>
    <symbol id="shop-order" viewBox="0 0 640 640"><path d="M192 64C156.7 64 128 92.7 128 128L128 512C128 547.3 156.7 576 192 576L448 576C483.3 576 512 547.3 512 512L512 234.5C512 217.5 505.3 201.2 493.3 189.2L386.7 82.7C374.7 70.7 358.5 64 341.5 64L192 64zM453.5 240L360 240C346.7 240 336 229.3 336 216L336 122.5L453.5 240zM192 448L192 384C192 366.3 206.3 352 224 352L416 352C433.7 352 448 366.3 448 384L448 448C448 465.7 433.7 480 416 480L224 480C206.3 480 192 465.7 192 448zM216 128L264 128C277.3 128 288 138.7 288 152C288 165.3 277.3 176 264 176L216 176C202.7 176 192 165.3 192 152C192 138.7 202.7 128 216 128zM216 224L264 224C277.3 224 288 234.7 288 248C288 261.3 277.3 272 264 272L216 272C202.7 272 192 261.3 192 248C192 234.7 202.7 224 216 224z"/></symbol>
    <symbol id="shop-products" viewBox="0 0 640 640"><path d="M288 64L288 128C288 136.8 295.2 144 304 144L336 144C344.8 144 352 136.8 352 128L352 64L384 64C419.3 64 448 92.7 448 128L448 256C448 261.5 447.3 266.9 446 272L194 272C192.7 266.9 192 261.5 192 256L192 128C192 92.7 220.7 64 256 64L288 64zM384 576C372.8 576 362.2 573.1 353 568C362.5 551.5 368 532.4 368 512L368 384C368 363.6 362.5 344.5 353 328C362.2 322.9 372.7 320 384 320L416 320L416 384C416 392.8 423.2 400 432 400L464 400C472.8 400 480 392.8 480 384L480 320L512 320C547.3 320 576 348.7 576 384L576 512C576 547.3 547.3 576 512 576L384 576zM64 384C64 348.7 92.7 320 128 320L160 320L160 384C160 392.8 167.2 400 176 400L208 400C216.8 400 224 392.8 224 384L224 320L256 320C291.3 320 320 348.7 320 384L320 512C320 547.3 291.3 576 256 576L128 576C92.7 576 64 547.3 64 512L64 384z"/></symbol>
    <symbol id="shopping-cart" viewBox="0 0 640 640"><path d="M24 48C10.7 48 0 58.7 0 72C0 85.3 10.7 96 24 96L69.3 96C73.2 96 76.5 98.8 77.2 102.6L129.3 388.9C135.5 423.1 165.3 448 200.1 448L456 448C469.3 448 480 437.3 480 424C480 410.7 469.3 400 456 400L200.1 400C188.5 400 178.6 391.7 176.5 380.3L171.4 352L475 352C505.8 352 532.2 330.1 537.9 299.8L568.9 133.9C572.6 114.2 557.5 96 537.4 96L124.7 96L124.3 94C119.5 67.4 96.3 48 69.2 48L24 48zM208 576C234.5 576 256 554.5 256 528C256 501.5 234.5 480 208 480C181.5 480 160 501.5 160 528C160 554.5 181.5 576 208 576zM432 576C458.5 576 480 554.5 480 528C480 501.5 458.5 480 432 480C405.5 480 384 501.5 384 528C384 554.5 405.5 576 432 576z"/></symbol>
    <symbol id="site" viewBox="0 0 640 640"><path d="M256 128C256 110.3 270.3 96 288 96L352 96C369.7 96 384 110.3 384 128L384 192C384 209.7 369.7 224 352 224L344 224L344 288L464 288C503.8 288 536 320.2 536 360L536 416L544 416C561.7 416 576 430.3 576 448L576 512C576 529.7 561.7 544 544 544L480 544C462.3 544 448 529.7 448 512L448 448C448 430.3 462.3 416 480 416L488 416L488 360C488 346.7 477.3 336 464 336L344 336L344 416L352 416C369.7 416 384 430.3 384 448L384 512C384 529.7 369.7 544 352 544L288 544C270.3 544 256 529.7 256 512L256 448C256 430.3 270.3 416 288 416L296 416L296 336L176 336C162.7 336 152 346.7 152 360L152 416L160 416C177.7 416 192 430.3 192 448L192 512C192 529.7 177.7 544 160 544L96 544C78.3 544 64 529.7 64 512L64 448C64 430.3 78.3 416 96 416L104 416L104 360C104 320.2 136.2 288 176 288L296 288L296 224L288 224C270.3 224 256 209.7 256 192L256 128z"/></symbol>
    <symbol id="snippet" viewBox="0 0 640 640"><path d="M256 320L216.5 359.5C203.9 354.6 190.3 352 176 352C114.1 352 64 402.1 64 464C64 525.9 114.1 576 176 576C237.9 576 288 525.9 288 464C288 449.7 285.3 436.1 280.5 423.5L563.2 140.8C570.3 133.7 570.3 122.3 563.2 115.2C534.9 86.9 489.1 86.9 460.8 115.2L320 256L280.5 216.5C285.4 203.9 288 190.3 288 176C288 114.1 237.9 64 176 64C114.1 64 64 114.1 64 176C64 237.9 114.1 288 176 288C190.3 288 203.9 285.3 216.5 280.5L256 320zM353.9 417.9L460.8 524.8C489.1 553.1 534.9 553.1 563.2 524.8C570.3 517.7 570.3 506.3 563.2 499.2L417.9 353.9L353.9 417.9zM128 176C128 149.5 149.5 128 176 128C202.5 128 224 149.5 224 176C224 202.5 202.5 224 176 224C149.5 224 128 202.5 128 176zM176 416C202.5 416 224 437.5 224 464C224 490.5 202.5 512 176 512C149.5 512 128 490.5 128 464C128 437.5 149.5 416 176 416z"/></symbol>
    <symbol id="sorted" viewBox="0 0 640 640"><path d="M130.4 268.2C135.4 280.2 147 288 160 288L480 288C492.9 288 504.6 280.2 509.6 268.2C514.6 256.2 511.8 242.5 502.7 233.3L342.7 73.3C330.2 60.8 309.9 60.8 297.4 73.3L137.4 233.3C128.2 242.5 125.5 256.2 130.5 268.2zM130.4 371.7C125.4 383.7 128.2 397.4 137.3 406.6L297.3 566.6C309.8 579.1 330.1 579.1 342.6 566.6L502.6 406.6C511.8 397.4 514.5 383.7 509.5 371.7C504.5 359.7 492.9 352 480 352L160 352C147.1 352 135.4 359.8 130.4 371.8z"/></symbol>
    <symbol id="spinner" viewBox="0 0 640 640"><path d="M286.7 96.1C291.7 113 282.1 130.9 265.2 135.9C185.9 159.5 128.1 233 128.1 320C128.1 426 214.1 512 320.1 512C426.1 512 512.1 426 512.1 320C512.1 233.1 454.3 159.6 375 135.9C358.1 130.9 348.4 113 353.5 96.1C358.6 79.2 376.4 69.5 393.3 74.6C498.9 106.1 576 204 576 320C576 461.4 461.4 576 320 576C178.6 576 64 461.4 64 320C64 204 141.1 106.1 246.9 74.6C263.8 69.6 281.7 79.2 286.7 96.1z"/></symbol>
    <symbol id="success" viewBox="0 0 640 640"><path d="M530.8 134.1C545.1 144.5 548.3 164.5 537.9 178.8L281.9 530.8C276.4 538.4 267.9 543.1 258.5 543.9C249.1 544.7 240 541.2 233.4 534.6L105.4 406.6C92.9 394.1 92.9 373.8 105.4 361.3C117.9 348.8 138.2 348.8 150.7 361.3L252.2 462.8L486.2 141.1C496.6 126.8 516.6 123.6 530.9 134z"/></symbol>
    <symbol id="text" viewBox="0 0 640 640"><path d="M128 128C128 92.7 156.7 64 192 64L341.5 64C358.5 64 374.8 70.7 386.8 82.7L493.3 189.3C505.3 201.3 512 217.6 512 234.6L512 512C512 547.3 483.3 576 448 576L192 576C156.7 576 128 547.3 128 512L128 128zM336 122.5L336 216C336 229.3 346.7 240 360 240L453.5 240L336 122.5zM248 320C234.7 320 224 330.7 224 344C224 357.3 234.7 368 248 368L392 368C405.3 368 416 357.3 416 344C416 330.7 405.3 320 392 320L248 320zM248 416C234.7 416 224 426.7 224 440C224 453.3 234.7 464 248 464L392 464C405.3 464 416 453.3 416 440C416 426.7 405.3 416 392 416L248 416z"/></symbol>
    <symbol id="ticket" viewBox="0 0 640 640"><path d="M96 128C60.7 128 32 156.7 32 192L32 256C32 264.8 39.4 271.7 47.7 274.6C66.5 281.1 80 299 80 320C80 341 66.5 358.9 47.7 365.4C39.4 368.3 32 375.2 32 384L32 448C32 483.3 60.7 512 96 512L544 512C579.3 512 608 483.3 608 448L608 384C608 375.2 600.6 368.3 592.3 365.4C573.5 358.9 560 341 560 320C560 299 573.5 281.1 592.3 274.6C600.6 271.7 608 264.8 608 256L608 192C608 156.7 579.3 128 544 128L96 128zM448 400L448 240L192 240L192 400L448 400zM144 224C144 206.3 158.3 192 176 192L464 192C481.7 192 496 206.3 496 224L496 416C496 433.7 481.7 448 464 448L176 448C158.3 448 144 433.7 144 416L144 224z"/></symbol>
    <symbol id="ticket-bundle" viewBox="0 0 640 640"><path d="M296.5 69.2C311.4 62.3 328.6 62.3 343.5 69.2L562.1 170.2C570.6 174.1 576 182.6 576 192C576 201.4 570.6 209.9 562.1 213.8L343.5 314.8C328.6 321.7 311.4 321.7 296.5 314.8L77.9 213.8C69.4 209.8 64 201.3 64 192C64 182.7 69.4 174.1 77.9 170.2L296.5 69.2zM112.1 282.4L276.4 358.3C304.1 371.1 336 371.1 363.7 358.3L528 282.4L562.1 298.2C570.6 302.1 576 310.6 576 320C576 329.4 570.6 337.9 562.1 341.8L343.5 442.8C328.6 449.7 311.4 449.7 296.5 442.8L77.9 341.8C69.4 337.8 64 329.3 64 320C64 310.7 69.4 302.1 77.9 298.2L112 282.4zM77.9 426.2L112 410.4L276.3 486.3C304 499.1 335.9 499.1 363.6 486.3L527.9 410.4L562 426.2C570.5 430.1 575.9 438.6 575.9 448C575.9 457.4 570.5 465.9 562 469.8L343.4 570.8C328.5 577.7 311.3 577.7 296.4 570.8L77.9 469.8C69.4 465.8 64 457.3 64 448C64 438.7 69.4 430.1 77.9 426.2z"/></symbol>
    <symbol id="ticketing-checkin" viewBox="0 0 640 640"><path d="M409 337C418.4 327.6 418.4 312.4 409 303.1L265 159C258.1 152.1 247.8 150.1 238.8 153.8C229.8 157.5 224 166.3 224 176L224 256L112 256C85.5 256 64 277.5 64 304L64 336C64 362.5 85.5 384 112 384L224 384L224 464C224 473.7 229.8 482.5 238.8 486.2C247.8 489.9 258.1 487.9 265 481L409 337zM416 480C398.3 480 384 494.3 384 512C384 529.7 398.3 544 416 544L480 544C533 544 576 501 576 448L576 192C576 139 533 96 480 96L416 96C398.3 96 384 110.3 384 128C384 145.7 398.3 160 416 160L480 160C497.7 160 512 174.3 512 192L512 448C512 465.7 497.7 480 480 480L416 480z"/></symbol>
    <symbol id="time" viewBox="0 0 640 640"><path d="M320 64C461.4 64 576 178.6 576 320C576 461.4 461.4 576 320 576C178.6 576 64 461.4 64 320C64 178.6 178.6 64 320 64zM296 184L296 320C296 328 300 335.5 306.7 340L402.7 404C413.7 411.4 428.6 408.4 436 397.3C443.4 386.2 440.4 371.4 429.3 364L344 307.2L344 184C344 170.7 333.3 160 320 160C306.7 160 296 170.7 296 184z"/></symbol>
    <symbol id="trophy" viewBox="0 0 640 640"><path d="M208.3 64L432.3 64C458.8 64 480.4 85.8 479.4 112.2C479.2 117.5 479 122.8 478.7 128L528.3 128C554.4 128 577.4 149.6 575.4 177.8C567.9 281.5 514.9 338.5 457.4 368.3C441.6 376.5 425.5 382.6 410.2 387.1C390 415.7 369 430.8 352.3 438.9L352.3 512L416.3 512C434 512 448.3 526.3 448.3 544C448.3 561.7 434 576 416.3 576L224.3 576C206.6 576 192.3 561.7 192.3 544C192.3 526.3 206.6 512 224.3 512L288.3 512L288.3 438.9C272.3 431.2 252.4 416.9 233 390.6C214.6 385.8 194.6 378.5 175.1 367.5C121 337.2 72.2 280.1 65.2 177.6C63.3 149.5 86.2 127.9 112.3 127.9L161.9 127.9C161.6 122.7 161.4 117.5 161.2 112.1C160.2 85.6 181.8 63.9 208.3 63.9zM165.5 176L113.1 176C119.3 260.7 158.2 303.1 198.3 325.6C183.9 288.3 172 239.6 165.5 176zM444 320.8C484.5 297 521.1 254.7 527.3 176L475 176C468.8 236.9 457.6 284.2 444 320.8z"/></symbol>
    <symbol id="unlock" viewBox="0 0 640 640"><path d="M416 160C416 124.7 444.7 96 480 96C515.3 96 544 124.7 544 160L544 192C544 209.7 558.3 224 576 224C593.7 224 608 209.7 608 192L608 160C608 89.3 550.7 32 480 32C409.3 32 352 89.3 352 160L352 224L192 224C156.7 224 128 252.7 128 288L128 512C128 547.3 156.7 576 192 576L448 576C483.3 576 512 547.3 512 512L512 288C512 252.7 483.3 224 448 224L416 224L416 160z"/></symbol>
    <symbol id="update" viewBox="0 0 640 640"><path d="M129.9 292.5C143.2 199.5 223.3 128 320 128C373 128 421 149.5 455.8 184.2C456 184.4 456.2 184.6 456.4 184.8L464 192L416.1 192C398.4 192 384.1 206.3 384.1 224C384.1 241.7 398.4 256 416.1 256L544.1 256C561.8 256 576.1 241.7 576.1 224L576.1 96C576.1 78.3 561.8 64 544.1 64C526.4 64 512.1 78.3 512.1 96L512.1 149.4L500.8 138.7C454.5 92.6 390.5 64 320 64C191 64 84.3 159.4 66.6 283.5C64.1 301 76.2 317.2 93.7 319.7C111.2 322.2 127.4 310 129.9 292.6zM573.4 356.5C575.9 339 563.7 322.8 546.3 320.3C528.9 317.8 512.6 330 510.1 347.4C496.8 440.4 416.7 511.9 320 511.9C267 511.9 219 490.4 184.2 455.7C184 455.5 183.8 455.3 183.6 455.1L176 447.9L223.9 447.9C241.6 447.9 255.9 433.6 255.9 415.9C255.9 398.2 241.6 383.9 223.9 383.9L96 384C87.5 384 79.3 387.4 73.3 393.5C67.3 399.6 63.9 407.7 64 416.3L65 543.3C65.1 561 79.6 575.2 97.3 575C115 574.8 129.2 560.4 129 542.7L128.6 491.2L139.3 501.3C185.6 547.4 249.5 576 320 576C449 576 555.7 480.6 573.4 356.5z"/></symbol>
    <symbol id="upload" viewBox="0 0 640 640"><path d="M352 173.3L352 384C352 401.7 337.7 416 320 416C302.3 416 288 401.7 288 384L288 173.3L246.6 214.7C234.1 227.2 213.8 227.2 201.3 214.7C188.8 202.2 188.8 181.9 201.3 169.4L297.3 73.4C309.8 60.9 330.1 60.9 342.6 73.4L438.6 169.4C451.1 181.9 451.1 202.2 438.6 214.7C426.1 227.2 405.8 227.2 393.3 214.7L352 173.3zM320 464C364.2 464 400 428.2 400 384L480 384C515.3 384 544 412.7 544 448L544 480C544 515.3 515.3 544 480 544L160 544C124.7 544 96 515.3 96 480L96 448C96 412.7 124.7 384 160 384L240 384C240 428.2 275.8 464 320 464zM464 488C477.3 488 488 477.3 488 464C488 450.7 477.3 440 464 440C450.7 440 440 450.7 440 464C440 477.3 450.7 488 464 488z"/></symbol>
    <symbol id="user" viewBox="0 0 640 640"><path d="M320 312C386.3 312 440 258.3 440 192C440 125.7 386.3 72 320 72C253.7 72 200 125.7 200 192C200 258.3 253.7 312 320 312zM290.3 368C191.8 368 112 447.8 112 546.3C112 562.7 125.3 576 141.7 576L498.3 576C514.7 576 528 562.7 528 546.3C528 447.8 448.2 368 349.7 368L290.3 368z"/></symbol>
    <symbol id="user-comment" viewBox="0 0 640 640"><path d="M576 304C576 436.5 461.4 544 320 544C282.9 544 247.7 536.6 215.9 523.3L97.5 574.1C88.1 578.1 77.3 575.8 70.4 568.3C63.5 560.8 62 549.8 66.8 540.8L115.6 448.6C83.2 408.3 64 358.3 64 304C64 171.5 178.6 64 320 64C461.4 64 576 171.5 576 304z"/></symbol>
    <symbol id="user-create" viewBox="0 0 640 640"><path d="M136 192C136 125.7 189.7 72 256 72C322.3 72 376 125.7 376 192C376 258.3 322.3 312 256 312C189.7 312 136 258.3 136 192zM48 546.3C48 447.8 127.8 368 226.3 368L285.7 368C384.2 368 464 447.8 464 546.3C464 562.7 450.7 576 434.3 576L77.7 576C61.3 576 48 562.7 48 546.3zM544 160C557.3 160 568 170.7 568 184L568 232L616 232C629.3 232 640 242.7 640 256C640 269.3 629.3 280 616 280L568 280L568 328C568 341.3 557.3 352 544 352C530.7 352 520 341.3 520 328L520 280L472 280C458.7 280 448 269.3 448 256C448 242.7 458.7 232 472 232L520 232L520 184C520 170.7 530.7 160 544 160z"/></symbol>
    <symbol id="user-profile" viewBox="0 0 640 640"><path d="M96 96C60.7 96 32 124.7 32 160L32 480C32 515.3 60.7 544 96 544L544 544C579.3 544 608 515.3 608 480L608 160C608 124.7 579.3 96 544 96L96 96zM176 352L240 352C284.2 352 320 387.8 320 432C320 440.8 312.8 448 304 448L112 448C103.2 448 96 440.8 96 432C96 387.8 131.8 352 176 352zM152 256C152 225.1 177.1 200 208 200C238.9 200 264 225.1 264 256C264 286.9 238.9 312 208 312C177.1 312 152 286.9 152 256zM392 208L504 208C517.3 208 528 218.7 528 232C528 245.3 517.3 256 504 256L392 256C378.7 256 368 245.3 368 232C368 218.7 378.7 208 392 208zM392 304L504 304C517.3 304 528 314.7 528 328C528 341.3 517.3 352 504 352L392 352C378.7 352 368 341.3 368 328C368 314.7 378.7 304 392 304z"/></symbol>
    <symbol id="users" viewBox="0 0 640 640"><path d="M320 80C377.4 80 424 126.6 424 184C424 241.4 377.4 288 320 288C262.6 288 216 241.4 216 184C216 126.6 262.6 80 320 80zM96 152C135.8 152 168 184.2 168 224C168 263.8 135.8 296 96 296C56.2 296 24 263.8 24 224C24 184.2 56.2 152 96 152zM0 480C0 409.3 57.3 352 128 352C140.8 352 153.2 353.9 164.9 357.4C132 394.2 112 442.8 112 496L112 512C112 523.4 114.4 534.2 118.7 544L32 544C14.3 544 0 529.7 0 512L0 480zM521.3 544C525.6 534.2 528 523.4 528 512L528 496C528 442.8 508 394.2 475.1 357.4C486.8 353.9 499.2 352 512 352C582.7 352 640 409.3 640 480L640 512C640 529.7 625.7 544 608 544L521.3 544zM472 224C472 184.2 504.2 152 544 152C583.8 152 616 184.2 616 224C616 263.8 583.8 296 544 296C504.2 296 472 263.8 472 224zM160 496C160 407.6 231.6 336 320 336C408.4 336 480 407.6 480 496L480 512C480 529.7 465.7 544 448 544L192 544C174.3 544 160 529.7 160 512L160 496z"/></symbol>
    <symbol id="view" viewBox="0 0 640 640"><path d="M320 96C239.2 96 174.5 132.8 127.4 176.6C80.6 220.1 49.3 272 34.4 307.7C31.1 315.6 31.1 324.4 34.4 332.3C49.3 368 80.6 420 127.4 463.4C174.5 507.1 239.2 544 320 544C400.8 544 465.5 507.2 512.6 463.4C559.4 419.9 590.7 368 605.6 332.3C608.9 324.4 608.9 315.6 605.6 307.7C590.7 272 559.4 220 512.6 176.6C465.5 132.9 400.8 96 320 96zM176 320C176 240.5 240.5 176 320 176C399.5 176 464 240.5 464 320C464 399.5 399.5 464 320 464C240.5 464 176 399.5 176 320zM320 256C320 291.3 291.3 320 256 320C244.5 320 233.7 317 224.3 311.6C223.3 322.5 224.2 333.7 227.2 344.8C240.9 396 293.6 426.4 344.8 412.7C396 399 426.4 346.3 412.7 295.1C400.5 249.4 357.2 220.3 311.6 224.3C316.9 233.6 320 244.4 320 256z"/></symbol>
    <symbol id="warning" viewBox="0 0 640 640"><path d="M320 64C334.7 64 348.2 72.1 355.2 85L571.2 485C577.9 497.4 577.6 512.4 570.4 524.5C563.2 536.6 550.1 544 536 544L104 544C89.9 544 76.8 536.6 69.6 524.5C62.4 512.4 62.1 497.4 68.8 485L284.8 85C291.8 72.1 305.3 64 320 64zM320 416C302.3 416 288 430.3 288 448C288 465.7 302.3 480 320 480C337.7 480 352 465.7 352 448C352 430.3 337.7 416 320 416zM320 224C301.8 224 287.3 239.5 288.6 257.7L296 361.7C296.9 374.2 307.4 384 319.9 384C332.5 384 342.9 374.3 343.8 361.7L351.2 257.7C352.5 239.5 338.1 224 319.8 224z"/></symbol>

    <!--
      Webhooks logo, MIT license, from https://github.com/logo/webhooks
    -->

    <symbol id="webhook" viewBox="0 0 129 120"><path d="m65.332 0.0058594c-8.1387-0.16716-16.254 2.8952-22.438 8.9883-5.438 5.359-8.4115 11.897-9.1035 19.463-0.979 10.703 3.444 19.341 10.875 26.73-4.11 6.893-8.0104 13.429-11.816 19.811-1.094 0.082-1.7572 0.0945-2.4082 0.1875-7.767 1.101-13.235 8.0058-11.928 15.051 1.475 7.959 8.7183 12.844 16.152 10.896 7.883-2.065 12.077-9.6713 9.1035-17.488-1.077-2.83-0.40855-4.6431 0.93945-6.8691 5.249-8.671 10.391-17.408 15.758-26.43-12.502-6.268-17.078-14.587-14.055-24.77 2.663-8.972 11.638-14.844 20.779-13.463 4.56 0.688 8.5703 2.5552 11.695 6.1172 4.73 5.395 5.7975 11.692 4.3535 18.705 3.838 1.041 7.3299 1.9897 10.797 2.9297 4.598-12.614-0.79622-27.352-12.574-34.918-4.9818-3.2-10.562-4.827-16.131-4.9414zm-0.064453 18.664c-1.7011-0.056956-3.4212 0.21383-5.0527 0.83789-5.271 2.016-8.6431 7.1901-8.4141 12.914 0.233 5.788 4.1168 10.955 10.133 11.998 3.602 0.624 5.3668 2.3332 6.9648 5.2812 4.74 8.747 9.7202 17.363 14.615 26.047 11.8-7.865 21.562-7.6149 28.85 0.57812 6.315 7.1 6.4476 17.912 0.31055 25.164-7.197 8.501-16.891 8.8392-27.975 1.6602-3.071 2.569-5.9447 4.9751-8.8047 7.3691 11.222 11.201 27.24 12.691 39.906 3.9707 12.34-8.494 16.635-24.802 10.352-38.57-5.202-11.398-19.702-22.044-38.934-16.094-3.805-6.709-7.6448-13.48-11.426-20.15 0.589-1.478 1.1327-2.6846 1.5527-3.9316 1.51-4.473 0.59852-8.5546-2.2715-12.182-2.4145-3.0518-6.0643-4.7673-9.8066-4.8926zm-41.324 39.744c-14.266 3.109-24.97 16.95-23.865 32.521 0.976 13.746 12.065 25.952 25.625 28.139 7.365 1.189 14.285-0.0455 20.705-3.6875 8.259-4.686 13.051-12.055 15.27-21.182h23.152c0.997 1.328 1.7908 2.6104 2.7988 3.6914 4.903 5.243 13.183 5.5027 18.424 0.63672 5.432-5.043 5.6779-13.514 0.54493-18.779-5.023-5.152-13.606-5.6445-18.27-0.18945-2.833 3.315-5.7361 3.7055-9.4961 3.6465-9.63-0.149-19.267-0.048829-28.896-0.048829 0.625 13.547-4.4953 21.988-14.652 23.992-9.946 1.963-19.107-3.1121-22.332-12.371-3.663-10.521 0.86803-18.935 13.957-25.613-0.985-3.568-1.9798-7.1789-2.9648-10.756z"/></symbol>

  </defs>
</svg>
